<svg xmlns="http://www.w3.org/2000/svg" viewBox="0 0 500 500"><g id="freepik--background-complete--inject-18"><path d="M449.18,315.79c5.58-2.88,12.15-3.26,18.34-2.23,3.33.55,6.8,1.54,9.07,4s2.69,6.9.09,9c-1.55,1.28-3.71,1.47-5.71,1.45-4.85-.06-10.23-.91-14.11,2-2.21,1.67-3.68,4.44-6.32,5.25s-5.5-.72-6.87-3.05a10.63,10.63,0,0,1-.78-7.88A12,12,0,0,1,449.18,315.79Z" style="fill:#ebebeb"></path><path d="M436.4,291.11c3.41,4.87,10,3.26,13.12.29s4.37-7.29,5.55-11.4c2.7-9.39,5.43-19.24,3.42-28.81a16,16,0,0,0-3.68-7.83,8.38,8.38,0,0,0-7.92-2.64c-3.35.89-5.42,4.16-6.93,7.27a68.7,68.7,0,0,0-6.78,29.48c0,4.74.54,9.72,3.22,13.64" style="fill:#ebebeb"></path><path d="M427,298.1c3.7-4.39,4.41-10.81,2.76-16.31s-5.37-10.2-9.66-14a51.93,51.93,0,0,0-17.31-10.21,18.31,18.31,0,0,0-7.78-1.32,8.16,8.16,0,0,0-6.53,3.95c-1.82,3.47-.08,7.68,1.81,11.12a131.37,131.37,0,0,0,11.37,17.31c3.4,4.39,7.31,8.72,12.5,10.71s10.58,1.75,13.33-1.85" style="fill:#ebebeb"></path><path d="M436.17,364.61a10.57,10.57,0,0,0,.31-2.21c.15-1.61.35-3.64.58-6,.29-2.55.66-5.57,1.36-8.87A68.77,68.77,0,0,1,441.65,337a38.32,38.32,0,0,1,5.34-9.46,19.87,19.87,0,0,1,6.75-5.62,19,19,0,0,1,5.69-1.77,9.59,9.59,0,0,0,2.2-.32,10.75,10.75,0,0,0-2.24,0,17.12,17.12,0,0,0-5.93,1.54,20,20,0,0,0-7.13,5.66,37.9,37.9,0,0,0-5.53,9.66,63.72,63.72,0,0,0-3.2,10.63,74.76,74.76,0,0,0-1.18,9c-.19,2.56-.26,4.64-.3,6.08A10.5,10.5,0,0,0,436.17,364.61Z" style="fill:#e0e0e0"></path><path d="M436.58,360a3.41,3.41,0,0,0,.06-1V356c0-2.55,0-6.24.13-10.8.22-9.11,1-18.92,2.52-32.74,1.44-13,3.36-28.13,5.4-38,.43-2.24.87-4.25,1.28-6s.73-3.29,1.06-4.53l.69-2.85a5,5,0,0,0,.18-1,4.37,4.37,0,0,0-.36,1c-.23.74-.51,1.67-.85,2.81s-.77,2.74-1.21,4.5-1,3.76-1.43,6a334.4,334.4,0,0,0-5.67,35.23c-1.51,13.86-2.2,26.47-2.26,35.61-.05,4.57,0,8.26.16,10.82.07,1.19.13,2.16.18,2.93A4.61,4.61,0,0,0,436.58,360Z" style="fill:#e0e0e0"></path><path d="M436.65,335.63a20,20,0,0,0,0-3.07,82.78,82.78,0,0,0-.94-8.31,108.14,108.14,0,0,0-2.7-12.12,99.73,99.73,0,0,0-5.07-14.33A76.28,76.28,0,0,0,413,274.64a38.67,38.67,0,0,0-3.5-3.26c-.54-.45-1-.9-1.5-1.26l-1.35-.94a17.79,17.79,0,0,0-2.59-1.65c-.15.2,3.66,2.44,8.47,7.55a80.61,80.61,0,0,1,14.51,23.08,113.92,113.92,0,0,1,5.09,14.21c1.33,4.45,2.21,8.54,2.88,12s1,6.28,1.22,8.23A18,18,0,0,0,436.65,335.63Z" style="fill:#e0e0e0"></path><polygon points="413.13 378.55 415.57 411.95 458.48 411.95 460.91 378.55 413.13 378.55" style="fill:#e0e0e0"></polygon><rect x="408.98" y="365.39" width="57.05" height="13.17" style="fill:#e0e0e0"></rect><polygon points="408.98 410.68 408.98 414.32 411.66 414.32 465.09 414.32 465.09 410.68 408.98 410.68" style="fill:#ebebeb"></polygon><polygon points="414.29 420.75 411.66 414.32 463.05 414.32 459.98 420.75 414.29 420.75" style="fill:#e0e0e0"></polygon><path d="M460.12,389.47a1.34,1.34,0,0,1-.2.3l-.64.86-2.5,3.19-.11.15-.11-.15-6.14-8.5h.35l-6,8.57-.19.26-.21-.25-7.17-8.53h.41l-.39.5-6.41,8-.22.27-.19-.28-6.05-8.56h.35l-7.45,8.49-.13.15-.1-.17-2.34-3.91c-.24-.43-.44-.77-.59-1a1.55,1.55,0,0,1-.19-.37,1.3,1.3,0,0,1,.25.33c.18.26.39.6.66,1l2.45,3.85-.23,0,7.33-8.59.19-.22.16.24,6.11,8.52h-.41l6.39-8.05.4-.5.2-.25.21.25,7.15,8.54-.4,0,6.11-8.52.18-.25.17.25,6,8.59h-.22l2.6-3.12c.29-.32.51-.59.7-.8S460.11,389.46,460.12,389.47Z" style="fill:#f5f5f5"></path><path d="M461.51,378.33c0,.15-10.75.27-24,.27s-24-.12-24-.27,10.74-.27,24-.27S461.51,378.18,461.51,378.33Z" style="fill:#f5f5f5"></path><path d="M463.68,414.68c0,.15-11.69.27-26.1.27s-26.1-.12-26.1-.27,11.69-.26,26.1-.26S463.68,414.54,463.68,414.68Z" style="fill:#f5f5f5"></path><rect x="393.84" y="62.56" width="61.38" height="63.98" style="fill:#e0e0e0"></rect><rect x="389.68" y="62.56" width="61.38" height="63.98" style="fill:#fafafa"></rect><path d="M451.08,126.56H389.66v-64h61.42Zm-61.38,0H451V62.58H389.7Z" style="fill:#e0e0e0"></path><rect x="397.93" y="71.16" width="44.88" height="46.78" style="fill:#fafafa"></rect><path d="M397.93,118.25a7.19,7.19,0,0,1-1.11,1.29c-.71.76-1.72,1.78-2.85,2.89s-2.17,2.1-2.93,2.81a7.35,7.35,0,0,1-1.3,1.08,7.12,7.12,0,0,1,1.1-1.28c.72-.76,1.73-1.79,2.86-2.9s2.17-2.11,2.94-2.81A6.62,6.62,0,0,1,397.93,118.25Z" style="fill:#e0e0e0"></path><path d="M442.81,118.14a7.35,7.35,0,0,1,1.29,1.1c.75.72,1.78,1.73,2.89,2.86s2.1,2.16,2.8,2.93a6.47,6.47,0,0,1,1.08,1.3,8,8,0,0,1-1.28-1.11c-.75-.71-1.78-1.72-2.9-2.86s-2.1-2.17-2.81-2.93A7.57,7.57,0,0,1,442.81,118.14Z" style="fill:#e0e0e0"></path><path d="M442.68,71.28A8.13,8.13,0,0,1,443.79,70c.72-.76,1.73-1.78,2.85-2.89s2.17-2.11,2.94-2.81a7.12,7.12,0,0,1,1.29-1.08,7,7,0,0,1-1.1,1.28c-.71.76-1.72,1.78-2.86,2.9s-2.17,2.11-2.93,2.81A6.48,6.48,0,0,1,442.68,71.28Z" style="fill:#e0e0e0"></path><path d="M397.81,71.4a7.76,7.76,0,0,1-1.29-1.11c-.76-.71-1.78-1.72-2.89-2.85s-2.11-2.17-2.81-2.93a7.35,7.35,0,0,1-1.08-1.3,6.62,6.62,0,0,1,1.28,1.1c.76.72,1.79,1.73,2.9,2.86s2.11,2.17,2.81,2.94A6.62,6.62,0,0,1,397.81,71.4Z" style="fill:#e0e0e0"></path><path d="M442.68,117.94v-.23c0-.16,0-.37,0-.65,0-.59,0-1.43,0-2.53,0-2.21,0-5.44,0-9.53,0-8.19-.05-19.86-.09-33.84l.17.17-44.75,0h0l.2-.2c0,17.17,0,33.23,0,46.78l-.17-.17,32.41.09,9.1,0,2.41,0h0l-2.37,0-9.07,0-32.51.09h-.17v-.17c0-13.55,0-29.61,0-46.78V71h.2l44.75,0h.18v.17c0,14-.07,25.73-.09,34,0,4.08,0,7.29,0,9.5,0,1.08,0,1.91,0,2.49,0,.27,0,.48,0,.63A.67.67,0,0,1,442.68,117.94Z" style="fill:#e0e0e0"></path><rect x="412.88" y="87.06" width="14.97" height="14.97" style="fill:#ebebeb"></rect><polygon points="371.44 95.28 371.44 175.69 255.96 175.69 251.8 95.85 371.44 95.28" style="fill:#e0e0e0"></polygon><rect x="269.71" y="77.94" width="79.67" height="115.48" transform="translate(173.86 445.22) rotate(-90)" style="fill:#fff"></rect><path d="M367.83,176.06H251.26V95.3H367.83ZM252.35,175H366.73V96.4H252.35Z" style="fill:#e0e0e0"></path><rect x="264.31" y="105.75" width="90.46" height="59.87" style="fill:#fff"></rect><path d="M354.77,105.75h-.44l-1.29,0-5,0-18.64.07-65.12.13.26-.26c0,18.29,0,38.56,0,59.86h0l-.29-.29,90.46.06-.22.23c.05-18.22.09-33.16.11-43.56,0-5.2,0-9.27.06-12,0-1.38,0-2.43,0-3.17s0-1.09,0-1.09,0,.34,0,1,0,1.76,0,3.12c0,2.77,0,6.82.06,12,0,10.44.07,25.43.12,43.71v.22h-.23l-90.46.05H264v-.28h0c0-21.3,0-41.57,0-59.86v-.27h.26l65.29.13,18.58.07,4.92,0h1.26Z" style="fill:#e0e0e0"></path><path d="M251.8,95.62a10,10,0,0,1,2,1.29c1.18.85,2.79,2.06,4.53,3.45s3.26,2.71,4.34,3.69a9.52,9.52,0,0,1,1.65,1.7c-.11.12-2.88-2.17-6.35-4.94A63.87,63.87,0,0,1,251.8,95.62Z" style="fill:#e0e0e0"></path><path d="M367.28,95.85A55.45,55.45,0,0,1,361.2,101a56.83,56.83,0,0,1-6.43,4.73,54.84,54.84,0,0,1,6.08-5.18A54.51,54.51,0,0,1,367.28,95.85Z" style="fill:#e0e0e0"></path><path d="M367.19,175.53l-12.88-10.44" style="fill:#fff"></path><path d="M354.31,165.09a61.74,61.74,0,0,1,6.62,5,60,60,0,0,1,6.26,5.44,61.74,61.74,0,0,1-6.62-5A61.26,61.26,0,0,1,354.31,165.09Z" style="fill:#e0e0e0"></path><path d="M251.8,175.52a54.74,54.74,0,0,1,6-5.12,54.06,54.06,0,0,1,6.36-4.67,54.74,54.74,0,0,1-6,5.11A54.94,54.94,0,0,1,251.8,175.52Z" style="fill:#e0e0e0"></path><rect x="301.11" y="105.96" width="20.05" height="56.92" transform="translate(176.71 445.56) rotate(-90)" style="fill:#e0e0e0"></rect><rect x="149.99" y="52.84" width="8.21" height="40.83" transform="translate(-0.39 0.83) rotate(-0.31)" style="fill:#e0e0e0"></rect><rect x="78.86" y="52.98" width="21.25" height="22.54" transform="translate(-0.34 0.48) rotate(-0.31)" style="fill:#ebebeb"></rect><rect x="100.01" y="52.86" width="21.25" height="22.54" transform="translate(-0.34 0.59) rotate(-0.31)" style="fill:#f5f5f5"></rect><path d="M78.83,59.26c14.12.12,28.28,0,42.4-.2a.23.23,0,0,0,0-.45c-14.12-.08-28.28,0-42.4.26a.2.2,0,0,0,0,.39Z" style="fill:#e0e0e0"></path><rect x="65.6" y="75.19" width="38.61" height="18.37" transform="translate(-0.45 0.46) rotate(-0.31)" style="fill:#ebebeb"></rect><rect x="104.02" y="74.98" width="38.61" height="18.37" transform="translate(-0.45 0.66) rotate(-0.31)" style="fill:#f5f5f5"></rect><path d="M65.58,80.4c25.65.29,51.38,0,77-.38a.23.23,0,0,0,0-.45c-25.64-.14-51.38-.12-77,.44a.2.2,0,0,0,0,.39Z" style="fill:#e0e0e0"></path><rect x="51.14" y="93.66" width="149.57" height="6.58" style="fill:#e0e0e0"></rect><rect x="75.63" y="96.82" width="6.07" height="22.45" style="fill:#e0e0e0"></rect><rect x="166.27" y="96.82" width="6.07" height="22.45" style="fill:#e0e0e0"></rect><rect x="158.04" y="37.61" width="8.21" height="56.15" transform="translate(-0.35 0.87) rotate(-0.31)" style="fill:#ebebeb"></rect><rect x="166.29" y="48.08" width="12.75" height="45.51" transform="translate(-0.38 0.93) rotate(-0.31)" style="fill:#f5f5f5"></rect><path d="M178.83,56.81a46.57,46.57,0,0,1-6.37.22,46.78,46.78,0,0,1-6.38-.22,46.78,46.78,0,0,1,6.38-.22A46.57,46.57,0,0,1,178.83,56.81Z" style="fill:#e0e0e0"></path><path d="M178.83,54.9a46.57,46.57,0,0,1-6.37.22,46.78,46.78,0,0,1-6.38-.22,46.78,46.78,0,0,1,6.38-.22A46.57,46.57,0,0,1,178.83,54.9Z" style="fill:#e0e0e0"></path><path d="M178.83,86.7a46.57,46.57,0,0,1-6.37.22,46.78,46.78,0,0,1-6.38-.22,46.78,46.78,0,0,1,6.38-.22A46.57,46.57,0,0,1,178.83,86.7Z" style="fill:#e0e0e0"></path><path d="M178.83,84.79a46.57,46.57,0,0,1-6.37.22,46.78,46.78,0,0,1-6.38-.22,46.78,46.78,0,0,1,6.38-.22A46.57,46.57,0,0,1,178.83,84.79Z" style="fill:#e0e0e0"></path><path d="M172.66,80.62c-.12,0-.22-4.59-.22-10.25s.1-10.26.22-10.26.22,4.59.22,10.26S172.78,80.62,172.66,80.62Z" style="fill:#e0e0e0"></path><rect x="178.97" y="59.22" width="13.88" height="34.35" style="fill:#ebebeb"></rect><path d="M164.23,47.18a2.36,2.36,0,1,1-2.36-2.36A2.35,2.35,0,0,1,164.23,47.18Z" style="fill:#e0e0e0"></path><rect x="161.14" y="53.66" width="1.46" height="33.41" style="fill:#e0e0e0"></rect><polygon points="59.96 388.29 48.32 421.67 54.14 421.67 74.51 388.29 59.96 388.29" style="fill:#ebebeb"></polygon><polygon points="126.73 388.29 138.37 421.67 132.55 421.67 112.18 388.29 126.73 388.29" style="fill:#ebebeb"></polygon><rect x="61.42" y="296.14" width="92.99" height="92.99" style="fill:#ebebeb"></rect><rect x="32.28" y="296.14" width="92.99" height="92.99" style="fill:#f5f5f5"></rect><path d="M119,383.3H38.53V302.79H119Zm-79.5-1H118V303.79H39.53Z" style="fill:#e0e0e0"></path><path d="M39.49,328.27c26.24.79,52.79.52,79,0a.27.27,0,0,0,0-.53c-26.25-.5-52.8-.76-79,0a.24.24,0,0,0,0,.47Z" style="fill:#e0e0e0"></path><path d="M81,316.33a2.26,2.26,0,1,1-2.26-2.26A2.27,2.27,0,0,1,81,316.33Z" style="fill:#ebebeb"></path><path d="M48.44,352.66a2.27,2.27,0,1,1-2.26-2.27A2.26,2.26,0,0,1,48.44,352.66Z" style="fill:#ebebeb"></path><path d="M218.36,423.12a13.86,13.86,0,0,0-6.86-2.37c-43,.19-85.91,1.5-128.95,1.69L79.47,433.9A23.46,23.46,0,0,0,98,441c5.88-.45,12-3.11,17.42-.76,3.85,1.66,6.27,5.48,9.51,8.14,5.66,4.67,13.58,5.58,20.88,4.82s14.39-3,21.68-3.78c9.32-1.05,18.77.21,28.11-.69s19.18-4.55,24-12.59C222,432,222.44,425.69,218.36,423.12Z" style="fill:#e0e0e0"></path><path d="M263.59,420.75c5.75,7.06,10.8,13.07,18,18.68s19.87,8.74,29,8.64c8.72-.1,16.92-3.9,25.42-5.88,13.18-3.06,26.94-1.68,40.38-.12s27.1,3.31,40.43.95S443.3,433,449.4,420.88Z" style="fill:#e0e0e0"></path></g><g id="freepik--Floor--inject-18"><path d="M467.11,420.75c0,.14-100.59.26-224.65.26s-224.67-.12-224.67-.26,100.57-.26,224.67-.26S467.11,420.6,467.11,420.75Z" style="fill:#263238"></path></g><g id="freepik--character-2--inject-18"><path d="M434.47,373.45l16.21,22s27.77-9.09,31.17-5.33l-41.47,33-26.66-33.19Z" style="fill:#6F35A5"></path><path d="M436.77,403.05a2.17,2.17,0,0,0,.37,2.88,2.08,2.08,0,0,0,2.86-.34,2.29,2.29,0,0,0-.41-3,2.16,2.16,0,0,0-2.93.69" style="fill:#e0e0e0"></path><path d="M478.81,388.42c.08.12-9.05,7.08-20.39,15.55s-20.62,15.25-20.71,15.13,9-7.07,20.39-15.55S478.72,388.31,478.81,388.42Z" style="fill:#263238"></path><path d="M451.17,394.63c.15.21-.79,1.12-1.28,2.57s-.33,2.73-.58,2.8-.89-1.35-.27-3.1S451.06,394.41,451.17,394.63Z" style="fill:#263238"></path><path d="M457,393c.2.17-.41,1.21-.41,2.63s.51,2.48.3,2.63-1.25-.89-1.21-2.65S456.83,392.77,457,393Z" style="fill:#263238"></path><path d="M463.64,396.23c-.15.19-1.24-.6-1.61-2.14s.24-2.73.46-2.63.11,1.17.42,2.42S463.83,396.05,463.64,396.23Z" style="fill:#263238"></path><path d="M446.89,390c.06.25-1.1.71-2.19,1.71s-1.7,2.07-1.95,2,0-1.51,1.35-2.66S446.86,389.77,446.89,390Z" style="fill:#263238"></path><path d="M444,384.81c.07.09-.63.85-2.1,1.66a12.55,12.55,0,0,1-2.72,1.06,12.36,12.36,0,0,1-1.71.32,3.12,3.12,0,0,1-1,0,1.13,1.13,0,0,1-.95-1,1.4,1.4,0,0,1,.52-1.18,3.5,3.5,0,0,1,.87-.51,9.35,9.35,0,0,1,1.65-.59,9.51,9.51,0,0,1,2.94-.27A4.54,4.54,0,0,1,444,385c0,.14-1-.12-2.59-.08a10.71,10.71,0,0,0-2.71.44,9.53,9.53,0,0,0-1.49.58c-.54.23-.91.53-.87.82,0,.11,0,.14.23.2a3.18,3.18,0,0,0,.75,0,15.51,15.51,0,0,0,1.61-.25,15.89,15.89,0,0,0,2.64-.83A19.65,19.65,0,0,1,444,384.81Z" style="fill:#263238"></path><path d="M443.94,385.32c-.05.09-1-.32-2.16-1.59a8.54,8.54,0,0,1-1.53-2.51,8.73,8.73,0,0,1-.48-1.69,2.22,2.22,0,0,1,.5-2.12,1.21,1.21,0,0,1,1.33-.11,3.47,3.47,0,0,1,.83.59,6.37,6.37,0,0,1,1.12,1.41,6.12,6.12,0,0,1,.82,2.87c.05,1.73-.61,2.65-.68,2.6a21,21,0,0,0,0-2.55,6.14,6.14,0,0,0-.9-2.49,5.5,5.5,0,0,0-1-1.18c-.41-.39-.87-.61-1-.44a1.54,1.54,0,0,0-.19,1.27,9.24,9.24,0,0,0,.38,1.55,10,10,0,0,0,1.25,2.41C443.2,384.61,444,385.2,443.94,385.32Z" style="fill:#263238"></path><path d="M397.62,403.62s9.45,3.27,18.27,3c8.27-.24,26.3,3.2,25,13.91-1.45,11.94-25.34,6.07-34.58,3s-18.44-5.88-18.44-5.88Z" style="fill:#6F35A5"></path><path d="M417.56,421.53a20.1,20.1,0,0,0,1.67-4,20.63,20.63,0,0,0,1.23-4.17,40.34,40.34,0,0,0-2.9,8.18Z" style="fill:#263238"></path><path d="M414.23,421.29a20.74,20.74,0,0,0,1.33-4.16,21,21,0,0,0,.88-4.28,41,41,0,0,0-2.21,8.44Z" style="fill:#263238"></path><path d="M411.18,419.66a15.53,15.53,0,0,0,1.13-3.64,16.07,16.07,0,0,0,.68-3.75,15.53,15.53,0,0,0-1.13,3.64A16.07,16.07,0,0,0,411.18,419.66Z" style="fill:#263238"></path><path d="M406.31,417.81a8.66,8.66,0,0,0,1.64-3.05,8.79,8.79,0,0,0,.76-3.37,25.08,25.08,0,0,0-1.2,3.21A23.58,23.58,0,0,0,406.31,417.81Z" style="fill:#263238"></path><path d="M405.76,413.31a4.55,4.55,0,0,0-1.26-.23,10.72,10.72,0,0,0-3.48.25,4,4,0,0,0-1.12.44,1.65,1.65,0,0,0-.8,1.11,1.81,1.81,0,0,0,2,1.86,4.63,4.63,0,0,0,2.75-1.5,8,8,0,0,0,1.79-2.81,7.64,7.64,0,0,0-.33-6.32,1.33,1.33,0,0,0-.66-.52,1,1,0,0,0-.84.16,2.24,2.24,0,0,0-.77,1.23,6.88,6.88,0,0,0-.16,2.44,6.75,6.75,0,0,0,1.27,3.26,5,5,0,0,0,.63.71q.24.23.27.21s-.31-.35-.75-1a7,7,0,0,1-1.09-3.19,6.45,6.45,0,0,1,.21-2.31,1.8,1.8,0,0,1,.62-1,.63.63,0,0,1,.92.27,7.61,7.61,0,0,1-1.44,8.55,4.23,4.23,0,0,1-2.45,1.4,1.41,1.41,0,0,1-1.59-1.38,1.19,1.19,0,0,1,.6-.85,3.7,3.7,0,0,1,1-.43,12,12,0,0,1,3.39-.39C405.31,413.28,405.76,413.35,405.76,413.31Z" style="fill:#263238"></path><path d="M389,416.24s.07,0,.23.1l.71.27,2.73,1c2.39.84,5.84,2,10.15,3.4s9.47,3,15.28,4.49a41.91,41.91,0,0,0,9.3,1.59,20.31,20.31,0,0,0,5-.34,13.68,13.68,0,0,0,2.48-.77,7.23,7.23,0,0,0,2.27-1.41l0,0a5.17,5.17,0,0,0,1-.91,6.36,6.36,0,0,0,1.12-5.16,8.39,8.39,0,0,0-2.62-4.44,15.91,15.91,0,0,0-4.16-2.73c-.75-.31-1.47-.67-2.22-.93s-1.48-.54-2.23-.74c-6-1.69-11.55-1.87-16.15-2.42-2.31-.23-4.38-.55-6.19-.88a41.79,41.79,0,0,1-4.58-1.14l-1.63-.56-1.16-.49-.72-.29-.25-.09s.07.06.23.13l.7.34,1.15.53,1.63.6a39.39,39.39,0,0,0,4.58,1.23c1.81.36,3.89.69,6.21.95,4.6.59,10.18.81,16.06,2.5.74.2,1.46.49,2.2.74s1.44.62,2.17.93a15.41,15.41,0,0,1,4,2.65,8,8,0,0,1,2.48,4.19,5.93,5.93,0,0,1-1,4.79,4.47,4.47,0,0,1-.87.82h0l0,0a6.63,6.63,0,0,1-2.1,1.3,13.48,13.48,0,0,1-2.39.74,19.86,19.86,0,0,1-4.91.35,43,43,0,0,1-9.22-1.55c-5.8-1.49-11-3.06-15.28-4.39s-7.79-2.48-10.19-3.26l-2.76-.89-.72-.23Z" style="fill:#263238"></path><path d="M423.82,426.25a18.54,18.54,0,0,0,.53-2.45c.29-1.52.73-3.6,1.32-5.88s1.22-4.32,1.7-5.79a17.48,17.48,0,0,0,.72-2.41,11.21,11.21,0,0,0-1,2.3,54.52,54.52,0,0,0-1.84,5.78,53.91,53.91,0,0,0-1.19,5.95A11.27,11.27,0,0,0,423.82,426.25Z" style="fill:#263238"></path><path d="M438.3,425.26s.32-.3.81-.92a9.86,9.86,0,0,0,1.55-2.9,6,6,0,0,0,.33-2.2,8.88,8.88,0,0,0-.6-2.51,11.94,11.94,0,0,0-3.54-4.72,16.87,16.87,0,0,0-5.25-2.86,34,34,0,0,0-4.78-1.22c-1.39-.25-2.53-.42-3.31-.55a6.2,6.2,0,0,1-1.21-.24,5.35,5.35,0,0,1,1.24,0c.79.07,1.93.18,3.34.39a29.78,29.78,0,0,1,4.88,1.13,16.61,16.61,0,0,1,5.42,2.91,12,12,0,0,1,3.66,4.95,9,9,0,0,1,.58,2.66,5.92,5.92,0,0,1-.42,2.34,8.83,8.83,0,0,1-1.74,2.91A2.93,2.93,0,0,1,438.3,425.26Z" style="fill:#263238"></path><path d="M399.93,402.51s-25.07-38.94-31.42-40.89-17.64-3.47-27.17,0-37,15.11-37,15.11l-17.32,5.76a44,44,0,0,0-29.32,33.57h0s21.86,18,38.4,14.81,61.57-23.43,61.57-23.43h0c4.8,2.86,12.65,4.11,16.25,5.65,10.13,4.35,15.54,5.51,15.54,5.51h0Z" style="fill:#263238"></path><path d="M370.5,401.61a25.37,25.37,0,0,1-3,1.52l-7.24,3.54c-2.84,1.39-5.42,2.6-7.33,3.42a19.46,19.46,0,0,1-3.13,1.18,24.61,24.61,0,0,1,3-1.52l7.25-3.54c2.83-1.39,5.42-2.6,7.32-3.42A18.94,18.94,0,0,1,370.5,401.61Z" style="fill:#455a64"></path><path d="M377.8,384.64c-.08,0-.48-1.35-1.29-3.5a50.26,50.26,0,0,0-9.15-15.32c-1.51-1.74-2.54-2.73-2.48-2.8a3.74,3.74,0,0,1,.79.63c.49.42,1.16,1.08,2,1.92A42.56,42.56,0,0,1,376.86,381c.36,1.1.62,2,.76,2.63A3.44,3.44,0,0,1,377.8,384.64Z" style="fill:#455a64"></path><path d="M371.21,390a6.83,6.83,0,0,1-5.37,5,24.57,24.57,0,0,0,3.06-2.11A23.31,23.31,0,0,0,371.21,390Z" style="fill:#455a64"></path><path d="M445.6,381.24s-53.32-78.94-57.4-81.17c-1.87-1-4.92-1.31-7.68-1.33a16.11,16.11,0,0,0-10.11,3.52l-47.06,44.8-13.82,30.1,29.3,15.78,42.4-40.43,40.17,49.74Z" style="fill:#263238"></path><path d="M375.15,367.69a3.63,3.63,0,0,1-.5-.58c-.31-.39-.78-.95-1.44-1.63a18.28,18.28,0,0,0-6.57-4.41,13.48,13.48,0,0,0-5.36-.95,24.4,24.4,0,0,0-6.2,1.12c-2.14.64-4.35,1.48-6.65,2.29l-7.13,2.55-25.05,8.82-7.61,2.62-2.08.69a3.61,3.61,0,0,1-.74.2,6,6,0,0,1,.7-.3l2.05-.78,7.56-2.78,25-9,7.13-2.53c2.31-.8,4.52-1.63,6.69-2.27a24.75,24.75,0,0,1,6.33-1.09,13.87,13.87,0,0,1,5.5,1,18,18,0,0,1,6.59,4.62,16.73,16.73,0,0,1,1.37,1.71A4.75,4.75,0,0,1,375.15,367.69Z" style="fill:#455a64"></path><path d="M355.65,334l61.8-19.64a7.79,7.79,0,0,0,5.22-9.13l-1.74-7.72-52.42,2.66-44.34-31.4A22.08,22.08,0,0,0,315,265l-8.79-1.43-28-6.35-29.08,28.56a13.55,13.55,0,0,0-4.05,9.15l-1.39,35.63a108.77,108.77,0,0,0,.6,16.14l5.76,50.7s1.61,26.09,12.91,22.06c0,0,12.7-24.36,27.23-33.24s34.9-16,34.9-16l-3.17-48.38.42-10.28Z" style="fill:#6F35A5"></path><g style="opacity:0.4"><path d="M355.58,334l61.79-19.65a7.78,7.78,0,0,0,5.23-9.13l-1.74-7.71-52.42,2.65L324.1,268.8a22.08,22.08,0,0,0-9.2-3.77l-8.79-1.44-28-6.35L249,285.81a13.55,13.55,0,0,0-4,9.15l-1.39,35.62a108.71,108.71,0,0,0,.6,16.14L250,397.43s1.61,26.09,12.91,22.05c0,0,12.32-23.76,26.2-32.57,13.39-8.5,35.93-16.65,35.93-16.65l-3.09-48.66.34-10Z"></path></g><path d="M306.38,301.91A17.7,17.7,0,0,1,308.1,298a17.52,17.52,0,0,1,2.18-3.65,34.85,34.85,0,0,1-3.9,7.54Z" style="fill:#fafafa"></path><path d="M332,288.07a29.44,29.44,0,0,1-4.67-2.92A28.81,28.81,0,0,1,323,281.8a57.84,57.84,0,0,1,9,6.27Z" style="fill:#fafafa"></path><path d="M341,304.09a17.4,17.4,0,0,1-4.24.62,17.89,17.89,0,0,1-4.28.1,17.52,17.52,0,0,1,4.24-.62A17.87,17.87,0,0,1,341,304.09Z" style="fill:#fafafa"></path><path d="M351.91,318.25a26.39,26.39,0,0,1-.74-5.09,25.78,25.78,0,0,1-.23-5.13,24.86,24.86,0,0,1,.75,5.08A24.54,24.54,0,0,1,351.91,318.25Z" style="fill:#fafafa"></path><path d="M372.86,308.52A25.9,25.9,0,0,1,369,312a26.51,26.51,0,0,1-4.18,3.08,51.81,51.81,0,0,1,8-6.57Z" style="fill:#fafafa"></path><path d="M412.8,313.81a44.53,44.53,0,0,1-7.21-6.41,23,23,0,0,1,3.78,3A22.15,22.15,0,0,1,412.8,313.81Z" style="fill:#fafafa"></path><path d="M291.73,289.28a25.86,25.86,0,0,1,4-3.37,25.35,25.35,0,0,1,4.3-3,27.22,27.22,0,0,1-4,3.36A26.76,26.76,0,0,1,291.73,289.28Z" style="fill:#fafafa"></path><path d="M269.21,298.31a26.57,26.57,0,0,1-5.35-5.1,13.39,13.39,0,0,1,2.86,2.36A13.24,13.24,0,0,1,269.21,298.31Z" style="fill:#fafafa"></path><path d="M272.14,278.11a33.37,33.37,0,0,1-5.53,1.82,32.86,32.86,0,0,1-5.67,1.31,32.07,32.07,0,0,1,5.53-1.81A32.18,32.18,0,0,1,272.14,278.11Z" style="fill:#fafafa"></path><path d="M284.34,308.76a37.5,37.5,0,0,1,1.22-8.76,18.92,18.92,0,0,1-.35,4.42A19.2,19.2,0,0,1,284.34,308.76Z" style="fill:#fafafa"></path><path d="M320.22,271.5a24.65,24.65,0,0,1-5-.32,24,24,0,0,1-5-.85,25.17,25.17,0,0,1,5,.33A24.83,24.83,0,0,1,320.22,271.5Z" style="fill:#fafafa"></path><path d="M311.35,326.29a48.15,48.15,0,0,1,3.88-9.25,48.87,48.87,0,0,1-3.88,9.25Z" style="fill:#fafafa"></path><path d="M297.11,333.13c-.14.07-1.41-2.28-3.19-5s-3.37-4.91-3.26-5a21.68,21.68,0,0,1,3.7,4.72A22,22,0,0,1,297.11,333.13Z" style="fill:#fafafa"></path><path d="M261.45,324.08a12.82,12.82,0,0,1-4.21-3.09,13.12,13.12,0,0,1-3.09-4.21c.13-.08,1.44,1.84,3.46,3.85S261.53,324,261.45,324.08Z" style="fill:#fafafa"></path><path d="M258.51,341.32a30.59,30.59,0,0,1-7.29,3.42,31.08,31.08,0,0,1,7.29-3.42Z" style="fill:#fafafa"></path><path d="M272.09,345.46a53.85,53.85,0,0,1,4.2-9.7,26.2,26.2,0,0,1-1.86,5A27.22,27.22,0,0,1,272.09,345.46Z" style="fill:#fafafa"></path><path d="M268.26,367.14c-.13.07-1.45-1.94-3.26-4.28s-3.41-4.14-3.3-4.24a18.34,18.34,0,0,1,3.71,3.92A17.9,17.9,0,0,1,268.26,367.14Z" style="fill:#fafafa"></path><path d="M291,356.93a49.85,49.85,0,0,1,.73,5.32,47.18,47.18,0,0,1,.68,5.33,19.89,19.89,0,0,1-1.19-5.26A19.3,19.3,0,0,1,291,356.93Z" style="fill:#fafafa"></path><path d="M284.71,378.82a46.4,46.4,0,0,1-3,4.47,51.84,51.84,0,0,1-3,4.43,19.86,19.86,0,0,1,2.6-4.73A19.39,19.39,0,0,1,284.71,378.82Z" style="fill:#fafafa"></path><path d="M307,360.3a37.48,37.48,0,0,1-2.61-5.6,36.65,36.65,0,0,1-2.13-5.79,37.64,37.64,0,0,1,2.61,5.59A35.76,35.76,0,0,1,307,360.3Z" style="fill:#fafafa"></path><path d="M321.1,360.36a52.69,52.69,0,0,1-5.82,8.77A26.31,26.31,0,0,1,318,364.6,26.94,26.94,0,0,1,321.1,360.36Z" style="fill:#fafafa"></path><path d="M319.83,341.1a13.12,13.12,0,0,1-5.11-1.22,6.83,6.83,0,0,1,2.62.36A6.64,6.64,0,0,1,319.83,341.1Z" style="fill:#fafafa"></path><path d="M263.59,391.76a26.84,26.84,0,0,1-3.95-3.47,26.05,26.05,0,0,1-3.59-3.84,26.84,26.84,0,0,1,3.95,3.47A27.25,27.25,0,0,1,263.59,391.76Z" style="fill:#fafafa"></path><path d="M262.42,403.14a38.91,38.91,0,0,1-6.57,6.08A20,20,0,0,1,259,406,19,19,0,0,1,262.42,403.14Z" style="fill:#fafafa"></path><path d="M337.53,202.57c-4.12-2.51-9.8.3-14.16-1.77-2.65-1.25-4.18-4-6.3-6A14.74,14.74,0,0,0,304.46,191c-4.27,1-7.24,2.38-8.83,6.46-2.94-2.85-9.79,0-12.82,3.7s-3.63,8.14-3.67,12.9a63,63,0,0,0,4.61,24c.27.67.78,1.47,1.49,1.33.5-.09.78-.6,1-1.07,1.71-3.93,2.25-8.24,3-12.47s1.61-8.54,3.92-12.15,6.32-6.41,10.6-6.18c3.16.17,6,1.95,8.32,4.14s4.13,4.79,6.24,7.15a17.42,17.42,0,0,0,7.64,5.44c3,.92,6.68.31,8.7-2.13s1.55-6.76-1.29-8.16a6.22,6.22,0,0,0,4.22-11.46Z" style="fill:#263238"></path><path d="M305.4,270.93l1.83-9s12.27.75,15-11.08c1.32-5.71,3.08-17.69,4.55-28.56a22.62,22.62,0,0,0-17.6-25.13l-1.14-.25c-12.5-2-21.15,7.54-22.78,20.09L276,265.09a15,15,0,0,0,11.79,17.55h0A15,15,0,0,0,305.4,270.93Z" style="fill:#ffbe9d"></path><path d="M307.25,261.94a28.24,28.24,0,0,1-14.5-7.77s1.79,9.34,13.86,10.85Z" style="fill:#eb996e"></path><path d="M321.71,230.46a1.73,1.73,0,0,1-2,1.35,1.66,1.66,0,0,1-1.42-1.91,1.73,1.73,0,0,1,2-1.35A1.65,1.65,0,0,1,321.71,230.46Z" style="fill:#263238"></path><path d="M323,227.54c-.26.18-1.34-1-3.16-1.44s-3.36.22-3.51,0,.23-.47.9-.77a4.69,4.69,0,0,1,2.87-.24,4.57,4.57,0,0,1,2.45,1.42C323,227,323.09,227.47,323,227.54Z" style="fill:#263238"></path><path d="M303.77,226.86a1.74,1.74,0,0,1-2,1.36,1.66,1.66,0,0,1-1.41-1.91,1.74,1.74,0,0,1,2-1.36A1.67,1.67,0,0,1,303.77,226.86Z" style="fill:#263238"></path><path d="M305,224c-.26.17-1.34-1.06-3.16-1.45s-3.36.23-3.51,0,.22-.47.9-.77a4.76,4.76,0,0,1,2.87-.24,4.51,4.51,0,0,1,2.45,1.43C305,223.46,305.1,223.9,305,224Z" style="fill:#263238"></path><path d="M308.64,238.94a11.81,11.81,0,0,1,3.08.11c.47,0,.94,0,1.08-.25a2.33,2.33,0,0,0,0-1.44c-.19-1.23-.39-2.51-.6-3.85-.81-5.46-1.29-9.91-1.07-9.94s1.06,4.37,1.87,9.83c.19,1.35.37,2.63.54,3.86a2.74,2.74,0,0,1-.16,1.87,1.22,1.22,0,0,1-.91.52,4,4,0,0,1-.82-.06A12.9,12.9,0,0,1,308.64,238.94Z" style="fill:#263238"></path><path d="M303,239c.3,0-.12,2,1.26,3.8s3.54,2,3.5,2.29c0,.13-.56.28-1.45.11a5.05,5.05,0,0,1-2.94-1.8,4.37,4.37,0,0,1-.93-3.16C302.54,239.43,302.87,239,303,239Z" style="fill:#263238"></path><path d="M307.19,214.68c-.28.45-2.05-.18-4.25-.39s-4.05,0-4.23-.51c-.08-.24.32-.64,1.12-1a7.18,7.18,0,0,1,3.31-.4,7.06,7.06,0,0,1,3.16,1.09C307,214,307.32,214.46,307.19,214.68Z" style="fill:#263238"></path><path d="M323.45,222.12c-.41.35-1.58-.36-3.08-.71s-2.85-.33-3.05-.82c-.08-.24.21-.61.85-.88a4.58,4.58,0,0,1,4.94,1.24C323.55,221.49,323.63,222,323.45,222.12Z" style="fill:#263238"></path><path d="M284.32,226c-.19-.13-7.63-4.19-9.14,4s7,8,7.06,7.76S284.32,226,284.32,226Z" style="fill:#ffbe9d"></path><path d="M280.32,234.19s-.16.07-.42.14a1.47,1.47,0,0,1-1.07-.18c-.8-.47-1.28-2-1.05-3.46a4.9,4.9,0,0,1,.78-2,1.65,1.65,0,0,1,1.27-.89.74.74,0,0,1,.77.54c.07.25,0,.4,0,.43s.21-.11.2-.46a.9.9,0,0,0-.22-.57,1.11,1.11,0,0,0-.75-.35,2,2,0,0,0-1.72,1,4.83,4.83,0,0,0-.92,2.18c-.25,1.66.31,3.35,1.43,3.91a1.56,1.56,0,0,0,1.34,0C280.27,234.38,280.34,234.21,280.32,234.19Z" style="fill:#eb996e"></path><path d="M329.83,220.36a17.54,17.54,0,0,1-14.47-6.74c-2.35-3.08-3.81-7.08-7.18-9a9.85,9.85,0,0,0-7.59-.6,19,19,0,0,0-6.7,3.91c1,6.53-2,12.92-5,18.84a3.28,3.28,0,0,1-1.35,1.66c-1.12.53-2.43-.36-3.07-1.42a10.12,10.12,0,0,1-1.05-5.76,34.11,34.11,0,0,1,3-13.14,23.24,23.24,0,0,1,8.74-10.1,22,22,0,0,1,16.33-2.41,27.08,27.08,0,0,1,14.13,8.82,16,16,0,0,1,3.73,6.82" style="fill:#263238"></path><path d="M340.31,206.17a1.79,1.79,0,0,1-.23.68,3.31,3.31,0,0,1-1.49,1.43,5.32,5.32,0,0,1-3.26.35,9.43,9.43,0,0,1-2-.56,4.55,4.55,0,0,1-1.86-1.41,2.94,2.94,0,0,1-.51-2.51,2.58,2.58,0,0,1,2.17-1.7,3.21,3.21,0,0,1,1.5.14,2.67,2.67,0,0,1,1.26.92,3.8,3.8,0,0,1,.59,3.1,4.4,4.4,0,0,1-1.93,2.7,6.67,6.67,0,0,1-3.3,1,10.89,10.89,0,0,1-6.77-2.26,31.77,31.77,0,0,1-5.21-4.92,38.8,38.8,0,0,0-4.68-4.66,12.28,12.28,0,0,0-5.27-2.57,11.77,11.77,0,0,0-5.12.19,14.68,14.68,0,0,0-6.45,3.71,19.81,19.81,0,0,0-1.41,1.5,5.37,5.37,0,0,1-.47.54s0-.05.09-.15.17-.25.32-.44a13.88,13.88,0,0,1,1.36-1.56,14.47,14.47,0,0,1,6.48-3.88,11.92,11.92,0,0,1,5.26-.24,12.64,12.64,0,0,1,5.45,2.6,38.78,38.78,0,0,1,4.74,4.69,31.3,31.3,0,0,0,5.15,4.85,10.51,10.51,0,0,0,6.51,2.2,6.24,6.24,0,0,0,3.1-1,4,4,0,0,0,1.78-2.45,3.41,3.41,0,0,0-.51-2.8,2.5,2.5,0,0,0-2.42-.94,2.24,2.24,0,0,0-1.92,1.45,2.64,2.64,0,0,0,.45,2.25,4.15,4.15,0,0,0,1.73,1.34,8.6,8.6,0,0,0,1.91.57,5.09,5.09,0,0,0,3.15-.27,3.36,3.36,0,0,0,1.49-1.32A5,5,0,0,0,340.31,206.17Z" style="fill:#455a64"></path><path d="M279.85,207.87a13.52,13.52,0,0,0,2.33,1.18,7.06,7.06,0,0,0,2.78.31,11.7,11.7,0,0,0,3.36-.8,9.71,9.71,0,0,0,4.67-4,19.11,19.11,0,0,0,1.08-2.39,1.91,1.91,0,0,1-.11.71,8,8,0,0,1-.72,1.82,9.48,9.48,0,0,1-4.77,4.29,11.76,11.76,0,0,1-3.48.79,7.14,7.14,0,0,1-2.9-.41,6.63,6.63,0,0,1-1.72-1C280,208.08,279.83,207.89,279.85,207.87Z" style="fill:#455a64"></path><path d="M278.92,213.82c0-.08.93.34,2.48.59a11.38,11.38,0,0,0,10.82-4.19c1-1.23,1.37-2.14,1.43-2.11s0,.25-.23.66a9.69,9.69,0,0,1-1,1.62,11,11,0,0,1-11.1,4.31,9.79,9.79,0,0,1-1.82-.56A2,2,0,0,1,278.92,213.82Z" style="fill:#455a64"></path><path d="M297.23,230.4a.23.23,0,0,1,0-.45.23.23,0,0,1,.2.23A.21.21,0,0,1,297.23,230.4Z" style="fill:#eb996e"></path><path d="M300.88,230.37a.24.24,0,0,1-.2-.26.24.24,0,0,1,.21-.25.23.23,0,0,1,.2.26C301.09,230.26,301,230.38,300.88,230.37Z" style="fill:#eb996e"></path><path d="M303.24,230.83c-.11,0-.19-.17-.17-.36s.12-.32.23-.31.19.17.18.35S303.36,230.84,303.24,230.83Z" style="fill:#eb996e"></path><path d="M298.47,233c-.12,0-.19-.1-.18-.17s.12-.11.23-.08.19.1.17.17S298.58,233,298.47,233Z" style="fill:#eb996e"></path><path d="M301.82,232.92a.24.24,0,1,1,.23-.21A.22.22,0,0,1,301.82,232.92Z" style="fill:#eb996e"></path><path d="M318.87,234.56a.22.22,0,0,1-.2-.24.21.21,0,0,1,.21-.22.2.2,0,0,1,.2.23A.22.22,0,0,1,318.87,234.56Z" style="fill:#eb996e"></path><path d="M321.29,234.86a.23.23,0,0,1-.17-.28c0-.14.12-.25.23-.23a.23.23,0,0,1,.18.28A.24.24,0,0,1,321.29,234.86Z" style="fill:#eb996e"></path><path d="M316.76,234.16a.19.19,0,0,1-.2-.18.2.2,0,0,1,.21-.18.18.18,0,0,1,.2.18A.19.19,0,0,1,316.76,234.16Z" style="fill:#eb996e"></path><path d="M318,236.92a.22.22,0,0,1-.25-.19.22.22,0,0,1,.15-.28.24.24,0,0,1,.25.19A.22.22,0,0,1,318,236.92Z" style="fill:#eb996e"></path><path d="M320.12,237a.2.2,0,0,1-.1-.25.21.21,0,0,1,.36.19A.19.19,0,0,1,320.12,237Z" style="fill:#eb996e"></path><path d="M425.8,276.12l-2.47-.8a2.45,2.45,0,0,0-1.34-.07c-2.82.64-13.7,3.11-17.84,4.08a3.67,3.67,0,0,0-2.48,2L384.9,316.28a2.32,2.32,0,0,0,.48,2.67h0Z" style="fill:#263238"></path><path d="M425.8,276.12l-18.41,37.15-22,5.89,18.75-36.68a3.16,3.16,0,0,1,2.06-1.63Z" style="fill:#455a64"></path><path d="M427.43,292.17c-.43-.59,3.79-20.19,2.57-20.73s-1.78-.33-2.58.85S421.77,285,421.77,285l-2.12-.79a3.78,3.78,0,0,0-1.79-.2c-3.2.46-13.67,2-13.61,2.44,0,0-.2,4,3.46,3.24l-5.18,1.65s-1.76,3,1.38,3.48h3.6l-5.62,1.09s.55,3.1,2.59,3.31a51.92,51.92,0,0,0,7.52-.57l1.25,2.76-5.86,11.84,9.88-3.34s5.28-2.71,4.87-5.43c0,0,3.8-2.16,3.8-5.15C425.94,299.35,429.73,295.29,427.43,292.17Z" style="fill:#ffbe9d"></path><path d="M425.13,291.56c-.05.06-.85-.62-2.3-1.46a18.62,18.62,0,0,0-2.64-1.29,8.92,8.92,0,0,0-3.45-.69,30,30,0,0,0-6.48.9,23.62,23.62,0,0,1-2.67.62,10,10,0,0,1,2.58-1,24.27,24.27,0,0,1,6.57-1.07,8.91,8.91,0,0,1,3.63.76,16.62,16.62,0,0,1,2.66,1.42A7.59,7.59,0,0,1,425.13,291.56Z" style="fill:#eb996e"></path><path d="M421.55,296.5c-.08.05-.46-.76-1.47-1.72a5.18,5.18,0,0,0-2-1.21,8.58,8.58,0,0,0-2.93-.08c-2.1.3-4,.82-5.41,1.07a10.06,10.06,0,0,1-2.24.34,8.17,8.17,0,0,1,2.15-.7,47.91,47.91,0,0,1,5.44-1.22,8.15,8.15,0,0,1,3.13.13,5.17,5.17,0,0,1,2.15,1.41A4.34,4.34,0,0,1,421.55,296.5Z" style="fill:#eb996e"></path><path d="M427.13,291.88a8,8,0,0,1-.77-1.67,10.41,10.41,0,0,0-2.32-3.64,9.7,9.7,0,0,0-3.83-2,7.94,7.94,0,0,1-1.74-.6,5.58,5.58,0,0,1,1.84.24,8.87,8.87,0,0,1,4.09,1.94,9.14,9.14,0,0,1,2.3,3.89A5.34,5.34,0,0,1,427.13,291.88Z" style="fill:#eb996e"></path><path d="M367.32,308l16.1-16.85,13.28-4.74,4.12,1.57,9.64-1.86a1.74,1.74,0,0,1,1.81,2.67.9.9,0,0,1-.31.28c-.93.46-13.52,4.51-13.52,4.51l16.18-1.27s1.72.83.33,2.1-6.85,2.78-10.4,3.47a41.53,41.53,0,0,0-6.27,2.53s13.45,2.3,13.33,3.34.12,1.5-1,1.61-12.48-.34-14.21.12-7.74,8.55-11,10.28a7.32,7.32,0,0,1-6.47,0l-3,3.24-7.39-10.28" style="fill:#ffbe9d"></path><path d="M368.51,308.72a1,1,0,0,1,.14.16l.38.5,1.46,2,5.52,7.57h-.2c.91-1,1.92-2.09,3-3.25a.15.15,0,0,1,.17,0h0a7.51,7.51,0,0,0,4.65.59,6.45,6.45,0,0,0,2.34-1,20.16,20.16,0,0,0,2.08-1.79c1.35-1.32,2.68-2.78,4.08-4.3.7-.75,1.41-1.52,2.17-2.28a12.92,12.92,0,0,1,1.23-1.09l.35-.25.42-.2a6.58,6.58,0,0,1,.86-.12c2.22-.15,4.5-.1,6.85-.08l3.56.05,1.81,0a4.89,4.89,0,0,0,1.71-.14c.18-.08.21-.29.23-.6l0-.47c0-.06,0-.21,0-.19s0,0,0,0a6.76,6.76,0,0,0-1.66-.65c-1.2-.35-2.44-.64-3.7-.92-2.51-.54-5.09-1-7.72-1.49a.24.24,0,0,1-.21-.29.24.24,0,0,1,.14-.18c1.37-.67,2.77-1.31,4.22-1.88a13.06,13.06,0,0,1,2.27-.72c.77-.15,1.53-.32,2.3-.51,1.53-.37,3.06-.79,4.57-1.31a19.3,19.3,0,0,0,2.21-.9,5,5,0,0,0,1-.6,1.17,1.17,0,0,0,.51-.83c0-.35-.35-.7-.72-.9l.14,0-16.18,1.26a.26.26,0,0,1-.28-.23.27.27,0,0,1,.18-.27l7.26-2.35,3.51-1.16,1.73-.59c.28-.1.57-.2.83-.31a.61.61,0,0,0,.3-.18,1.44,1.44,0,0,0,.22-.31,1.4,1.4,0,0,0-.14-1.43,1.58,1.58,0,0,0-1.31-.68c-1.08.17-2.26.43-3.36.63l-6.54,1.25a.25.25,0,0,1-.12,0l-4.11-1.58h.15l-13.31,4.71.07-.05-11.87,12.32-3.21,3.29-.84.85a2,2,0,0,1-.3.27l.27-.31.8-.87,3.14-3.36L383.29,291a.1.1,0,0,1,.07,0l13.27-4.78a.26.26,0,0,1,.15,0l4.12,1.57h-.12l6.53-1.28c1.13-.21,2.21-.46,3.44-.64a2,2,0,0,1,1.71.87,1.88,1.88,0,0,1,.18,1.93,2.08,2.08,0,0,1-.3.43,1,1,0,0,1-.46.28c-.29.13-.57.22-.86.33l-1.73.59-3.52,1.18-7.25,2.36-.1-.5,16.18-1.27h0a.19.19,0,0,1,.13,0,2.28,2.28,0,0,1,.67.52,1.34,1.34,0,0,1,.35.86,1.72,1.72,0,0,1-.7,1.21,5.41,5.41,0,0,1-1.08.68,20,20,0,0,1-2.27.92c-1.53.53-3.08.95-4.62,1.33-.77.18-1.54.36-2.32.51a12.52,12.52,0,0,0-2.18.69c-1.43.56-2.83,1.2-4.19,1.85l-.07-.48c2.64.46,5.23,1,7.75,1.51,1.26.28,2.51.57,3.73.93a7,7,0,0,1,1.82.74c.08.09.18.11.22.35a1.1,1.1,0,0,1,0,.28l0,.46a2.06,2.06,0,0,1-.08.52.83.83,0,0,1-.41.47,5.09,5.09,0,0,1-1.93.2l-1.82,0-3.56-.06c-2.34,0-4.63-.09-6.81.06a4.89,4.89,0,0,0-.78.1l-.31.14-.32.23a12.85,12.85,0,0,0-1.18,1.05c-.76.74-1.47,1.51-2.17,2.26-1.4,1.51-2.75,3-4.12,4.29a19.16,19.16,0,0,1-2.14,1.81,6.39,6.39,0,0,1-2.47,1.08,7.72,7.72,0,0,1-4.86-.65l.18,0-3,3.22a.14.14,0,0,1-.19,0v0c-2.34-3.29-4.16-5.87-5.42-7.65l-1.41-2-.35-.52C368.54,308.78,368.5,308.72,368.51,308.72Z" style="fill:#eb996e"></path><path d="M388.37,291.82a16.25,16.25,0,0,1,2.53-1c1.59-.58,3.83-1.37,6.38-2.24h0l1.9-.39c3.09-.63,5.9-1.18,7.94-1.54a21.08,21.08,0,0,1,3.31-.49,20.94,20.94,0,0,1-3.24.85c-2,.46-4.81,1.06-7.9,1.69l-1.91.38h0c-2.55.86-4.81,1.58-6.44,2.08A15.71,15.71,0,0,1,388.37,291.82Z" style="fill:#eb996e"></path><path d="M278.69,292l43.36,37.59,44.66-25.56S380.8,311.53,377.8,324l-39.53,31.3a32.29,32.29,0,0,1-39.27.63l-15.11-11.19L249.64,316S244,297.69,256.37,292A25.83,25.83,0,0,1,278.69,292Z" style="fill:#6F35A5"></path><g style="opacity:0.4"><path d="M278.69,292l43.36,37.59,44.66-25.56S380.8,311.53,377.8,324l-39.53,31.3a32.29,32.29,0,0,1-39.27.63l-15.11-11.19L249.64,316S244,297.69,256.37,292A25.83,25.83,0,0,1,278.69,292Z"></path></g><path d="M284.69,297.24s.24.18.68.56l2,1.66,7.5,6.43,27.35,23.59-.23,0,44.64-25.6.12-.07.12.06a25.14,25.14,0,0,1,9.05,8,15.5,15.5,0,0,1,2.17,12.19l0,.06-.07.06-12.28,9.73-22.41,17.73h0A43.11,43.11,0,0,1,322.58,362a27.45,27.45,0,0,1-11-.12,43.49,43.49,0,0,1-9.71-4,99.16,99.16,0,0,1-15.63-11.1l-12.64-10.67-18-15.29-4.83-4.12-1.24-1.08a5.5,5.5,0,0,1-.41-.38l.44.34,1.27,1,4.89,4.06,18.14,15.18,12.67,10.61a98.5,98.5,0,0,0,15.6,11,42.58,42.58,0,0,0,9.6,3.91,27,27,0,0,0,10.79.1,42.65,42.65,0,0,0,20.45-10.24h0l22.4-17.74,12.28-9.73-.08.12a13.89,13.89,0,0,0,.16-6.12,16.28,16.28,0,0,0-2.27-5.63,24.68,24.68,0,0,0-8.86-7.87h.24L322.15,329.8l-.12.07-.11-.09-27.24-23.73-7.42-6.5-1.93-1.71C284.9,297.45,284.69,297.24,284.69,297.24Z" style="fill:#263238"></path><path d="M264.41,313.93a24,24,0,0,1-.58-4.89,22.63,22.63,0,0,1-.06-4.92,24,24,0,0,1,.58,4.89A22.66,22.66,0,0,1,264.41,313.93Z" style="fill:#fafafa"></path><path d="M286.74,317.84a31.58,31.58,0,0,1-5.17-2.63,32,32,0,0,1-4.9-3.09,31.35,31.35,0,0,1,5.16,2.64A33.53,33.53,0,0,1,286.74,317.84Z" style="fill:#fafafa"></path><path d="M289.74,331.32a52.23,52.23,0,0,1-10.41,0,25,25,0,0,1,5.21-.24A25.6,25.6,0,0,1,289.74,331.32Z" style="fill:#fafafa"></path><path d="M302.88,336.83a47.41,47.41,0,0,1,.29-9.82,22.78,22.78,0,0,1,.12,4.92A23.51,23.51,0,0,1,302.88,336.83Z" style="fill:#fafafa"></path><path d="M320.38,350.79a23.73,23.73,0,0,1-4.93-.21,22.5,22.5,0,0,1-4.88-.74,47.52,47.52,0,0,1,9.81,1Z" style="fill:#fafafa"></path><path d="M334.59,342.76a24.92,24.92,0,0,1,.74-5.11,26,26,0,0,1,1.25-5,51.21,51.21,0,0,1-2,10.13Z" style="fill:#fafafa"></path><path d="M358.43,325.63a63.35,63.35,0,0,1-11.27-2,63.35,63.35,0,0,1,11.27,2Z" style="fill:#fafafa"></path><path d="M365.78,319.86a40.06,40.06,0,0,1,.94-8.91,38.55,38.55,0,0,1-.94,8.91Z" style="fill:#fafafa"></path><path d="M276.73,291.41a20,20,0,0,0-4.48-1.83,22.26,22.26,0,0,0-11.53.33,15.54,15.54,0,0,0-5.63,2.94,19.32,19.32,0,0,0-3.49,3.89c-.86,1.24-1.5,2.28-2,3a6.53,6.53,0,0,1-.75,1.07,5.16,5.16,0,0,1,.58-1.18c.41-.74,1-1.81,1.83-3.08a18.54,18.54,0,0,1,3.48-4.06,15.72,15.72,0,0,1,5.79-3.07,21.52,21.52,0,0,1,11.77-.18,13.35,13.35,0,0,1,3.32,1.4,9.66,9.66,0,0,1,.81.55C276.65,291.32,276.74,291.39,276.73,291.41Z" style="fill:#263238"></path><path d="M323.7,285.31a10.58,10.58,0,0,1,0,1.75c-.06,1.2-.15,2.8-.26,4.74-.21,4-.44,9.54-.62,15.66s-.31,11.59-.42,15.68c-.07,1.94-.13,3.54-.17,4.75a11.2,11.2,0,0,1-.14,1.74,10.38,10.38,0,0,1-.07-1.74c0-1.21,0-2.82,0-4.76,0-4,.1-9.56.27-15.68s.47-11.67.78-15.67c.15-2,.29-3.62.42-4.74A12.08,12.08,0,0,1,323.7,285.31Z" style="fill:#263238"></path><path d="M319.2,269.12a6,6,0,0,1,1.23,1.5,21.91,21.91,0,0,1,2.16,4.16,21.54,21.54,0,0,1,1.21,4.52,5.59,5.59,0,0,1,.1,1.94,64.75,64.75,0,0,0-1.8-6.27C320.81,271.6,319.06,269.21,319.2,269.12Z" style="fill:#263238"></path></g><g id="freepik--character-1--inject-18"><path d="M81.92,416.08s-9.77,2.11-18.49.8c-8.18-1.23-26.5,0-26.49,10.82,0,12,24.43,9.06,34,7.15s19-3.63,19-3.63Z" style="fill:#6F35A5"></path><path d="M60,431.48a20.47,20.47,0,0,1-1.18-4.18,19.58,19.58,0,0,1-.72-4.29,21,21,0,0,1,1.18,4.18A20.33,20.33,0,0,1,60,431.48Z" style="fill:#263238"></path><path d="M63.32,431.64a21.48,21.48,0,0,1-.82-4.29,20.19,20.19,0,0,1-.36-4.36,41.07,41.07,0,0,1,1.18,8.65Z" style="fill:#263238"></path><path d="M66.54,430.38a15.9,15.9,0,0,1-.69-3.75,15.51,15.51,0,0,1-.22-3.8,15.31,15.31,0,0,1,.69,3.75A15.51,15.51,0,0,1,66.54,430.38Z" style="fill:#263238"></path><path d="M71.6,429.12A12.91,12.91,0,0,1,70,422.46a23.58,23.58,0,0,1,.82,3.33A25.36,25.36,0,0,1,71.6,429.12Z" style="fill:#263238"></path><path d="M72.68,424.72a4.61,4.61,0,0,1,1.28-.08,10.86,10.86,0,0,1,3.43.67,3.79,3.79,0,0,1,1.06.57,1.61,1.61,0,0,1,.66,1.19,1.81,1.81,0,0,1-2.21,1.61,4.59,4.59,0,0,1-2.56-1.82,7.75,7.75,0,0,1-1.44-3A7.64,7.64,0,0,1,74,417.63a1.25,1.25,0,0,1,.72-.44,1,1,0,0,1,.82.26,2.18,2.18,0,0,1,.61,1.31,6.79,6.79,0,0,1-.13,2.45,6.86,6.86,0,0,1-1.65,3.08,5.32,5.32,0,0,1-.71.63c-.18.13-.28.19-.29.17s.34-.3.86-.92a7.1,7.1,0,0,0,1.47-3,6.33,6.33,0,0,0,.06-2.31,1.76,1.76,0,0,0-.5-1.06.61.61,0,0,0-.94.16,7.35,7.35,0,0,0-.94,5.83,7.21,7.21,0,0,0,1.35,2.83A4.2,4.2,0,0,0,77,428.26a1.42,1.42,0,0,0,1.75-1.18,1.24,1.24,0,0,0-.5-.92,3.47,3.47,0,0,0-1-.54,12,12,0,0,0-3.32-.8A12.42,12.42,0,0,1,72.68,424.72Z" style="fill:#263238"></path><path d="M89,429.63l-.25.08-.73.18-2.83.64c-2.47.55-6,1.31-10.49,2.16s-9.75,1.83-15.7,2.64a42.22,42.22,0,0,1-9.43.47,20.41,20.41,0,0,1-4.94-.94,13.21,13.21,0,0,1-2.37-1.06,7.33,7.33,0,0,1-2.08-1.67l0,0a5.68,5.68,0,0,1-.85-1,6.35,6.35,0,0,1-.49-5.27A8.32,8.32,0,0,1,42,421.79a15.68,15.68,0,0,1,4.45-2.21c.78-.22,1.54-.49,2.31-.66s1.54-.36,2.3-.47c6.13-1,11.7-.47,16.33-.47,2.32,0,4.42,0,6.25-.14a38.7,38.7,0,0,0,4.68-.59L80,416.9l1.21-.35.75-.2a.88.88,0,0,1,.26-.06s-.08,0-.24.1l-.74.25L80,417l-1.68.4a38.9,38.9,0,0,1-4.7.68c-1.84.13-4,.22-6.27.2-4.64,0-10.21-.41-16.25.57-.76.1-1.51.31-2.27.46s-1.51.45-2.27.66a15.67,15.67,0,0,0-4.33,2.16,8,8,0,0,0-3,3.87,5.9,5.9,0,0,0,.45,4.87,4.59,4.59,0,0,0,.77.92h0l0,0a7.32,7.32,0,0,0,1.93,1.54,13.78,13.78,0,0,0,2.29,1,20.31,20.31,0,0,0,4.83.93,42.85,42.85,0,0,0,9.34-.44c5.94-.79,11.25-1.73,15.69-2.54s8-1.52,10.51-2L88,429.8l.74-.14A.86.86,0,0,1,89,429.63Z" style="fill:#263238"></path><path d="M53.21,435.42a16.4,16.4,0,0,1-.23-2.5c-.12-1.54-.3-3.67-.61-6s-.7-4.44-1-5.95A16.17,16.17,0,0,1,51,418.5a11.73,11.73,0,0,1,.75,2.4,53,53,0,0,1,1.13,6,53.7,53.7,0,0,1,.48,6A11.79,11.79,0,0,1,53.21,435.42Z" style="fill:#263238"></path><polygon points="78.92 416.6 85.11 432.11 89.92 431.22 80.71 416.08 78.92 416.6" style="opacity:0.4"></polygon><path d="M147,378.28l13.62-30.37-7.89-26.06a34.07,34.07,0,0,1,1.58-23.93l13.27-28.37,9.2-4.83L198.64,261c.84.28,29.08,11.72,29.08,11.72l6.26,7.82-22.49,65.6s15.25,33.38,13.34,48.68Z" style="fill:#6F35A5"></path><g style="opacity:0.30000000000000004"><path d="M208.75,313.17q-2.55,9.88-5.09,19.75a5.11,5.11,0,0,1-1.76,3.21,5,5,0,0,1-2.5.56l-24.79,1.18a13.82,13.82,0,0,0-4.11.61,4.69,4.69,0,0,0-2.95,2.75c-.7,2.13.75,4.33,2.2,6,12.44,14.71,32.79,24,51.93,26.2l-10-28.74L215,327.88Z"></path></g><path d="M173,326.56l.36,0,1,.14,3.8.49c3.22.39,7.67.83,12.6,1.1s9.41.31,12.64.27c1.62,0,2.93,0,3.83-.07l1.05,0h.36l-.36,0-1,.05c-.91,0-2.22.09-3.84.12-3.23.06-7.71,0-12.65-.24s-9.39-.73-12.6-1.14c-1.6-.21-2.9-.39-3.79-.53l-1-.17Z" style="fill:#fafafa"></path><path d="M152.5,312.65l.57,0,1.63.13,6,.47c5.07.37,12.06.82,19.8,1.15s14.75.47,19.83.52l6,0H208l-1.63,0c-1.42,0-3.48,0-6,0-5.08,0-12.09-.16-19.84-.48s-14.73-.79-19.79-1.19c-2.53-.2-4.58-.38-6-.51l-1.63-.15Z" style="fill:#fafafa"></path><path d="M157.66,300.73l.52,0,1.49.11,5.48.4c4.63.32,11,.7,18.09,1s13.48.39,18.12.42l5.49,0h1.49l.53,0h-.53l-1.49,0c-1.3,0-3.17,0-5.49,0-4.64,0-11.05-.11-18.12-.38s-13.47-.67-18.09-1c-2.32-.17-4.19-.32-5.48-.44l-1.49-.13Z" style="fill:#fafafa"></path><path d="M160.92,290.4s2,0,4.5,0,4.49.14,4.49.17-2,0-4.49,0S160.92,290.43,160.92,290.4Z" style="fill:#fafafa"></path><path d="M198.2,285.28l.17,0,.49,0,1.81-.05,6-.13,6-.08h2.3l-.49,0-1.81.05-6,.12-6,.09H198.2Z" style="fill:#fafafa"></path><path d="M149.53,372.71l.7,0,2,.07,7.4.23c6.25.18,14.88.34,24.41.31s18.17-.25,24.42-.48l7.39-.29,2-.08.7,0-.7,0-2,.1c-1.74.1-4.27.21-7.39.34-6.25.24-14.88.47-24.42.51s-18.17-.14-24.41-.34c-3.12-.11-5.65-.2-7.4-.28l-2-.1Z" style="fill:#fafafa"></path><path d="M155.49,360.52s13.46.27,30,.67,30.06.75,30.06.79-13.46-.26-30.06-.66S155.49,360.56,155.49,360.52Z" style="fill:#fafafa"></path><path d="M160.63,347.91h.53l1.52,0,5.6.09c4.73.09,11.27.26,18.48.53s13.74.62,18.46.95c2.36.18,4.27.32,5.59.45l1.51.14.53.06-.53,0L210.8,350c-1.32-.12-3.23-.24-5.59-.41-4.72-.31-11.24-.64-18.46-.91s-13.74-.46-18.47-.57l-5.6-.13-1.52,0Z" style="fill:#fafafa"></path><path d="M171,268.41s-19,4.22-21.25,24.7L147.4,314l8.15,2.49Z" style="fill:#6F35A5"></path><path d="M153.22,320.34a1.58,1.58,0,0,1-.14-.32c-.08-.21-.21-.52-.34-.93a16.92,16.92,0,0,1-.66-3.59,23.83,23.83,0,0,1,2.4-11.69,31.88,31.88,0,0,1,1.64-3c.56-1,1.1-1.87,1.58-2.76a28.86,28.86,0,0,0,2.14-4.91c.48-1.46.83-2.65,1.08-3.47l.3-.94a1.68,1.68,0,0,1,.12-.33,1.37,1.37,0,0,1-.06.34q-.09.39-.24,1c-.21.84-.53,2-1,3.51a27.74,27.74,0,0,1-2.1,5c-.47.89-1,1.82-1.56,2.77a32.75,32.75,0,0,0-1.63,3,24.5,24.5,0,0,0-2.46,11.55,18.32,18.32,0,0,0,.55,3.57C153.1,319.88,153.24,320.33,153.22,320.34Z" style="fill:#263238"></path><path d="M155,279.33s3.14-.15,7-.25,7-.16,7-.12-3.14.14-7,.25S155,279.36,155,279.33Z" style="fill:#fafafa"></path><path d="M149.82,295.06a1.36,1.36,0,0,1,.35,0l1,.09c.8.07,1.9.15,3.12.22s2.33.1,3.14.11l1,0,.34,0a1.55,1.55,0,0,1-.34,0l-1,0c-.81,0-1.92,0-3.14-.07s-2.33-.17-3.13-.26l-.94-.13Z" style="fill:#fafafa"></path><path d="M234,280.51c3.77,4.12,4.74,10.51,4.74,17.4V333.3l-30.32-.57.93-31.63" style="fill:#6F35A5"></path><path d="M237.75,333.45h-2.28l-6.23-.07-20.85-.35h-.16v-.16c0-.79,0-1.63.06-2.48.26-8.78.5-16.73.67-22.51.1-2.86.18-5.18.23-6.82,0-.78.06-1.4.08-1.85a4.71,4.71,0,0,0,0-.48c0-.11,0-.16,0-.16s0,.06,0,.17v.48c0,.45,0,1.07,0,1.86,0,1.63-.08,4-.14,6.82-.14,5.78-.34,13.72-.56,22.5,0,.85,0,1.69-.07,2.47l-.16-.16,20.84.45,6.24.17,1.68.06.44,0Z" style="fill:#263238"></path><path d="M209.53,309.21h.28l.82.06,3,.22c4.49.32,5.59.39,9.89.57,3.88.16,7.38.23,9.92.27l3,0h.82l-.82,0h-3c-2.54,0-6.05-.07-9.92-.23s-7.37-.4-9.9-.61l-3-.26-.81-.08Z" style="fill:#fafafa"></path><path d="M210.22,296.53s1.4-.5,3.72-1.09a40,40,0,0,1,9.24-1.52,57.45,57.45,0,0,1,9.36,0c2.39.21,3.84.48,3.84.48l-.26,0-.77-.09c-.66-.09-1.63-.19-2.82-.28a60.23,60.23,0,0,0-9.34,0,60.92,60.92,0,0,0-9.23,1.48c-1.16.28-2.09.53-2.74.73l-.74.21Z" style="fill:#fafafa"></path><polygon points="153.07 320.88 145.04 306.07 120.63 306.07 119.85 307.54 140.52 341.9 163.91 343.03 153.07 320.88" style="fill:#263238"></polygon><polygon points="152.29 322.35 144.27 307.54 119.85 307.54 139.75 343.37 163.14 344.5 152.29 322.35" style="fill:#455a64"></polygon><path d="M132.25,313.76a1.23,1.23,0,1,0-.19-1.73A1.23,1.23,0,0,0,132.25,313.76Z" style="fill:#ebebeb"></path><path d="M236.16,333.45v21.47a16.67,16.67,0,0,1-5,12.18h0a12.36,12.36,0,0,1-13.86,2.39l-49.73-25.26,4.87-19,40,15.11.42-7.17Z" style="fill:#ffbe9d"></path><path d="M175.34,327.27l-3.86-4.79a13.4,13.4,0,0,0-10.43-5h-3.38l-2.3,2.58s-16.51.72-17.12,2.76v1l14.12.95s-12,0-12.73,0-3.35-.2-3.3,1.21c0,1.16,1.41,2.07,3.49,2.37.85.13,11.26,1,11.26,1l-11.45-.1c-1.29,0-1.13,2.05-.36,2.31.6.2,15.27,4.48,15.27,4.48s-2.47,1.66-4.48,1.51-5.47-2.73-6.18-1.51-.58,1.94-.15,2.23a52.14,52.14,0,0,0,6.76,3.17c1.58.43,14.5,2.47,14.5,2.47l4.66.75Z" style="fill:#ffbe9d"></path><path d="M123.27,313.31s-2.56.89-1.26,4.18a28,28,0,0,0,5.18,8.2,3,3,0,0,0,1,2.94s-1.81.45-.68,3.5a3.44,3.44,0,0,0,2.15,4.52s-.91,2.6,2.37,3.84,6.44-.9,6.44-.9Z" style="fill:#ffbe9d"></path><path d="M128.44,325.44c2.33.62,4.87,1.12,7,1.94.71.27,1.41.28,1.87.87a1.62,1.62,0,0,1,0,2.07,2.26,2.26,0,0,1-1.89.38,33.61,33.61,0,0,1-7.2-2" style="fill:#ffbe9d"></path><path d="M129.37,329.31c2.32.63,4.87,1.13,7,1.94.7.27,1.4.28,1.87.88a1.59,1.59,0,0,1,0,2.06,2.29,2.29,0,0,1-1.89.39,33.14,33.14,0,0,1-7.19-2" style="fill:#ffbe9d"></path><path d="M130.69,333.3c2.32.62,4.87,1.12,7,1.94.7.26,1.4.28,1.87.87a1.6,1.6,0,0,1,0,2.07,2.25,2.25,0,0,1-1.89.38,33.69,33.69,0,0,1-7.19-2" style="fill:#ffbe9d"></path><path d="M128.43,328.79c0-.1,1.68.48,3.74,1s3.75.93,3.73,1a13.46,13.46,0,0,1-3.83-.69A13.88,13.88,0,0,1,128.43,328.79Z" style="fill:#eb996e"></path><path d="M128,332.21a43,43,0,0,1,4.25,1.2c2.33.69,4.25,1.18,4.22,1.28a19.3,19.3,0,0,1-4.32-.93A20.12,20.12,0,0,1,128,332.21Z" style="fill:#eb996e"></path><path d="M129.53,336.6a23.24,23.24,0,0,1,4,.81,22,22,0,0,1,3.9,1.16,22.15,22.15,0,0,1-4-.81A22.06,22.06,0,0,1,129.53,336.6Z" style="fill:#eb996e"></path><path d="M126.52,325c0-.1,2.09.6,4.67,1.27s4.72,1.06,4.71,1.16a5.09,5.09,0,0,1-1.43-.12c-.87-.13-2.07-.36-3.37-.69a33.87,33.87,0,0,1-3.28-1A4.69,4.69,0,0,1,126.52,325Z" style="fill:#eb996e"></path><path d="M149.75,320.27a47.54,47.54,0,0,1,5.79-.21,45.85,45.85,0,0,1,5.8.15,45.1,45.1,0,0,1-5.79.21A46,46,0,0,1,149.75,320.27Z" style="fill:#eb996e"></path><path d="M218.15,353.31c-.06,0,0-.84,0-2.16a13.76,13.76,0,0,0-.33-2.31,16.36,16.36,0,0,0-.88-2.71,16.68,16.68,0,0,0-1.38-2.49,15.87,15.87,0,0,0-1.46-1.81c-.92-1-1.6-1.45-1.56-1.5s.19.09.5.31a10.1,10.1,0,0,1,1.22,1,13.35,13.35,0,0,1,1.54,1.8,13.8,13.8,0,0,1,2.31,5.31,12,12,0,0,1,.27,2.36,11.33,11.33,0,0,1-.07,1.59A1.67,1.67,0,0,1,218.15,353.31Z" style="fill:#eb996e"></path><path d="M165.55,260.21a4.35,4.35,0,0,0,.15-1.87,5.19,5.19,0,0,0-.85-2,13.59,13.59,0,0,0-2-2.16,12.26,12.26,0,0,1-2.42-2.83,10.55,10.55,0,0,1-.95-8.78,29.73,29.73,0,0,1,2.11-4.56,21.75,21.75,0,0,0,2-4.48,8.14,8.14,0,0,0,.09-4.4c-.75-2.77-2.41-5-3.24-7.07a8.49,8.49,0,0,1-.69-5.28,5,5,0,0,1,.54-1.36c.18-.28.3-.41.32-.4a9,9,0,0,0-.57,1.82,8.51,8.51,0,0,0,.88,5c.86,2,2.57,4.15,3.42,7.11a8.76,8.76,0,0,1-.05,4.76,22.38,22.38,0,0,1-2,4.63,29.57,29.57,0,0,0-2.08,4.45,9.91,9.91,0,0,0-.47,4.41,10.18,10.18,0,0,0,1.26,3.83,12.25,12.25,0,0,0,2.25,2.76,13.38,13.38,0,0,1,2,2.31,5.35,5.35,0,0,1,.79,2.2,3.1,3.1,0,0,1-.18,1.46A1,1,0,0,1,165.55,260.21Z" style="fill:#263238"></path><path d="M204.3,246.76a6.73,6.73,0,0,0,6.16,4.05,8.11,8.11,0,0,0,6.57-3.65,10.27,10.27,0,0,0,1.41-7.5,11.61,11.61,0,0,1-.47-3.49c.19-1.67,1.4-3,1.81-4.66.75-2.92-1.38-6-4.16-7.17s-6-.81-8.87,0" style="fill:#263238"></path><path d="M162,213c-2.68,2.69-1.66,6.23-.41,8.62s2.75,4.82,2.78,7.52-1.49,5.27-2.24,7.92a14.8,14.8,0,0,0,.79,10.19c1.1,2.38,2.82,4.43,3.94,6.8s1.53,5.36,0,7.5a4.69,4.69,0,0,0,3.3-2.65,9.15,9.15,0,0,0,.77-4.27c-.11-5.56-2.77-11-2.11-16.48.39-3.21,1.89-6.29,1.68-9.51s-2.11-6.07-3.48-9-2.19-6.6-.36-9.28" style="fill:#263238"></path><path d="M168.57,202.44a10.74,10.74,0,0,0-8.12,5c-1.59,2.91-1,7,1.67,8.91,2.55,1.79,6.18,1.2,8.8-.49a10.05,10.05,0,0,0,4.25-5.26,7.17,7.17,0,0,0-1-6.55A5.62,5.62,0,0,0,168,202.2" style="fill:#263238"></path><path d="M165.89,202.11a14.69,14.69,0,0,1,9-8.43,24.14,24.14,0,0,1,12.57-.61,72.22,72.22,0,0,1,12.13,3.79c2.89,1.1,5.84,2.23,8.19,4.24a18,18,0,0,1,5,7.58c2,5.4,2.07,9.34-.26,14.6-1,2.28-.18,4.84-1.09,7.17s-5.11,5.1-3.8,7.24" style="fill:#263238"></path><path d="M205.62,263.76l-1.86-54.7a4.4,4.4,0,0,0-4.18-4.25l-23.72-4.65c-7.54-.39-12,9.11-12.09,16.65-.07,8.38.17,18.62,1.5,24.8,2.66,12.43,12.36,13.5,12.36,13.5s.27,4.85.53,9.23l-.67,0-2.87,1.51s-4.05,25.67,10.84,23.51c5.92-.87,28.52-22.25,28.52-22.25Z" style="fill:#ffbe9d"></path><path d="M167.06,225.21a1.62,1.62,0,0,0,1.64,1.54,1.54,1.54,0,0,0,1.58-1.54,1.62,1.62,0,0,0-1.64-1.54A1.55,1.55,0,0,0,167.06,225.21Z" style="fill:#263238"></path><path d="M166.23,221.2c.21.2,1.38-.77,3.11-.86s3,.71,3.22.49-.13-.47-.71-.84a4.42,4.42,0,0,0-2.59-.65,4.23,4.23,0,0,0-2.46.94C166.29,220.72,166.13,221.11,166.23,221.2Z" style="fill:#263238"></path><path d="M183.44,224.29a1.61,1.61,0,0,0,1.63,1.54,1.54,1.54,0,0,0,1.58-1.54,1.61,1.61,0,0,0-1.63-1.54A1.54,1.54,0,0,0,183.44,224.29Z" style="fill:#263238"></path><path d="M183.3,221.41c.21.2,1.38-.77,3.11-.86s3,.71,3.22.49-.13-.47-.71-.84a4.46,4.46,0,0,0-2.59-.65,4.23,4.23,0,0,0-2.46.95C183.36,220.93,183.2,221.32,183.3,221.41Z" style="fill:#263238"></path><path d="M177.72,234.58a11.19,11.19,0,0,0-2.84-.35c-.45,0-.87-.09-1-.39a2.29,2.29,0,0,1,.22-1.32c.36-1.1.74-2.24,1.13-3.44,1.55-4.89,2.65-8.89,2.46-9s-1.62,3.86-3.18,8.74c-.37,1.21-.73,2.36-1.06,3.45a2.58,2.58,0,0,0-.14,1.75,1.12,1.12,0,0,0,.76.61,3,3,0,0,0,.76.06A11.24,11.24,0,0,0,177.72,234.58Z" style="fill:#263238"></path><path d="M177.63,255.11a31.92,31.92,0,0,0,16.54-5.38s-3.77,8.85-16.38,8.35Z" style="fill:#eb996e"></path><path d="M182.26,216.39c.19.46,1.91.14,4,.28s3.71.6,4,.16c.11-.21-.2-.63-.89-1.05a6.57,6.57,0,0,0-3-.87,6.73,6.73,0,0,0-3.06.53C182.53,215.78,182.17,216.17,182.26,216.39Z" style="fill:#263238"></path><path d="M166.64,217c.33.37,1.5-.1,2.93-.19s2.66.12,2.92-.31c.11-.21-.1-.59-.65-.93a4.13,4.13,0,0,0-2.42-.52,4.07,4.07,0,0,0-2.29.92C166.64,216.37,166.5,216.78,166.64,217Z" style="fill:#263238"></path><path d="M178.67,238.52a2.9,2.9,0,0,1,2.55-1.22,2.64,2.64,0,0,1,1.89.88,1.7,1.7,0,0,1,.23,1.92,2,2,0,0,1-2.09.65,6.23,6.23,0,0,1-2.13-1.12,1.75,1.75,0,0,1-.48-.46.53.53,0,0,1,0-.6" style="fill:#eb996e"></path><path d="M182.59,235.53c-.26,0-.17,1.75-1.6,3.07s-3.31,1.23-3.31,1.48.43.31,1.22.29a4.34,4.34,0,0,0,2.77-1.13,3.81,3.81,0,0,0,1.23-2.57C182.93,235.93,182.71,235.51,182.59,235.53Z" style="fill:#263238"></path><path d="M165.68,205.47c.82,3.93,7.12,4.23,11,3.25a12.74,12.74,0,0,0,11.51,4.2,2.46,2.46,0,0,1,3.08,1.18,11.19,11.19,0,0,0,7.06,3.88,10.08,10.08,0,0,0,8.09,7.85s1.25-.71.51-5.75-.78-15.61-.78-15.61L192.1,199l-16.58-2.14S164.29,198.82,165.68,205.47Z" style="fill:#263238"></path><path d="M212.27,223.86a12.27,12.27,0,0,0-1.05-3.48,8.94,8.94,0,0,0-2.62-3.15,9.11,9.11,0,0,0-5-1.77h-.21l-.07-.21a11.07,11.07,0,0,0-3.57-5.57,6.41,6.41,0,0,0-6.93-.77l-.37.21-.16-.4c-.06-.15-.12-.3-.19-.45a9.86,9.86,0,0,0-8.42-5.8,10.84,10.84,0,0,0-2.42.2,5.65,5.65,0,0,1-2.49,0,4.6,4.6,0,0,1-1.93-1.31,8.41,8.41,0,0,0-1.49-1.3,7,7,0,0,0-5.72-.78,12.42,12.42,0,0,0-2,.94s.13-.16.43-.41a6.58,6.58,0,0,1,1.5-.8,7,7,0,0,1,6.09.61c1.21.66,2,2.09,3.31,2.45s3-.43,4.77-.31a10.47,10.47,0,0,1,9.08,6.19c.06.17.13.33.2.49l-.54-.2a7.1,7.1,0,0,1,7.74.85,11.6,11.6,0,0,1,3.73,5.95l-.28-.22a9.33,9.33,0,0,1,5.24,2,8.94,8.94,0,0,1,2.64,3.4,8.54,8.54,0,0,1,.73,2.65A2.55,2.55,0,0,1,212.27,223.86Z" style="fill:#455a64"></path><path d="M189.87,211.82a2.78,2.78,0,0,1-1,.4,10.26,10.26,0,0,1-3,.33,12.16,12.16,0,0,1-8.8-4.12l.46.08-.4.21a9.54,9.54,0,0,1-5.59.84,9,9,0,0,1-4.22-1.86,8.8,8.8,0,0,1-2-2.32,2.5,2.5,0,0,1-.45-1,14.89,14.89,0,0,0,2.81,2.94,8.93,8.93,0,0,0,4,1.6,9.06,9.06,0,0,0,5.16-.82l.37-.19.27-.14.19.22a12.2,12.2,0,0,0,8.27,4.08A23.21,23.21,0,0,0,189.87,211.82Z" style="fill:#455a64"></path><path d="M182.4,204.81c0,.22-1.84.16-3.94.78s-3.63,1.62-3.76,1.44,1.28-1.5,3.55-2.15S182.44,204.62,182.4,204.81Z" style="fill:#455a64"></path><path d="M177.63,204.66c-.16.14-.83-.35-1.67-.89s-1.57-.94-1.5-1.14,1-.08,1.9.52S177.78,204.53,177.63,204.66Z" style="fill:#455a64"></path><path d="M197.52,210.85c-.07.21-1.69-.22-3.68,0s-3.52.83-3.62.64,1.38-1.21,3.56-1.38S197.6,210.68,197.52,210.85Z" style="fill:#455a64"></path><path d="M201.37,217.37c0,.19-2.36.42-5.13-.39s-4.66-2.26-4.55-2.41,2.1.94,4.76,1.7S201.37,217.15,201.37,217.37Z" style="fill:#455a64"></path><path d="M210.2,221.68c-.16.16-1.39-1.08-3.37-1.64s-3.68-.23-3.73-.44,1.72-.93,3.94-.27S210.37,221.59,210.2,221.68Z" style="fill:#455a64"></path><path d="M208.93,203.69c-.06,0-.22-.41-.7-1.05a7.59,7.59,0,0,0-2.65-2.06,24.33,24.33,0,0,0-11.08-1.85,45.22,45.22,0,0,0-11.18,2.13c-2.8.88-4.51,1.51-4.55,1.41a3.88,3.88,0,0,1,1.13-.61c.76-.33,1.86-.79,3.25-1.3A39.66,39.66,0,0,1,194.47,198a22.85,22.85,0,0,1,11.35,2.12,7,7,0,0,1,2.65,2.37A2.38,2.38,0,0,1,208.93,203.69Z" style="fill:#455a64"></path><path d="M210.34,210.43a21.52,21.52,0,0,0-2.13-3.43,15.35,15.35,0,0,0-8.2-4.81,28.41,28.41,0,0,0-9.71-.2,32,32,0,0,1-4.06.51,17.51,17.51,0,0,1,4-1,25.41,25.41,0,0,1,10,0,14.85,14.85,0,0,1,8.44,5.21,10,10,0,0,1,1.47,2.66A2.87,2.87,0,0,1,210.34,210.43Z" style="fill:#455a64"></path><path d="M163.68,218.31a4.51,4.51,0,0,1-2.41-1.6,7.49,7.49,0,0,1,2.52-12,4.58,4.58,0,0,1,2.86-.5,21.89,21.89,0,0,0-2.63,1,7.27,7.27,0,0,0-2.35,11.23A20.77,20.77,0,0,0,163.68,218.31Z" style="fill:#455a64"></path><path d="M215.94,235.11c-.07-.11,1.2-.78,3-2.13a9.07,9.07,0,0,0,2.53-2.89,5,5,0,0,0,.21-4.42,5.84,5.84,0,0,0-3.22-3.12,6.67,6.67,0,0,0-3.76-.24,12.94,12.94,0,0,0-3.32,1.41s.2-.32.71-.72a7.31,7.31,0,0,1,2.48-1.2,6.94,6.94,0,0,1,4.12.1,6.45,6.45,0,0,1,3.68,3.48,5.62,5.62,0,0,1-.3,5,9,9,0,0,1-2.82,3,17.39,17.39,0,0,1-2.37,1.36A2.76,2.76,0,0,1,215.94,235.11Z" style="fill:#263238"></path><path d="M216.52,235.18a3.65,3.65,0,0,1,.58,1.08,27.67,27.67,0,0,1,1.18,3.13,16.52,16.52,0,0,1,.79,4.93,10.64,10.64,0,0,1-1.69,5.91,7.64,7.64,0,0,1-5.2,3.29,5.5,5.5,0,0,1-4.74-1.61,5,5,0,0,1-1.47-3.06,2.17,2.17,0,0,1,.16-1.23c.07,0,0,.45.13,1.19a5.17,5.17,0,0,0,5.83,4,7,7,0,0,0,4.67-3,10.25,10.25,0,0,0,1.62-5.5,17.35,17.35,0,0,0-.61-4.78C217.06,236.85,216.4,235.23,216.52,235.18Z" style="fill:#263238"></path><path d="M197.11,211.72c-1.56,3.12-.37,6.89,1.24,10s3.64,6.16,3.78,9.64c.22,5.84-5,11-4.27,16.79a8.72,8.72,0,0,0,6.57,7.24c-2.76-1.86-3-5.92-2-9.07s6.16-11.47,6.9-14.71c2.48-10.89,1.42-12.16-2.38-16" style="fill:#263238"></path><path d="M207.61,219.49c0,.09-.76.26-2,.08a8.39,8.39,0,0,1-6.89-6.35,3.4,3.4,0,0,1-.07-2,12.93,12.93,0,0,1,.59,1.88,9.61,9.61,0,0,0,2.47,3.82,9.5,9.5,0,0,0,4,2.15A13.1,13.1,0,0,1,207.61,219.49Z" style="fill:#455a64"></path><path d="M203.08,251.91s-.15-.06-.39-.25a5.25,5.25,0,0,1-.92-.95,7.39,7.39,0,0,1-1.47-4.59,6.9,6.9,0,0,1,.85-3.3,14.75,14.75,0,0,1,2.42-3,11.31,11.31,0,0,0,2.36-3.28,9.39,9.39,0,0,0,.77-4.2,8.81,8.81,0,0,0-1.19-4.1,23.63,23.63,0,0,0-2.43-3.32,23.93,23.93,0,0,1-4-5.95A13.08,13.08,0,0,1,198,214.3a4.69,4.69,0,0,1,.13-1.77,15.9,15.9,0,0,0,1.54,6.22,25.41,25.41,0,0,0,4,5.72,22.84,22.84,0,0,1,2.55,3.4,9.66,9.66,0,0,1,1.31,4.43,10.08,10.08,0,0,1-.86,4.55,11.73,11.73,0,0,1-2.53,3.45,14.72,14.72,0,0,0-2.38,2.83,6.49,6.49,0,0,0-.86,3,7.53,7.53,0,0,0,1.17,4.41C202.63,251.46,203.12,251.86,203.08,251.91Z" style="fill:#455a64"></path><path d="M208.88,219.08s.34.18.8.67a8.62,8.62,0,0,1,1.56,2.4,13.42,13.42,0,0,1,.4,9.3,23.15,23.15,0,0,1-4.71,8.06,14.57,14.57,0,0,1-2.74,2.72,30,30,0,0,1,2.32-3.06,25.91,25.91,0,0,0,4.4-7.95,13.83,13.83,0,0,0-.17-8.86A18.92,18.92,0,0,0,208.88,219.08Z" style="fill:#455a64"></path><path d="M107.07,393.72c-.07.1-7.88-5.59-17.43-12.71s-17.23-13-17.15-13.09,7.88,5.59,17.43,12.71S107.15,393.61,107.07,393.72Z" style="fill:#455a64"></path><path d="M223.56,394.79l-23.62-19.41h0a29.21,29.21,0,0,0-31.38-23.87h0A29.13,29.13,0,0,0,152.7,358L139,368.75c-21.28-5.81-53.62-14.88-70.25-19.55a24.59,24.59,0,0,0-20,3l-.31.2a24.58,24.58,0,0,0-10.58,26.21h0A24.57,24.57,0,0,0,48.93,394c8.4,5.15,21.41,13.08,32.59,19.77L80,415l9.88,16.26L110.26,425c13.75-2,42.79-5.74,42.79-5.74l-8.3-4.9,1.9-.58c15.81,13.47,35.15,19.67,59.09,9.22C217.55,417.41,224.93,404.1,223.56,394.79Z" style="fill:#263238"></path><path d="M183.09,392.62s-.06.07-.19.18l-.59.49L180,395.14l-1.68,1.32c-.61.49-1.33.94-2.08,1.47l-2.41,1.65c-.43.29-.86.6-1.32.9l-1.45.87c-2,1.18-4.1,2.53-6.52,3.75-1.2.62-2.42,1.31-3.71,1.95l-4,1.9c-5.54,2.52-11.73,5.06-18.37,7.31-13.27,4.58-25.54,7.87-34.33,10.53-2.2.65-4.19,1.26-5.93,1.81s-3.24,1-4.46,1.41l-2.81.92-.74.23-.25.06s.08-.05.24-.11l.72-.27,2.78-1c1.21-.44,2.7-.93,4.44-1.49s3.71-1.2,5.91-1.87c8.77-2.75,21-6.09,34.27-10.66,6.64-2.25,12.82-4.77,18.35-7.26l4-1.88c1.29-.63,2.51-1.31,3.71-1.93,2.42-1.2,4.55-2.53,6.53-3.68l1.45-.86c.46-.29.89-.59,1.33-.88l2.42-1.62c.75-.51,1.48-.95,2.1-1.43l1.7-1.29,2.37-1.77.62-.46Z" style="fill:#455a64"></path><path d="M184.86,400.22a2.79,2.79,0,0,1-.74.39c-.48.22-1.19.51-2.08.84a53.34,53.34,0,0,1-14.47,3.11c-.95.06-1.72.09-2.25.09a2.8,2.8,0,0,1-.82,0,27.49,27.49,0,0,1,3-.37c1.88-.21,4.46-.58,7.28-1.18s5.31-1.33,7.11-1.91S184.83,400.16,184.86,400.22Z" style="fill:#455a64"></path><path d="M149.79,360.75c.08.1-15.47,12.32-34.73,27.29s-34.94,27-35,26.92,15.46-12.32,34.73-27.29S149.71,360.65,149.79,360.75Z" style="fill:#455a64"></path><path d="M205.71,413.19a2,2,0,0,1-.05-.51c0-.39,0-.87,0-1.45,0-1.25-.06-3.07-.17-5.32a133.47,133.47,0,0,0-2-17.42,130.82,130.82,0,0,0-4.41-17c-.71-2.13-1.31-3.85-1.76-5-.19-.55-.36-1-.49-1.37a1.71,1.71,0,0,1-.13-.49,3.14,3.14,0,0,1,.23.45l.58,1.33c.5,1.16,1.16,2.86,1.92,5a113.78,113.78,0,0,1,6.46,34.52c.07,2.25.07,4.08,0,5.34,0,.58-.05,1.05-.06,1.45A1.65,1.65,0,0,1,205.71,413.19Z" style="fill:#455a64"></path><path d="M145.73,412.94l.2.15.56.48c.49.41,1.18,1.07,2.12,1.84a58,58,0,0,0,8.54,5.74,56,56,0,0,0,14.24,5.35c.7.19,1.41.31,2.14.44s1.45.27,2.19.38c1.5.16,3,.41,4.58.45a50.65,50.65,0,0,0,9.65-.29l2.44-.34,2.39-.48a45,45,0,0,0,4.6-1.24,43.57,43.57,0,0,0,8.22-3.62,32.91,32.91,0,0,0,11.15-10.18,28,28,0,0,0,4.11-9.36c.27-1.18.41-2.12.49-2.75,0-.3.06-.53.08-.73a1.17,1.17,0,0,1,0-.24.93.93,0,0,1,0,.25c0,.19,0,.43,0,.73a21.44,21.44,0,0,1-.39,2.79,27.23,27.23,0,0,1-4,9.51,32.93,32.93,0,0,1-11.21,10.4,44.14,44.14,0,0,1-8.3,3.69,42.85,42.85,0,0,1-4.65,1.25l-2.41.49L190,428a50.78,50.78,0,0,1-9.74.28c-1.58,0-3.11-.3-4.62-.47-.75-.11-1.48-.26-2.21-.39s-1.46-.26-2.16-.45a55.24,55.24,0,0,1-14.31-5.5,53.1,53.1,0,0,1-8.49-5.91c-.93-.8-1.59-1.48-2.06-1.92l-.52-.51A1,1,0,0,1,145.73,412.94Z" style="fill:#455a64"></path><path d="M156.9,417.75c-4.1-2.18-8.7-.89-12.62.43-2.61.88-5.33,2.28-8,1.53-1.91-.54-3.34-2.09-4.8-3.44a30.23,30.23,0,0,0-22.09-7.92,9,9,0,0,0-6.07,2.74c-4,4.36-1,10,2.61,13.7a39.71,39.71,0,0,0,24,11.59c7.5.78,17.8-.25,25.41-3.51,4.69-2,7.09-7.53,4.63-12A7.72,7.72,0,0,0,156.9,417.75Z" style="fill:#6F35A5"></path><g style="opacity:0.4"><path d="M156.89,421.24c-4.1-2.18-8.7-.89-12.62.43-2.61.88-5.32,2.27-8,1.53-1.91-.54-3.34-2.09-4.8-3.45a30.26,30.26,0,0,0-22.09-7.91,9,9,0,0,0-6.07,2.74,7,7,0,0,0-1.69,3.06,15.92,15.92,0,0,0,4.3,7.15,39.71,39.71,0,0,0,24,11.59c7.5.78,17.81-.25,25.41-3.51a9.27,9.27,0,0,0,5.41-6.44,7.91,7.91,0,0,0-.78-2.07A7.72,7.72,0,0,0,156.89,421.24Z"></path></g><path d="M160.78,426.43a7.3,7.3,0,0,0-1-2.43,7.72,7.72,0,0,0-2.19-2.14,8.76,8.76,0,0,0-3.77-1.45c-3-.35-6.57.93-10.49,2-1.93.51-4,1.29-6.36,1a8.39,8.39,0,0,1-3.28-1.13,20.49,20.49,0,0,1-2.81-2.12,29.4,29.4,0,0,0-11.21-6.66,29.81,29.81,0,0,0-5.58-1.3,17.55,17.55,0,0,0-5,0,10.74,10.74,0,0,0-3.83,1.33,9.79,9.79,0,0,0-2.36,2,25.93,25.93,0,0,0-1.51,2.18,8.53,8.53,0,0,1,1.35-2.32,9.56,9.56,0,0,1,2.35-2.12,11.12,11.12,0,0,1,3.94-1.46,17.55,17.55,0,0,1,5.08,0,29.07,29.07,0,0,1,5.68,1.27,32.75,32.75,0,0,1,5.88,2.59,25.6,25.6,0,0,1,2.87,1.87c.91.71,1.77,1.5,2.66,2.26A20.23,20.23,0,0,0,134,421.8a8,8,0,0,0,3.07,1.07c2.14.28,4.2-.45,6.16-1,3.9-1,7.49-2.3,10.67-1.88a8.82,8.82,0,0,1,6.09,3.85,5.78,5.78,0,0,1,.76,1.86A2.76,2.76,0,0,1,160.78,426.43Z" style="fill:#263238"></path><path d="M160.78,426.43a7.3,7.3,0,0,0-1-2.43,7.72,7.72,0,0,0-2.19-2.14,8.76,8.76,0,0,0-3.77-1.45c-3-.35-6.57.93-10.49,2-1.93.51-4,1.29-6.36,1a8.39,8.39,0,0,1-3.28-1.13,20.49,20.49,0,0,1-2.81-2.12,29.4,29.4,0,0,0-11.21-6.66,29.81,29.81,0,0,0-5.58-1.3,17.55,17.55,0,0,0-5,0,10.74,10.74,0,0,0-3.83,1.33,9.79,9.79,0,0,0-2.36,2,25.93,25.93,0,0,0-1.51,2.18,8.53,8.53,0,0,1,1.35-2.32,9.56,9.56,0,0,1,2.35-2.12,11.12,11.12,0,0,1,3.94-1.46,17.55,17.55,0,0,1,5.08,0,29.07,29.07,0,0,1,5.68,1.27,32.75,32.75,0,0,1,5.88,2.59,25.6,25.6,0,0,1,2.87,1.87c.91.71,1.77,1.5,2.66,2.26A20.23,20.23,0,0,0,134,421.8a8,8,0,0,0,3.07,1.07c2.14.28,4.2-.45,6.16-1,3.9-1,7.49-2.3,10.67-1.88a8.82,8.82,0,0,1,6.09,3.85,5.78,5.78,0,0,1,.76,1.86A2.76,2.76,0,0,1,160.78,426.43Z" style="fill:#263238"></path><path d="M109.94,425.44A11.25,11.25,0,0,1,112,424a60.1,60.1,0,0,1,11.13-5.23,9.93,9.93,0,0,1,2.46-.69,13.88,13.88,0,0,1-2.32,1.05c-1.45.6-3.44,1.45-5.6,2.47s-4.09,2-5.48,2.74A12.63,12.63,0,0,1,109.94,425.44Z" style="fill:#263238"></path><path d="M111.35,429.54a71.87,71.87,0,0,1,8-4.17,77.07,77.07,0,0,1,8.24-3.69,73.23,73.23,0,0,1-8,4.18A73.06,73.06,0,0,1,111.35,429.54Z" style="fill:#263238"></path><path d="M128.33,431.32c-.08.13-4.45-2.48-9.75-5.82a112.56,112.56,0,0,1-9.46-6.29c.08-.13,4.44,2.48,9.75,5.82S128.41,431.19,128.33,431.32Z" style="fill:#263238"></path><path d="M130.79,427.07a13.88,13.88,0,0,1-2.14-1.43c-1.28-.93-3.06-2.21-5-3.59s-3.81-2.58-5.12-3.46a12.93,12.93,0,0,1-2.09-1.5,10.87,10.87,0,0,1,2.29,1.17c1.38.8,3.24,2,5.23,3.34s3.74,2.72,5,3.73A10.67,10.67,0,0,1,130.79,427.07Z" style="fill:#263238"></path></g><g id="freepik--speech-bubbles--inject-18"><path d="M451.51,210.6H363.39A4.43,4.43,0,0,0,359,215v29.57a4.43,4.43,0,0,0,4.43,4.43H375.9v9.82L386.11,249h65.4a4.43,4.43,0,0,0,4.44-4.43V215A4.44,4.44,0,0,0,451.51,210.6Z" style="fill:#fafafa"></path><path d="M451.51,210.6a4.38,4.38,0,0,1,.54,0,4.29,4.29,0,0,1,1.52.44,4.5,4.5,0,0,1,1.87,1.77,4.76,4.76,0,0,1,.54,1.58,16.65,16.65,0,0,1,0,1.89c0,5.35.05,13.1.08,22.79,0,1.21,0,2.46,0,3.73v1.94a4.61,4.61,0,0,1-3.82,4.4,13.87,13.87,0,0,1-2.13.07H448l-18.54,0-43.38,0,.17-.07L376.08,259l-.44.42V249l.26.26H363.14a4.66,4.66,0,0,1-3.27-1.59,4.81,4.81,0,0,1-1.17-3.4V230.54q0-6.75,0-13.27v-1.62a7.22,7.22,0,0,1,.12-1.66,4.69,4.69,0,0,1,1.84-2.75,4.92,4.92,0,0,1,3.13-.88h3.12l44,.06,29.68.08,8.07.05,2.1,0,.71,0-.71,0-2.1,0-8.07,0-29.68.09-44,.05H363.8a4.34,4.34,0,0,0-2.85.79,4.13,4.13,0,0,0-1.63,2.46,6,6,0,0,0-.11,1.55v14.89q0,6.77,0,13.76a4.24,4.24,0,0,0,1,3.06,4.18,4.18,0,0,0,2.91,1.41h13V249c0,3.37,0,6.71,0,9.82l-.43-.19,10.21-9.81.08-.07h.1l43.38,0,18.54,0h2.14a15.6,15.6,0,0,0,2.07-.06,4.26,4.26,0,0,0,3.05-2.22c.64-1.14.45-2.47.48-3.75s0-2.52,0-3.73c0-9.69.06-17.44.08-22.79,0-.66,0-1.3,0-1.87a4.31,4.31,0,0,0-.5-1.53,4.46,4.46,0,0,0-1.79-1.76A5.21,5.21,0,0,0,451.51,210.6Z" style="fill:#263238"></path><path d="M443.87,241.6a22.81,22.81,0,0,1-3,3.87l-.94,1.06-.18.21-.18-.2a14.09,14.09,0,0,1-2.23-2.68,14.5,14.5,0,0,1,2.59,2.33h-.37l.91-1.07A24,24,0,0,1,443.87,241.6Z" style="fill:#6F35A5"></path><path d="M446.64,241.6a14.53,14.53,0,0,1-2.34,3.1c-.61.7-1.18,1.33-1.64,1.8l-.17.17-.13-.17c-.56-.68-.87-1.14-.81-1.2s.48.31,1.11.93h-.31c.41-.52.95-1.18,1.56-1.88A14.72,14.72,0,0,1,446.64,241.6Z" style="fill:#6F35A5"></path><path d="M445,224.73c0,.14-16.82.26-37.58.26s-37.58-.12-37.58-.26,16.83-.26,37.58-.26S445,224.58,445,224.73Z" style="fill:#263238"></path><path d="M445,230.49c0,.14-16.82.26-37.58.26s-37.58-.12-37.58-.26,16.83-.26,37.58-.26S445,230.34,445,230.49Z" style="fill:#263238"></path><path d="M403.31,236.25a6,6,0,0,1-1.31.1l-3.59.08c-3,0-7.2.08-11.82.08s-8.79,0-11.82-.08l-3.58-.08a6.08,6.08,0,0,1-1.32-.1,6.08,6.08,0,0,1,1.32-.1l3.58-.08c3,0,7.21-.08,11.82-.08s8.8,0,11.82.08l3.59.08A6,6,0,0,1,403.31,236.25Z" style="fill:#263238"></path><path d="M408.5,156.3H359.32a4.43,4.43,0,0,0-4.44,4.43V190.3a4.44,4.44,0,0,0,4.44,4.44H408.5a4.44,4.44,0,0,0,4.44-4.44V160.73A4.43,4.43,0,0,0,408.5,156.3Z" style="fill:#fafafa"></path><path d="M408.5,156.3a2.89,2.89,0,0,1,.48,0,4.07,4.07,0,0,1,1.37.35,4.36,4.36,0,0,1,1.79,1.42,4.62,4.62,0,0,1,.9,3c0,4.72,0,11.5.08,19.86,0,2.1,0,4.3,0,6.59v1.73a12.26,12.26,0,0,1-.06,1.8,4.62,4.62,0,0,1-2,3.12,4.55,4.55,0,0,1-1.81.73,11.35,11.35,0,0,1-1.92.08h-3.89l-8.1,0-36.07,0a4.73,4.73,0,0,1-4.13-2.47,4.9,4.9,0,0,1-.57-2.39v-2.35c0-3.12,0-6.19,0-9.2,0-6,0-11.86,0-17.4a4.84,4.84,0,0,1,1.5-3.88,4.73,4.73,0,0,1,1.83-1.05,6.45,6.45,0,0,1,2-.19h7.64l13.72,0,19.86.08,5.4.05,1.4,0c.32,0,.48,0,.48,0l-.48,0-1.4,0-5.4.05-19.86.08-13.72,0-7.64,0a6,6,0,0,0-1.9.18,4.21,4.21,0,0,0-1.64.94,4.36,4.36,0,0,0-1.34,3.54c0,5.54,0,11.36,0,17.4v11.55a4.45,4.45,0,0,0,.5,2.15,4.24,4.24,0,0,0,3.68,2.19l36.07,0h12a12.48,12.48,0,0,0,1.85-.06,4.19,4.19,0,0,0,3.44-3.49,12.35,12.35,0,0,0,.06-1.73c0-.58,0-1.16,0-1.73,0-2.29,0-4.49,0-6.59,0-8.36.07-15.14.08-19.86a4.39,4.39,0,0,0-2.52-4.31A5.29,5.29,0,0,0,408.5,156.3Z" style="fill:#263238"></path><path d="M401.65,182.36a24.77,24.77,0,0,1-3.1,4l-1,1.09-.18.21-.19-.2a15.39,15.39,0,0,1-2.3-2.76,15.21,15.21,0,0,1,2.66,2.42h-.37l1-1.11A24.67,24.67,0,0,1,401.65,182.36Z" style="fill:#6F35A5"></path><path d="M404.51,182.36a16.2,16.2,0,0,1-2.42,3.18c-.62.72-1.21,1.37-1.68,1.85l-.17.17-.14-.17c-.57-.7-.9-1.17-.84-1.22s.5.32,1.14,1h-.3c.42-.54,1-1.21,1.6-1.94A15,15,0,0,1,404.51,182.36Z" style="fill:#6F35A5"></path><path d="M390.92,176.43a4.63,4.63,0,0,0-1.06-2.57,4.45,4.45,0,0,0-2.25-1.54,3.7,3.7,0,0,0-2.83.41,3.65,3.65,0,0,0-1.2,1.24,3.8,3.8,0,0,0-1-1.21,3.67,3.67,0,0,0-2.78-.68,4.43,4.43,0,0,0-2.39,1.31,4.67,4.67,0,0,0-1.31,2.45,5.7,5.7,0,0,0,.53,3.5,8,8,0,0,0,2.62,2.7c1.74,1.17,4,2.64,4,2.64s2.07-1.4,3.92-2.39a8,8,0,0,0,2.86-2.43A5.59,5.59,0,0,0,390.92,176.43Z" style="fill:#6F35A5"></path><path d="M397.26,168.61a2.5,2.5,0,0,0-.55-1.32,2.4,2.4,0,0,0-1.16-.79,1.87,1.87,0,0,0-2.07.85,1.82,1.82,0,0,0-.52-.62,1.9,1.9,0,0,0-1.42-.35,2.34,2.34,0,0,0-1.23.67,2.43,2.43,0,0,0-.67,1.26,2.86,2.86,0,0,0,.27,1.8,4.14,4.14,0,0,0,1.34,1.39c.9.6,2.07,1.35,2.07,1.35s1.07-.71,2-1.22a4.18,4.18,0,0,0,1.48-1.25A3,3,0,0,0,397.26,168.61Z" style="fill:#6F35A5"></path><path d="M233.93,135.69H145.81a4.43,4.43,0,0,0-4.43,4.44V169.7a4.43,4.43,0,0,0,4.43,4.43h12.5V184l10.22-9.82h65.4a4.43,4.43,0,0,0,4.44-4.43V140.13A4.44,4.44,0,0,0,233.93,135.69Z" style="fill:#fafafa"></path><path d="M233.93,135.69a4.38,4.38,0,0,1,.54,0,4.29,4.29,0,0,1,1.52.44,4.48,4.48,0,0,1,1.86,1.77,4.55,4.55,0,0,1,.55,1.58,16.65,16.65,0,0,1,0,1.89c0,5.35.05,13.1.08,22.79,0,1.22,0,2.46,0,3.73,0,.64,0,1.29,0,1.94a4.58,4.58,0,0,1-3.81,4.4,13.87,13.87,0,0,1-2.13.07h-2.14l-18.54,0-43.38,0,.17-.07c-3.24,3.11-6.69,6.44-10.21,9.81l-.43.42V184c0-3.11,0-6.45,0-9.82l.26.26H145.56a4.66,4.66,0,0,1-3.27-1.59,4.81,4.81,0,0,1-1.17-3.4V155.63q0-6.75,0-13.27v-1.62a7.22,7.22,0,0,1,.12-1.66,4.69,4.69,0,0,1,1.84-2.75,4.92,4.92,0,0,1,3.13-.88h3.12l44,.06,29.68.08,8.07,0,2.1,0,.71,0-.71,0-2.1,0-8.07,0-29.68.09-44,.05h-3.12a4.34,4.34,0,0,0-2.85.79,4.19,4.19,0,0,0-1.64,2.46,6.52,6.52,0,0,0-.1,1.55v14.89q0,6.76,0,13.76a4.24,4.24,0,0,0,1,3.06,4.16,4.16,0,0,0,2.91,1.41h13v.26c0,3.37,0,6.71,0,9.82l-.43-.19L168.35,174l.08-.07h.1l43.38,0,18.54,0h2.14a15.6,15.6,0,0,0,2.07-.06,4.28,4.28,0,0,0,3.05-2.22c.64-1.14.45-2.47.48-3.75s0-2.51,0-3.73c0-9.69.06-17.44.08-22.79,0-.66,0-1.3,0-1.87a4.36,4.36,0,0,0-2.29-3.29A5.25,5.25,0,0,0,233.93,135.69Z" style="fill:#263238"></path><path d="M226.29,166.69a22.81,22.81,0,0,1-3,3.87l-.94,1.06-.18.21-.19-.2a15.11,15.11,0,0,1-2.23-2.68,13.75,13.75,0,0,1,2.59,2.33H222l.91-1.07A23.43,23.43,0,0,1,226.29,166.69Z" style="fill:#6F35A5"></path><path d="M229.06,166.69a14.53,14.53,0,0,1-2.34,3.1c-.61.7-1.18,1.33-1.64,1.8l-.17.17-.13-.17c-.56-.68-.88-1.14-.82-1.2s.49.31,1.12.93h-.31c.41-.52.95-1.18,1.56-1.88A14.72,14.72,0,0,1,229.06,166.69Z" style="fill:#6F35A5"></path><path d="M227.45,149.82c0,.14-16.83.26-37.58.26s-37.58-.12-37.58-.26,16.83-.26,37.58-.26S227.45,149.67,227.45,149.82Z" style="fill:#263238"></path><path d="M227.45,155.58c0,.14-16.83.26-37.58.26s-37.58-.12-37.58-.26,16.83-.26,37.58-.26S227.45,155.43,227.45,155.58Z" style="fill:#263238"></path><path d="M185.73,161.34a6.08,6.08,0,0,1-1.32.1l-3.58.08c-3,0-7.2.08-11.82.08s-8.8,0-11.82-.08l-3.58-.08a6.08,6.08,0,0,1-1.32-.1,6.08,6.08,0,0,1,1.32-.1l3.58-.08c3,0,7.2-.08,11.82-.08s8.8,0,11.82.08l3.58.08A6.08,6.08,0,0,1,185.73,161.34Z" style="fill:#263238"></path><path d="M90.32,238.94H139.5a4.43,4.43,0,0,1,4.44,4.43v29.57a4.44,4.44,0,0,1-4.44,4.44H127v9.81l-10.21-9.81H90.32a4.44,4.44,0,0,1-4.44-4.44V243.37A4.43,4.43,0,0,1,90.32,238.94Z" style="fill:#fafafa"></path><path d="M90.32,238.94a7,7,0,0,0-1.31.24,4.45,4.45,0,0,0-2.71,2.52A4.63,4.63,0,0,0,86,243c0,.46,0,1,0,1.48,0,1,0,2.16,0,3.38,0,2.43,0,5.22,0,8.32s0,6.52,0,10.22c0,1.85,0,3.77,0,5.76a10.15,10.15,0,0,0,.06,1.47,4.22,4.22,0,0,0,2.67,3.28,8.36,8.36,0,0,0,3.11.28h10.19l14.68,0h.1l.07.07L127.18,287l-.44.18V277.12h11a20.24,20.24,0,0,0,2.49-.07,4.17,4.17,0,0,0,3.3-3,9.43,9.43,0,0,0,.15-2.4v-4.9c0-6.49,0-12.74,0-18.7v-4.41a4.25,4.25,0,0,0-1.62-3.57,4.2,4.2,0,0,0-1.8-.81,13.52,13.52,0,0,0-2-.08h-4l-14.73,0L98.14,239l-5.8,0-1.51,0c-.34,0-.51,0-.51,0s.17,0,.51,0l1.51,0,5.8,0,21.34-.09,14.73,0h4a13.74,13.74,0,0,1,2.11.07,4.68,4.68,0,0,1,3.81,4.83c0,1.45,0,2.92,0,4.41,0,6,0,12.21,0,18.7,0,1.62,0,3.25,0,4.9v1.24a4.81,4.81,0,0,1-1.52,3.53,4.66,4.66,0,0,1-2.36,1.16,20.5,20.5,0,0,1-2.58.08H127l.26-.26V287.8l-.44-.42c-3.51-3.39-6.94-6.69-10.2-9.82l.17.07-14.68,0H90.3a4.59,4.59,0,0,1-1.64-.31,4.71,4.71,0,0,1-2.41-2.11,4.57,4.57,0,0,1-.51-1.51,9.94,9.94,0,0,1,0-1.53c0-2,0-3.91,0-5.76,0-3.7,0-7.12,0-10.22s0-5.89,0-8.32c0-1.22,0-2.35,0-3.38,0-.52,0-1,0-1.49a4.82,4.82,0,0,1,.34-1.32A4.5,4.5,0,0,1,89,239.1,3.64,3.64,0,0,1,90.32,238.94Z" style="fill:#263238"></path><circle cx="104.28" cy="258.32" r="2.7" style="fill:#263238"></circle><path d="M117.61,258.32a2.7,2.7,0,1,1-2.7-2.7A2.7,2.7,0,0,1,117.61,258.32Z" style="fill:#263238"></path><circle cx="125.55" cy="258.32" r="2.7" style="fill:#263238"></circle><path d="M135,183.32H61a4.43,4.43,0,0,0-4.43,4.43v29.58A4.43,4.43,0,0,0,61,221.76h74a4.43,4.43,0,0,0,4.44-4.43V187.75A4.44,4.44,0,0,0,135,183.32Z" style="fill:#fafafa"></path><path d="M135,183.32a3.51,3.51,0,0,1,.61,0,4,4,0,0,1,1.69.57,4.47,4.47,0,0,1,1.89,2.18c.49,1.1.3,2.47.35,3.94,0,6,.05,14.56.08,25.18,0,.66,0,1.34,0,2a4.73,4.73,0,0,1-.45,2.08,4.62,4.62,0,0,1-3.41,2.58,16.81,16.81,0,0,1-2.23.08h-6.85l-20,0L61,222a4.68,4.68,0,0,1-4.6-3.73,7.42,7.42,0,0,1-.1-1.54V200.61q0-5.75,0-11.26V188a5.29,5.29,0,0,1,.16-1.42A4.65,4.65,0,0,1,58,184.17a4.74,4.74,0,0,1,2.57-1.07c.93,0,1.79,0,2.68,0l37.35.06,25.18.08,6.85.05,1.78,0,.6,0s-.2,0-.6,0l-1.78,0-6.85,0-25.18.09-37.35.05c-.87,0-1.79,0-2.63,0a4.2,4.2,0,0,0-3.66,3.1,11.09,11.09,0,0,0-.14,2.67v11.26c0,3.82,0,7.72,0,11.67v3a21.85,21.85,0,0,0,.09,2.94,4.16,4.16,0,0,0,1.45,2.37,4.22,4.22,0,0,0,2.64.94l45.73,0,20,0h6.85a19.07,19.07,0,0,0,2.16-.06,4.25,4.25,0,0,0,3.13-2.36c.62-1.19.36-2.61.42-3.93,0-10.62.07-19.22.09-25.18,0-1.48.16-2.84-.29-3.89a4.36,4.36,0,0,0-1.8-2.14,4.27,4.27,0,0,0-1.65-.61C135.18,183.33,135,183.34,135,183.32Z" style="fill:#263238"></path><path d="M130.83,198.86c0,.15-14.45.27-32.26.27s-32.25-.12-32.25-.27,14.44-.26,32.25-.26S130.83,198.72,130.83,198.86Z" style="fill:#263238"></path><path d="M130.83,203.43c0,.15-14.45.26-32.26.26s-32.25-.11-32.25-.26,14.44-.26,32.25-.26S130.83,203.29,130.83,203.43Z" style="fill:#263238"></path><path d="M100.41,208a7.27,7.27,0,0,1-1.34.1l-3.66.08c-3.08.05-7.34.08-12,.08s-9,0-12-.08l-3.65-.08a7.14,7.14,0,0,1-1.34-.1,6.51,6.51,0,0,1,1.34-.11l3.65-.08c3.08-.05,7.35-.07,12-.07s9,0,12,.07l3.66.08A6.63,6.63,0,0,1,100.41,208Z" style="fill:#263238"></path><path d="M129.76,211.61a24.77,24.77,0,0,1-3.1,4l-1,1.09-.18.21-.19-.2a16,16,0,0,1-2.3-2.75,14.4,14.4,0,0,1,2.66,2.41h-.37l1-1.11A24.67,24.67,0,0,1,129.76,211.61Z" style="fill:#6F35A5"></path><path d="M132.62,211.61a15.73,15.73,0,0,1-2.42,3.18c-.62.72-1.21,1.37-1.68,1.85l-.17.17-.14-.17c-.57-.7-.9-1.17-.83-1.22s.49.32,1.13,1h-.3c.42-.54,1-1.21,1.6-1.94A15,15,0,0,1,132.62,211.61Z" style="fill:#6F35A5"></path></g></svg>