<svg xmlns="http://www.w3.org/2000/svg" viewBox="0 0 500 500"><g id="freepik--background-complete--inject-2"><path d="M55.78,237.28s-9.59,1.68-3.44,22.6,11.12,31.64,11.12,31.64.89,4.76-3,4.74-11.83-2.86-14.35,1.39c-2.61,4.41,0,9.52,6.22,14.75S71.84,329.59,73,330.67s2.12,3.38-.51,3.79-21.47-1.13-21.67,7.85,19.56,20.7,21.7,22,2.5,2.41,2.08,3.63-6.71.12-12.09-.1-11.65.46-11.33,5.66,10.93,18,40.89,26.7l14.15,3.13,10-10.56c20-23.92,21.75-40.44,19.12-44.94s-8.21-1.57-12.56,1.6-8.94,7.6-10,6.81-1.33-1.88-.29-4.17,10.95-23,5.78-30.37S98.37,326.13,96,327.25s-2.92-1.32-2.54-2.86,4.74-18.87,7-26.68,1.59-13.51-3-15.72c-4.46-2.13-9.49,4.67-12.69,6.83s-5.1-2.29-5.1-2.29-1.84-11.68-8.37-32.48-15.63-16.72-15.63-16.72" style="fill:#ebebeb"></path><path d="M106.35,406.84c-4.73-15.3-12.69-42.63-19.64-66.06s-13.27-44.63-17.93-59.95l-5.53-18.14c-.65-2.13-1.15-3.79-1.5-4.93-.16-.56-.29-1-.38-1.29s-.11-.44-.11-.44.06.14.15.43.24.72.43,1.27c.36,1.14.9,2.79,1.58,4.91,1.37,4.26,3.3,10.45,5.67,18.1,4.73,15.3,11.1,36.48,18,59.91s14.86,50.78,19.52,66.1" style="fill:#e0e0e0"></path><path d="M57.13,302.09a4.72,4.72,0,0,1,.94.46c.59.32,1.43.81,2.47,1.43,2.07,1.23,4.88,3,7.95,5l7.84,5.19,2.38,1.56a4.9,4.9,0,0,1,.85.6,4.26,4.26,0,0,1-.94-.45c-.59-.33-1.43-.82-2.46-1.44-2.06-1.26-4.85-3.07-7.92-5.08l-7.87-5.13L58,302.7A4.55,4.55,0,0,1,57.13,302.09Z" style="fill:#e0e0e0"></path><path d="M80.71,315.63c-.11-.07,3.3-6,7.6-13.32s7.89-13.14,8-13.08-3.29,6-7.6,13.31S80.82,315.69,80.71,315.63Z" style="fill:#e0e0e0"></path><path d="M89.76,352.08a5.74,5.74,0,0,1,.75-.77l2.12-2c1.78-1.68,4.24-4,6.86-6.69s4.92-5.16,6.56-7c.78-.85,1.43-1.58,2-2.15a4.68,4.68,0,0,1,.76-.76,5.22,5.22,0,0,1-.62.87c-.43.54-1,1.32-1.85,2.25-1.58,1.88-3.85,4.42-6.48,7.1s-5.12,5-7,6.61c-.92.81-1.68,1.45-2.22,1.89A4.2,4.2,0,0,1,89.76,352.08Z" style="fill:#e0e0e0"></path><path d="M65.74,344.54a4,4,0,0,1,1,.2l2.6.7c2.18.61,5.19,1.49,8.51,2.49s6.31,1.92,8.47,2.61l2.56.84a3.93,3.93,0,0,1,.91.37,4,4,0,0,1-1-.2l-2.6-.71c-2.19-.61-5.2-1.49-8.51-2.48s-6.31-1.92-8.48-2.62l-2.55-.84A3.94,3.94,0,0,1,65.74,344.54Z" style="fill:#e0e0e0"></path><path d="M69.65,377.74a6,6,0,0,1,1.23.27l3.33.89c2.81.77,6.67,1.86,10.94,3.1s8.11,2.37,10.9,3.22l3.28,1a6.1,6.1,0,0,1,1.19.44,6.87,6.87,0,0,1-1.23-.27L96,385.53c-2.81-.77-6.67-1.87-10.94-3.1s-8.11-2.38-10.9-3.23l-3.28-1A6.65,6.65,0,0,1,69.65,377.74Z" style="fill:#e0e0e0"></path><path d="M99.85,386.26a7.07,7.07,0,0,1,.91-1l2.6-2.62c2.19-2.22,5.2-5.29,8.43-8.77s6.09-6.71,8.13-9.06l2.42-2.78a8.49,8.49,0,0,1,.93-1,7,7,0,0,1-.79,1.09c-.54.69-1.32,1.68-2.32,2.88-2,2.4-4.8,5.67-8,9.15s-6.29,6.53-8.54,8.69c-1.13,1.08-2,1.94-2.7,2.52A6.31,6.31,0,0,1,99.85,386.26Z" style="fill:#e0e0e0"></path><circle cx="91.98" cy="157.22" r="39.14" transform="translate(-84.23 111.09) rotate(-45)" style="fill:#ebebeb"></circle><path d="M71.59,149.53a20.58,20.58,0,0,1,2.88-1.7c1.81-1,4.33-2.33,7.13-3.78l.36-.19,0,.47c-2.81-1.22-5.32-2.33-7.12-3.16A19.17,19.17,0,0,1,72,139.73a20.21,20.21,0,0,1,3,1.11c1.84.74,4.38,1.8,7.19,3a.26.26,0,0,1,0,.47l-.36.19c-2.8,1.45-5.34,2.74-7.2,3.64A21.46,21.46,0,0,1,71.59,149.53Z" style="fill:#e0e0e0"></path><path d="M110.67,148.4a20.38,20.38,0,0,1-2.9-1.21c-1.77-.81-4.19-2-6.86-3.26a.26.26,0,0,1-.12-.35.22.22,0,0,1,.13-.12l.11-.05c2.75-1.21,5.25-2.27,7.07-3a18.09,18.09,0,0,1,3-1.11,19.47,19.47,0,0,1-2.84,1.45c-1.78.83-4.25,2-7,3.15l-.12.06v-.48c2.67,1.3,5.07,2.51,6.8,3.4A18.25,18.25,0,0,1,110.67,148.4Z" style="fill:#e0e0e0"></path><path d="M65.71,157.75l51.79-.2s-3.4,23.89-25,24.33S65.71,157.75,65.71,157.75Z" style="fill:#e0e0e0"></path><path d="M111.73,171.35c-4.54-6-12.36-9.08-19.91-8.89s-14.79,3.32-20.94,7.7c0,0,6.81,12,21.61,11.72S111.73,171.35,111.73,171.35Z" style="fill:#f5f5f5"></path><path d="M66.92,182.83a2.64,2.64,0,0,1-.43-.35c-.27-.24-.68-.57-1.16-1.07A32.8,32.8,0,0,1,61.56,177a35.68,35.68,0,0,1-3.07-36.58,33.63,33.63,0,0,1,3-5c.39-.57.75-1,1-1.25a2.5,2.5,0,0,1,.37-.41,20.82,20.82,0,0,1-1.17,1.77,38.22,38.22,0,0,0-2.81,5,36.25,36.25,0,0,0,3,36.21,37.74,37.74,0,0,0,3.61,4.5A20.46,20.46,0,0,1,66.92,182.83Z" style="fill:#fff"></path><path d="M69.91,128.22c0,.15-1,.54-2,1.35s-1.69,1.66-1.82,1.58.37-1.13,1.5-2A3.46,3.46,0,0,1,69.91,128.22Z" style="fill:#fff"></path><path d="M122.43,176.27a30.77,30.77,0,0,0,3.92-7.61,30.15,30.15,0,0,0,1.13-8.48,7.75,7.75,0,0,1,.29,2.53,20,20,0,0,1-3.65,11.64A8.45,8.45,0,0,1,122.43,176.27Z" style="fill:#fff"></path><circle cx="431.38" cy="197.84" r="23.76" transform="translate(-13.55 362.98) rotate(-45)" style="fill:#ebebeb"></circle><path d="M419,193.17a46.85,46.85,0,0,1,6-3.42l.23-.11v.47a46.12,46.12,0,0,1-6-2.88,43.12,43.12,0,0,1,6.23,2.4.27.27,0,0,1,.14.34.26.26,0,0,1-.12.13l-.23.12A45.68,45.68,0,0,1,419,193.17Z" style="fill:#e0e0e0"></path><path d="M442.72,192.49a44.27,44.27,0,0,1-6-2.62.27.27,0,0,1-.12-.35.33.33,0,0,1,.13-.13l.07,0A42.62,42.62,0,0,1,443,187a42.12,42.12,0,0,1-5.94,2.89l-.07,0v-.47A40.23,40.23,0,0,1,442.72,192.49Z" style="fill:#e0e0e0"></path><path d="M415.42,198.16l31.45-.12s-2.06,14.51-15.19,14.78S415.42,198.16,415.42,198.16Z" style="fill:#e0e0e0"></path><path d="M443.37,206.42A14.71,14.71,0,0,0,431.28,201a23.25,23.25,0,0,0-12.71,4.67,15.24,15.24,0,0,0,13.11,7.12C440.67,212.63,443.37,206.42,443.37,206.42Z" style="fill:#f5f5f5"></path><path d="M416.16,213.39a5.11,5.11,0,0,1-1-.83,19.24,19.24,0,0,1-2.32-2.68A21.52,21.52,0,0,1,411,187.6a18.86,18.86,0,0,1,1.84-3,5.38,5.38,0,0,1,.84-1,42.64,42.64,0,0,0-2.35,4.17,22.12,22.12,0,0,0,1.83,21.91A42.61,42.61,0,0,0,416.16,213.39Z" style="fill:#fff"></path><path d="M418,180.24c0,.14-.55.42-1.16.89s-1,1-1.17.88.15-.75.85-1.29S418,180.1,418,180.24Z" style="fill:#fff"></path><path d="M449.87,209.41a26.09,26.09,0,0,0,2.28-4.65,26.35,26.35,0,0,0,.79-5.12,9.16,9.16,0,0,1-.29,5.28A9,9,0,0,1,449.87,209.41Z" style="fill:#fff"></path><path d="M166.82,106.41a19.74,19.74,0,1,1,19.74-19.74A19.76,19.76,0,0,1,166.82,106.41Zm0-38.47a18.74,18.74,0,1,0,18.74,18.73A18.75,18.75,0,0,0,166.82,67.94Z" style="fill:#e0e0e0"></path><path d="M175,80.83c-3.59-5.16-8.18-.66-8.18-.66s-4.58-4.5-8.17.66c-3.79,5.45,3.39,11.9,8.17,14.16C171.61,92.73,178.79,86.28,175,80.83Z" style="fill:#e0e0e0"></path></g><g id="freepik--Floor--inject-2"><path d="M467.27,414.17c0,.14-98.63.26-220.26.26s-220.28-.12-220.28-.26,98.61-.26,220.28-.26S467.27,414,467.27,414.17Z" style="fill:#263238"></path></g><g id="freepik--Plant--inject-2"><path d="M427.42,385.46a2.29,2.29,0,0,1,.2-.49l.66-1.41a35.17,35.17,0,0,0,1.94-5.63c1.28-5,1.73-12.66-.17-21.75a117.38,117.38,0,0,0-4-14.61c-1.71-5.18-3.69-10.68-5.31-16.63a64.19,64.19,0,0,1-2.62-19.12c.24-6.76,2.25-13.52,4.45-20.24s4.47-13.31,5.15-19.92A30.38,30.38,0,0,0,424,247.25c-2.92-5.37-6.59-10-9.33-14.72a51.27,51.27,0,0,1-5.61-14.15,52.72,52.72,0,0,1-.35-21.93,40.61,40.61,0,0,1,2.29-7.74,3.78,3.78,0,0,1-.14.51c-.11.37-.27.86-.46,1.49a52.38,52.38,0,0,0-.86,27.55,51.1,51.1,0,0,0,5.63,14c2.74,4.7,6.42,9.27,9.39,14.71a30.93,30.93,0,0,1,3.77,18.77c-.68,6.73-3,13.36-5.17,20.08s-4.18,13.4-4.43,20.05a63.86,63.86,0,0,0,2.56,18.92c1.59,5.92,3.55,11.42,5.24,16.62a116.31,116.31,0,0,1,4,14.7c1.84,9.15,1.32,16.88-.06,21.91a32.68,32.68,0,0,1-2.07,5.62l-.73,1.38A2.61,2.61,0,0,1,427.42,385.46Z" style="fill:#263238"></path><path d="M418.44,237.22s-5.58-17.82,4.42-28.25a.62.62,0,0,1,1.06.3C424.45,212.22,425.12,221.18,418.44,237.22Z" style="fill:#6F35A5"></path><path d="M421.78,214.91a17.15,17.15,0,0,1-.38,3.28c-.37,2.27-.8,4.93-1.27,7.86s-.89,5.6-1.25,7.86a17.79,17.79,0,0,1-.59,3.26,14,14,0,0,1,.1-3.32c.19-2,.54-4.83,1.05-7.91s1-5.84,1.47-7.84A14.36,14.36,0,0,1,421.78,214.91Z" style="fill:#263238"></path><path d="M425,279.26s3.41-18.36,17.13-22.91a.61.61,0,0,1,.79.76C442,260,438.39,268.2,425,279.26Z" style="fill:#6F35A5"></path><path d="M438.37,261.09a16,16,0,0,1-1.87,2.73c-1.38,1.83-3,4-4.8,6.35l-4.78,6.37a18.52,18.52,0,0,1-2,2.6,13.64,13.64,0,0,1,1.64-2.88c1.11-1.72,2.74-4,4.63-6.51s3.65-4.68,5-6.24A14.76,14.76,0,0,1,438.37,261.09Z" style="fill:#263238"></path><path d="M421.28,325.31s-2.07-18.56,9.73-26.89a.62.62,0,0,1,1,.5C432,301.91,430.9,310.84,421.28,325.31Z" style="fill:#6F35A5"></path><path d="M428.81,304a15.88,15.88,0,0,1-1,3.16l-2.75,7.47-2.73,7.48a17.19,17.19,0,0,1-1.2,3.08,14.58,14.58,0,0,1,.73-3.23c.57-2,1.46-4.65,2.54-7.57s2.14-5.54,2.95-7.41A15,15,0,0,1,428.81,304Z" style="fill:#263238"></path><path d="M431.61,371.64S430.2,353,442.3,345.11a.62.62,0,0,1,1,.54C443.12,348.64,441.74,357.52,431.61,371.64Z" style="fill:#6F35A5"></path><path d="M439.9,350.65a16,16,0,0,1-1.11,3.12c-.86,2.12-1.88,4.62-3,7.37l-3,7.37a17.31,17.31,0,0,1-1.31,3,13.44,13.44,0,0,1,.85-3.2c.63-2,1.62-4.59,2.8-7.48s2.34-5.45,3.21-7.3A15.29,15.29,0,0,1,439.9,350.65Z" style="fill:#263238"></path><path d="M410.43,221.57s-16.55-8.65-16.88-23.1a.62.62,0,0,1,1-.53C397,199.64,403.79,205.5,410.43,221.57Z" style="fill:#6F35A5"></path><path d="M397,203.44a16,16,0,0,1,2.06,2.59l4.67,6.45,4.68,6.43a17.11,17.11,0,0,1,1.88,2.72,14.38,14.38,0,0,1-2.27-2.41c-1.31-1.57-3-3.8-4.86-6.33s-3.4-4.87-4.51-6.58A15.14,15.14,0,0,1,397,203.44Z" style="fill:#263238"></path><path d="M428.2,259.84s-17.05-7.62-18.25-22a.62.62,0,0,1,.93-.6C413.44,238.77,420.6,244.21,428.2,259.84Z" style="fill:#6F35A5"></path><path d="M413.69,242.56A16.51,16.51,0,0,1,415.9,245c1.46,1.77,3.16,3.85,5.05,6.16l5.06,6.13a17.71,17.71,0,0,1,2.05,2.6,13.78,13.78,0,0,1-2.41-2.27c-1.41-1.48-3.27-3.61-5.24-6s-3.69-4.65-4.9-6.3A13.92,13.92,0,0,1,413.69,242.56Z" style="fill:#263238"></path><path d="M418.39,302.53s-11.7-14.55-6.21-27.92a.62.62,0,0,1,1.1-.1C414.85,277.05,418.75,285.15,418.39,302.53Z" style="fill:#6F35A5"></path><path d="M413.34,280.54a17.19,17.19,0,0,1,.85,3.19l1.69,7.79c.64,2.9,1.22,5.53,1.72,7.77a19,19,0,0,1,.64,3.24,13.15,13.15,0,0,1-1.12-3.12c-.58-2-1.27-4.7-1.92-7.75s-1.17-5.82-1.49-7.83A14.22,14.22,0,0,1,413.34,280.54Z" style="fill:#263238"></path><path d="M430,352.77s-16.92-7.91-17.88-22.33a.62.62,0,0,1,.94-.57C415.58,331.46,422.65,337,430,352.77Z" style="fill:#6F35A5"></path><path d="M415.76,335.25a16.3,16.3,0,0,1,2.18,2.49l4.94,6.25c1.86,2.32,3.53,4.43,5,6.22a18.59,18.59,0,0,1,2,2.63,13.56,13.56,0,0,1-2.38-2.31c-1.38-1.51-3.21-3.66-5.14-6.11s-3.61-4.71-4.79-6.38A14.7,14.7,0,0,1,415.76,335.25Z" style="fill:#263238"></path><path d="M463.68,279.36a1.85,1.85,0,0,1,0,.41c0,.32,0,.71,0,1.19-.05,1.12-.12,2.64-.2,4.53-.22,4-.52,9.53-.89,16.17h0v0c-1.21,6.76-4.65,14.25-9.27,21.52-3.39,5.36-6.95,10.23-10,14.76a104.69,104.69,0,0,0-7.51,12.4,52.82,52.82,0,0,0-3.51,9.11c-.3,1.11-.52,2-.65,2.58a6.15,6.15,0,0,1-.24.9,4,4,0,0,1,.1-.93c.09-.61.27-1.49.53-2.62a47.41,47.41,0,0,1,3.33-9.25,98.11,98.11,0,0,1,7.41-12.55c3.05-4.56,6.58-9.44,10-14.77,4.6-7.24,8-14.61,9.27-21.26v0c.46-6.63.85-12.18,1.13-16.15.15-1.89.28-3.4.37-4.52,0-.48.08-.87.12-1.19S463.66,279.35,463.68,279.36Z" style="fill:#263238"></path><path d="M453.61,321.82s7.16-17.24-1.85-28.54a.62.62,0,0,0-1.08.21C449.88,296.37,448.4,305.24,453.61,321.82Z" style="fill:#6F35A5"></path><path d="M452.3,299.29a14.36,14.36,0,0,1,.57,3.27c.25,2,.54,4.83.76,7.94s.33,5.93.33,8a14.23,14.23,0,0,1-.2,3.31,17.5,17.5,0,0,1-.3-3.29c-.15-2.29-.33-5-.53-7.94s-.39-5.66-.55-7.95A16.91,16.91,0,0,1,452.3,299.29Z" style="fill:#263238"></path><g style="opacity:0.30000000000000004"><path d="M453.61,321.82s7.16-17.24-1.85-28.54a.62.62,0,0,0-1.08.21C449.88,296.37,448.4,305.24,453.61,321.82Z"></path></g><path d="M431.42,363.38s5.74-17.77-4.16-28.3a.62.62,0,0,0-1.06.3C425.64,338.31,424.89,347.27,431.42,363.38Z" style="fill:#6F35A5"></path><path d="M428.29,341a14.58,14.58,0,0,1,.83,3.2c.42,2,.93,4.78,1.4,7.85s.81,5.89,1,7.93a13.56,13.56,0,0,1,.06,3.31,18.41,18.41,0,0,1-.56-3.26c-.33-2.27-.73-4.93-1.17-7.87s-.85-5.6-1.2-7.87A16.73,16.73,0,0,1,428.29,341Z" style="fill:#263238"></path><g style="opacity:0.30000000000000004"><path d="M431.42,363.38s5.74-17.77-4.16-28.3a.62.62,0,0,0-1.06.3C425.64,338.31,424.89,347.27,431.42,363.38Z"></path></g><path d="M462.73,300.75S478,290,476.48,275.67a.61.61,0,0,0-1-.4C473.24,277.27,467.23,284,462.73,300.75Z" style="fill:#6F35A5"></path><g style="opacity:0.30000000000000004"><path d="M462.73,300.75S478,290,476.48,275.67a.61.61,0,0,0-1-.4C473.24,277.27,467.23,284,462.73,300.75Z"></path></g><path d="M473.72,281a15.29,15.29,0,0,1-1.28,3c-.87,1.85-2.13,4.37-3.61,7.11s-2.91,5.18-4,6.91a13.64,13.64,0,0,1-1.94,2.68,17.68,17.68,0,0,1,1.52-2.93l3.81-7,3.79-7A15.47,15.47,0,0,1,473.72,281Z" style="fill:#263238"></path><path d="M437.59,345.76S456,342.88,461,329.31a.62.62,0,0,0-.75-.82C457.36,329.31,449,332.68,437.59,345.76Z" style="fill:#6F35A5"></path><g style="opacity:0.30000000000000004"><path d="M437.59,345.76S456,342.88,461,329.31a.62.62,0,0,0-.75-.82C457.36,329.31,449,332.68,437.59,345.76Z"></path></g><path d="M456.13,332.9a14.32,14.32,0,0,1-2.49,2.19c-1.59,1.27-3.84,3-6.38,4.79s-4.89,3.37-6.63,4.43a14,14,0,0,1-2.93,1.56,17.68,17.68,0,0,1,2.66-2l6.5-4.59,6.49-4.62A16.87,16.87,0,0,1,456.13,332.9Z" style="fill:#263238"></path><polygon points="415.76 379.71 421.05 414.43 442.18 414.39 449.3 379.71 415.76 379.71" style="fill:#455a64"></polygon><path d="M446.2,393.11a.59.59,0,0,1-.17.12,4.55,4.55,0,0,1-.56.32,7.65,7.65,0,0,1-2.36.71,8.84,8.84,0,0,1-3.89-.37,8.16,8.16,0,0,1-4.18-3,6,6,0,0,1-1-2.91,3.17,3.17,0,0,1,1.44-3,3.43,3.43,0,0,1,3.54.29,5.15,5.15,0,0,1,2,3.19,13.5,13.5,0,0,1,.27,3.92,13.28,13.28,0,0,1-.86,4,8.89,8.89,0,0,1-2.45,3.49,6.82,6.82,0,0,1-4.07,1.7,7.43,7.43,0,0,1-4.23-1.23,12.46,12.46,0,0,1-3.15-2.85,6.9,6.9,0,0,1-1.6-3.81,4.42,4.42,0,0,1,1.5-3.68,3.42,3.42,0,0,1,3.74-.23,4,4,0,0,1,2.16,2.83,5.44,5.44,0,0,1-2.67,5.5,7.49,7.49,0,0,1-5.1.73,11.61,11.61,0,0,1-3.64-1.42,18.78,18.78,0,0,1-2-1.38,4,4,0,0,1-.65-.55,6,6,0,0,1,.72.46c.46.31,1.15.77,2.07,1.27a11.6,11.6,0,0,0,3.59,1.3,7.07,7.07,0,0,0,4.83-.77,5,5,0,0,0,2.41-5.05,3.52,3.52,0,0,0-1.92-2.46,2.92,2.92,0,0,0-3.18.19,3.89,3.89,0,0,0-1.28,3.23,6.46,6.46,0,0,0,1.49,3.49,12.05,12.05,0,0,0,3,2.71,6.77,6.77,0,0,0,3.9,1.14,6.22,6.22,0,0,0,3.72-1.56,8.35,8.35,0,0,0,2.29-3.26,12.3,12.3,0,0,0,.83-3.84,13.37,13.37,0,0,0-.22-3.76,4.68,4.68,0,0,0-1.79-2.88,2.92,2.92,0,0,0-3-.3,2.72,2.72,0,0,0-1.23,2.55,5.41,5.41,0,0,0,.88,2.69,7.89,7.89,0,0,0,3.94,3,8.62,8.62,0,0,0,3.75.44A9.92,9.92,0,0,0,446.2,393.11Z" style="fill:#263238"></path></g><g id="freepik--Puff--inject-2"><path d="M130.93,395c-10.87-1.12-45.71-1.86-56.46.06s-23.11,11.72-27.71,20.46c-5.17,9.81-4.29,28.59,3.9,36.57s22.88,5.6,35,7.3,24.48,1.08,36.76.76c77.12-2,154.82,8,231.1-2.6,9.73-1.34,20.06-3.32,26.94-9.53,7.61-6.87,9.11-17.16,10.21-26.66.87-7.51,1.53-15.77-3.46-21.89-3.27-4-8.55-6.39-14.13-7.39,8.93-10.89,13.31-18.92,13.77-28.2.81-16.41-3.48-28.57-4.45-44.8s-1-32.81,3.73-48.36c2.89-9.47,7.18-20.8.73-28.3-3.72-4.33-9.82-5.58-15.46-6.5-67.52-11-136.41-11.2-204.64-6.34-8.14.58-17.16,1.66-22.45,7.87-4.25,5-4.95,12.13-4.15,18.64s2.88,12.82,3.44,19.35c2.65,31-41.35,84.05-12.67,119.56" style="fill:#6F35A5"></path><g style="opacity:0.5"><path d="M130.93,395c-10.87-1.12-45.71-1.86-56.46.06s-23.11,11.72-27.71,20.46c-5.17,9.81-4.29,28.59,3.9,36.57s22.88,5.6,35,7.3,24.48,1.08,36.76.76c77.12-2,154.82,8,231.1-2.6,9.73-1.34,20.06-3.32,26.94-9.53,7.61-6.87,9.11-17.16,10.21-26.66.87-7.51,1.53-15.77-3.46-21.89-3.27-4-8.55-6.39-14.13-7.39,8.93-10.89,13.31-18.92,13.77-28.2.81-16.41-3.48-28.57-4.45-44.8s-1-32.81,3.73-48.36c2.89-9.47,7.18-20.8.73-28.3-3.72-4.33-9.82-5.58-15.46-6.5-67.52-11-136.41-11.2-204.64-6.34-8.14.58-17.16,1.66-22.45,7.87-4.25,5-4.95,12.13-4.15,18.64s2.88,12.82,3.44,19.35c2.65,31-41.35,84.05-12.67,119.56" style="fill:#fff"></path></g><path d="M144.88,236.82s1.15-.67,3.46-1.71a43.06,43.06,0,0,1,10.59-3.2c4.75-.84,10.65-1,17.47-1.38s14.59-.66,23.19-.95c17.18-.58,37.66-.9,60.4-.7s47.73,1,73.92,2.57l9.76.63a77.08,77.08,0,0,1,9.62,1,21.8,21.8,0,0,1,8.88,3.51,14.92,14.92,0,0,1,3.36,3.37,16.7,16.7,0,0,1,2.1,4.23,23,23,0,0,1,1,9.18,46.87,46.87,0,0,1-1.77,8.88c-.81,2.87-1.75,5.66-2.49,8.46s-1.43,5.6-2,8.38a122.25,122.25,0,0,0-2.1,32.06,120.26,120.26,0,0,0,1.85,14.47c.85,4.61,2,9,3,13.14,2.17,8.31,4,15.91,4.6,22.74a51.27,51.27,0,0,1-1.2,17.43,39.65,39.65,0,0,1-2.11,6,34.47,34.47,0,0,1-2.26,4.11l-.95,1.38-.75.94c-.41.51-.63.76-.63.76s.19-.28.59-.79c.19-.26.44-.58.73-1l.92-1.39a33.83,33.83,0,0,0,2.2-4.11,40.1,40.1,0,0,0,2.07-6,51.64,51.64,0,0,0,1.1-17.36c-.61-6.8-2.48-14.36-4.66-22.67-1.07-4.16-2.22-8.53-3.09-13.15a121.93,121.93,0,0,1,.18-46.7c.57-2.79,1.2-5.61,2-8.42s1.68-5.61,2.48-8.47a47.08,47.08,0,0,0,1.75-8.78,22.63,22.63,0,0,0-1-9,16.13,16.13,0,0,0-2-4.09,14.27,14.27,0,0,0-3.24-3.25,21.45,21.45,0,0,0-8.68-3.43,79,79,0,0,0-9.56-1l-9.75-.63c-26.19-1.57-51.17-2.38-73.9-2.61s-43.2.06-60.38.59c-8.59.26-16.36.56-23.19.88s-12.71.47-17.45,1.28a44.62,44.62,0,0,0-10.58,3.09c-1.16.5-2,.91-2.61,1.2Z" style="fill:#263238"></path><path d="M391.24,427.54l-.87.25-2.58.66L377.87,431l-7.18,1.8c-2.63.62-5.51,1.21-8.59,1.89-6.18,1.3-13.18,3-21,4.3l-12.27,2.24c-2.13.42-4.32.7-6.55,1.05l-6.81,1-7.05,1.06c-1.2.17-2.4.37-3.61.53l-3.68.43-15.26,1.81c-20.9,2.12-44,3.64-68.24,3.91s-47.37-1-68.31-2.79L134,446.66l-3.69-.38c-1.22-.13-2.42-.31-3.62-.47l-7.07-.94-6.83-.91c-2.23-.31-4.43-.55-6.57-.94l-12.3-2c-7.86-1.2-14.89-2.75-21.08-4-3.1-.63-6-1.17-8.63-1.75L57,433.6l-10-2.35-2.59-.62c-.58-.14-.88-.23-.88-.23s.31.05.89.18l2.6.57,10,2.25L64.28,435c2.65.56,5.54,1.09,8.63,1.7,6.2,1.17,13.23,2.7,21.09,3.87l12.3,2c2.14.38,4.34.62,6.57.93l6.83.89,7.06.93c1.2.15,2.4.33,3.62.46l3.69.37,15.27,1.53c20.93,1.75,44,2.88,68.27,2.75s47.3-1.78,68.19-3.87l15.25-1.78,3.68-.43c1.21-.15,2.41-.35,3.61-.52l7-1.05,6.81-1c2.23-.34,4.43-.61,6.55-1L341,438.58c7.83-1.3,14.83-2.94,21-4.22,3.08-.66,6-1.24,8.6-1.84l7.18-1.76,9.94-2.41,2.59-.61Z" style="fill:#263238"></path><path d="M130.93,395l.62,0,1.82.11,7,.48c3,.22,6.74.5,11.06.72s9.22.58,14.65.78,11.38.52,17.77.67c3.19.09,6.5.22,9.9.27l10.5.17c14.37.16,30.18.1,46.76-.28,33.18-.81,63.18-2.5,84.89-3.72l25.71-1.48,7-.38,1.81-.09H371l-.61.07-1.82.13-7,.49-25.71,1.64c-21.7,1.31-51.71,3.06-84.9,3.87-16.59.38-32.4.43-46.78.24l-10.5-.19c-3.41-.06-6.71-.2-9.91-.29-6.39-.18-12.34-.49-17.77-.74s-10.34-.61-14.65-.86-8-.56-11-.81l-7-.57-1.82-.17Z" style="fill:#263238"></path><path d="M324.87,454.61c-.16,0-.45-3-1.5-6.46s-2.4-6.16-2.26-6.24a6.35,6.35,0,0,1,1,1.68,27.59,27.59,0,0,1,2.68,9.05A6.08,6.08,0,0,1,324.87,454.61Z" style="fill:#263238"></path><path d="M333.71,450.48a41.39,41.39,0,0,0-1.29-5.38,39.67,39.67,0,0,0-2.51-4.93,13.46,13.46,0,0,1,3.8,10.31Z" style="fill:#263238"></path><path d="M355.84,346.72A12.59,12.59,0,0,0,366,344.06s-.33.55-1.12,1.19a9.79,9.79,0,0,1-7.48,2A3.64,3.64,0,0,1,355.84,346.72Z" style="fill:#263238"></path><path d="M355.23,334.72c.08-.14,1.85.77,4.2,1.35s4.33.64,4.33.8a12.5,12.5,0,0,1-8.53-2.15Z" style="fill:#263238"></path></g><g id="freepik--Icons--inject-2"><circle cx="349.7" cy="88.28" r="21.48" style="fill:#6F35A5"></circle><path d="M358.83,81.76c-4-5.77-9.13-.74-9.13-.74s-5.12-5-9.13.74c-4.23,6.09,3.79,13.28,9.13,15.81C355.05,95,363.06,87.85,358.83,81.76Z" style="fill:#fff"></path><circle cx="260.94" cy="68.44" r="44.04" transform="translate(-3.64 121.06) rotate(-25.94)" style="fill:#6F35A5"></circle><g style="opacity:0.2"><circle cx="260.94" cy="68.44" r="44.04" transform="translate(-3.64 121.06) rotate(-25.94)" style="fill:#fff"></circle></g><path d="M238,59.79a3.9,3.9,0,0,1,.85-.56c.56-.32,1.38-.78,2.4-1.33,2-1.12,4.88-2.62,8-4.25l.41-.21,0,.47c-3.16-1.37-6-2.62-8-3.55-1-.46-1.84-.84-2.4-1.12a3.48,3.48,0,0,1-.84-.47,3.13,3.13,0,0,1,.92.29c.59.22,1.42.55,2.46,1,2.07.84,4.92,2,8.08,3.4a.26.26,0,0,1,0,.47l-.41.21c-3.14,1.63-6,3.09-8.09,4.11-1,.52-1.89.92-2.48,1.19A3.61,3.61,0,0,1,238,59.79Z" style="fill:#263238"></path><path d="M282,58.51a21.93,21.93,0,0,1-3.25-1.38c-2-.91-4.72-2.21-7.72-3.67a.26.26,0,0,1,0-.47l.13-.06c3.09-1.36,5.9-2.56,7.94-3.4a23.14,23.14,0,0,1,3.36-1.27,26.63,26.63,0,0,1-3.21,1.6c-2,.94-4.79,2.19-7.88,3.55l-.13.06V53c3,1.47,5.7,2.82,7.65,3.81A24.9,24.9,0,0,1,282,58.51Z" style="fill:#263238"></path><path d="M231.37,69l58.27-.23S285.82,95.7,261.5,96.19,231.37,69,231.37,69Z" style="fill:#263238"></path><path d="M283.16,84.34c-5.12-6.78-13.92-10.21-22.41-10S244.1,78.07,237.19,83c0,0,7.66,13.52,24.31,13.18S283.16,84.34,283.16,84.34Z" style="fill:#6F35A5"></path><path d="M231.37,69a2.81,2.81,0,0,1,.11.36q.11.39.3,1c.28.93.71,2.28,1.39,4a47.75,47.75,0,0,0,2.88,6,36.78,36.78,0,0,0,5.22,7.08,30.94,30.94,0,0,0,3.82,3.39,28.54,28.54,0,0,0,4.78,2.79,26.19,26.19,0,0,0,5.65,1.75,28.64,28.64,0,0,0,6.26.47,26.71,26.71,0,0,0,12.86-3.56A28.61,28.61,0,0,0,284.56,82a41.19,41.19,0,0,0,4.83-13.25l.26.29-41.51,0-12.28,0-3.32,0h-1.17a1.15,1.15,0,0,1,.27,0l.83,0,3.26,0,12.21-.12,41.7-.29h0a.25.25,0,0,1,.25.25v0A41.78,41.78,0,0,1,285,82.29,29.11,29.11,0,0,1,274.9,92.81a27.2,27.2,0,0,1-13.11,3.6,29.6,29.6,0,0,1-6.36-.5,27.08,27.08,0,0,1-5.74-1.81,27.67,27.67,0,0,1-4.84-2.86A31.61,31.61,0,0,1,241,87.79a36.91,36.91,0,0,1-5.2-7.2A45.54,45.54,0,0,1,233,74.51a41.36,41.36,0,0,1-1.3-4c-.12-.47-.2-.83-.25-1.07A1.8,1.8,0,0,1,231.37,69Z" style="fill:#263238"></path><path d="M232.74,97.26a3.32,3.32,0,0,1-.49-.39c-.3-.28-.77-.66-1.3-1.21a37.57,37.57,0,0,1-4.23-5,40.18,40.18,0,0,1-3.45-41.13,38.12,38.12,0,0,1,3.34-5.62c.44-.64.84-1.09,1.09-1.41a2.3,2.3,0,0,1,.41-.47,3.38,3.38,0,0,1-.33.53c-.22.34-.59.81-1,1.46a43.7,43.7,0,0,0-3.18,5.67A40.78,40.78,0,0,0,227,90.45a42.75,42.75,0,0,0,4.07,5.07c.51.57,1,1,1.23,1.27A2.35,2.35,0,0,1,232.74,97.26Z" style="fill:#fff"></path><path d="M236.1,35.82c.05.14-1.11.57-2.28,1.48s-1.89,1.89-2,1.81.44-1.26,1.71-2.22A4,4,0,0,1,236.1,35.82Z" style="fill:#fff"></path><path d="M295.19,89.88c-.06-.06.63-.9,1.57-2.38a25.86,25.86,0,0,0,4.05-12.88c.07-1.75,0-2.84.07-2.85s.09.26.16.76a15,15,0,0,1,.14,2.09,22.61,22.61,0,0,1-4.11,13.08,16.28,16.28,0,0,1-1.31,1.65C295.42,89.71,295.22,89.9,295.19,89.88Z" style="fill:#fff"></path><path d="M391.92,160.79s0-.2-.06-.58-.06-1-.11-1.72c0-.37-.05-.8-.08-1.26s-.14-1-.23-1.5a25.6,25.6,0,0,0-.75-3.73,34.19,34.19,0,0,0-4-9.56,36,36,0,0,0-24.23-16.88,33.53,33.53,0,0,0-4.54-.52c-.77,0-1.55-.1-2.33-.09l-2.38.12c-.39,0-.8,0-1.19.08l-1.2.18c-.8.14-1.61.23-2.41.39a40,40,0,0,0-4.78,1.41,37,37,0,0,0-4.67,2.05c-.76.41-1.49.89-2.23,1.34a16.7,16.7,0,0,0-2.17,1.49,41.16,41.16,0,0,0-4.06,3.45,40.07,40.07,0,0,0-3.51,4.15l-.83,1.11-.72,1.17-.72,1.19a8.47,8.47,0,0,0-.66,1.22c-.41.84-.81,1.68-1.22,2.53s-.65,1.76-1,2.65a35.47,35.47,0,0,0,0,22.61c.32.89.64,1.77,1,2.65s.81,1.69,1.21,2.53a9,9,0,0,0,.67,1.22l.72,1.19.72,1.18L327,182a40.19,40.19,0,0,0,3.51,4.16,41.16,41.16,0,0,0,4.06,3.45,17.3,17.3,0,0,0,2.16,1.49c.75.45,1.48.93,2.24,1.34a37,37,0,0,0,4.67,2,38.19,38.19,0,0,0,4.78,1.4c.8.17,1.61.26,2.41.4l1.2.18c.4,0,.8,0,1.19.08l2.38.12c.78,0,1.56-.06,2.34-.09a33.57,33.57,0,0,0,4.53-.52,35.65,35.65,0,0,0,15.1-6.7,36,36,0,0,0,9.14-10.18,34.36,34.36,0,0,0,4-9.57,26.76,26.76,0,0,0,.76-3.72c.08-.54.18-1,.22-1.5s.06-.89.08-1.26c.05-.74.09-1.31.11-1.72s.06-.58.06-.58,0,.2,0,.58,0,1-.06,1.72c0,.38,0,.8-.06,1.27s-.13,1-.2,1.51a26.36,26.36,0,0,1-.71,3.75,34.47,34.47,0,0,1-3.94,9.67,36.34,36.34,0,0,1-24.41,17.15A34.47,34.47,0,0,1,358,197c-.78,0-1.57.1-2.37.09l-2.4-.11c-.4,0-.81,0-1.21-.08l-1.21-.18c-.81-.14-1.63-.23-2.45-.4a37.46,37.46,0,0,1-4.84-1.41,38,38,0,0,1-4.74-2.07c-.77-.42-1.51-.9-2.27-1.35a19,19,0,0,1-2.19-1.51,33,33,0,0,1-7.69-7.71l-.84-1.11L325,180l-.74-1.2a9.89,9.89,0,0,1-.67-1.24L322.36,175l-1-2.7a36,36,0,0,1,0-22.93c.33-.9.66-1.8,1-2.69l1.24-2.56a7.82,7.82,0,0,1,.68-1.24l.73-1.21.73-1.19.84-1.12a32.68,32.68,0,0,1,7.69-7.7,17.78,17.78,0,0,1,2.19-1.51c.76-.45,1.5-.93,2.27-1.35a38,38,0,0,1,4.74-2.07,37.46,37.46,0,0,1,4.84-1.41c.82-.17,1.64-.26,2.45-.4l1.21-.18c.4,0,.81,0,1.21-.08l2.4-.11c.8,0,1.59.06,2.37.09a34.47,34.47,0,0,1,4.59.55,36.2,36.2,0,0,1,24.4,17.15,34.23,34.23,0,0,1,3.95,9.67,26.51,26.51,0,0,1,.71,3.74c.07.55.16,1.06.2,1.52s0,.89.06,1.27q0,1.11.06,1.71C391.93,160.59,391.92,160.79,391.92,160.79Z" style="fill:#6F35A5"></path><path d="M348.68,152.34h2.05s4-6.85,3.86-8.67-1-6.25,0-7.5,7.18-.54,7.85,3.54a91.2,91.2,0,0,1,.78,12.63h13a3.46,3.46,0,0,1,3.34,2.37,3.2,3.2,0,0,1,.12,1.24s-.15,3.07-3,3.18a3.81,3.81,0,0,1,.91,2.84c0,2.05-2.56,2.79-2.56,2.79a2.71,2.71,0,0,1,1.6,2.79c0,2.27-2.45,3.18-2.45,3.18a5.11,5.11,0,0,1,.74,3.41c-.23,2.1-2.59,2.59-2.59,2.59h-23.7Z" style="fill:#6F35A5"></path><rect x="335.81" y="152.34" width="11.47" height="24.39" rx="2.55" style="fill:#6F35A5"></rect></g><g id="freepik--Character--inject-2"><path d="M285.86,188.08a12.94,12.94,0,0,1,6.59-6.21,8.72,8.72,0,0,1,8.71,1.31,6.61,6.61,0,0,1,1.31,8.37,9.13,9.13,0,1,1-3.73,16.22,6.81,6.81,0,0,1-10.88,4c-4.6-3.6-3.55-12-8.67-14.81" style="fill:#263238"></path><path d="M282.27,201.6A18,18,0,0,0,287,186.45a3.76,3.76,0,0,1,0-2.23c.58-1.2,2.45-1.24,3.45-.35a5.6,5.6,0,0,1,1.52,3.63,23.93,23.93,0,0,1-1,10.56,10.73,10.73,0,0,1-2,3.75,5.11,5.11,0,0,1-3.71,1.85,3,3,0,0,1-3.06-2.06" style="fill:#6F35A5"></path><path d="M279.19,149.09c-1.91-5.3-11-9.84-15.94-12.49-7.43-3.95-14.17-2.88-18.21,1-7.75-6.07-17.86-11.81-27.29-9S200.92,141.39,203,151c1.21,5.67,5.33,10.65,5.29,16.45,0,3.95-2,7.58-3.54,11.22s-2.69,7.85-1.08,11.46c1.5,3.36,5,5.37,7,8.48,1.59,2.53,2.05,5.6,3.11,8.4,3.93,10.38,16.52,15.85,27.4,13.64s19.71-10.75,24.55-20.74,6.17-21.31,6.4-32.41" style="fill:#263238"></path><path d="M238.4,146.93A18,18,0,0,0,218.07,163c-1.17,12.12-2.16,27.35-1,36.59,2.29,18,16,20.73,16,20.73s-.11,6.7-.26,14.52a19.44,19.44,0,0,0,18.3,19.77h0a19.43,19.43,0,0,0,20.57-19.49L271.27,157" style="fill:#ffbe9d"></path><path d="M233,220.32a47.6,47.6,0,0,0,24.33-5.89S250.88,227,233,224.74Z" style="fill:#eb996e"></path><path d="M244.26,164.84c.23.68,2.71.44,5.6.88s5.22,1.3,5.62.71c.18-.28-.2-.93-1.13-1.61a9.46,9.46,0,0,0-4.13-1.59,9.34,9.34,0,0,0-4.42.38C244.72,164,244.17,164.52,244.26,164.84Z" style="fill:#263238"></path><path d="M221.42,166.2c.42.58,2.14.05,4.19.09s3.78.49,4.19-.08c.19-.29-.07-.86-.81-1.41a6.06,6.06,0,0,0-6.76,0C221.49,165.35,221.24,165.92,221.42,166.2Z" style="fill:#263238"></path><path d="M243.62,185.05a.66.66,0,1,0,.63-.67A.65.65,0,0,0,243.62,185.05Z" style="fill:#eb996e"></path><path d="M225,182.46a.64.64,0,0,0,.67.63.65.65,0,0,0,.64-.67.66.66,0,1,0-1.31,0Z" style="fill:#eb996e"></path><path d="M221.4,184.29a.66.66,0,0,0,.68.63.66.66,0,0,0,0-1.31A.66.66,0,0,0,221.4,184.29Z" style="fill:#eb996e"></path><path d="M220.21,181.58a.66.66,0,1,0,.63-.67A.65.65,0,0,0,220.21,181.58Z" style="fill:#eb996e"></path><path d="M246.71,187.85a.66.66,0,0,0,1.32,0,.66.66,0,1,0-1.32,0Z" style="fill:#eb996e"></path><path d="M249.08,185.13a.66.66,0,0,0,1.32,0,.66.66,0,1,0-1.32,0Z" style="fill:#eb996e"></path><path d="M239.24,144.12a38.29,38.29,0,0,0,26.92,30.56c-4.21,6.51-1,18.52-.8,28.62.21,9.4.3,12.08,6.55,16.67,5.07,1,7.51-12.83,11.12-16.8s7-8.84,6.57-14.19c-.22-2.5-1.28-4.86-1.5-7.36-.24-2.77.56-5.52,1-8.27,1.77-12.19-4.94-25-15.71-31s-24.84-5.08-35.09,1.75" style="fill:#263238"></path><path d="M287.64,180.29a4,4,0,0,0,.43-.52,5.2,5.2,0,0,0,.77-1.78,10.37,10.37,0,0,0-1.27-6.91,13.7,13.7,0,0,0-3-3.9,27.36,27.36,0,0,0-4.41-3.52,23.15,23.15,0,0,0-5.67-2.6c-2.07-.63-4.26-1.11-6.49-1.59s-4.41-.95-6.45-1.59a40.12,40.12,0,0,1-5.74-2.27,41.78,41.78,0,0,1-13.71-10.73c-.54-.63-.94-1.15-1.21-1.49a3.42,3.42,0,0,0-.44-.52,4.31,4.31,0,0,0,.37.57c.25.36.63.89,1.16,1.54a38.66,38.66,0,0,0,4.9,5.13,41.22,41.22,0,0,0,8.76,5.84,39.25,39.25,0,0,0,5.79,2.31c2.06.66,4.25,1.13,6.48,1.62s4.41.94,6.46,1.56A22.75,22.75,0,0,1,280,164a27.3,27.3,0,0,1,4.39,3.44,13.53,13.53,0,0,1,3,3.8,10.37,10.37,0,0,1,1.38,6.74A6.31,6.31,0,0,1,287.64,180.29Z" style="fill:#455a64"></path><path d="M240.46,142.87a3.84,3.84,0,0,0,.39.44c.26.29.66.68,1.18,1.19a47.1,47.1,0,0,0,4.69,4,31.67,31.67,0,0,0,8,4.46A29.83,29.83,0,0,0,260,154.2c1.85.31,3.78.53,5.75.76a63.91,63.91,0,0,1,11,1.93,23.94,23.94,0,0,1,8,4.1,15.58,15.58,0,0,1,4,4.59,14.67,14.67,0,0,1,.71,1.51,2.85,2.85,0,0,0,.24.53,3,3,0,0,0-.17-.56,11,11,0,0,0-.64-1.55,14.86,14.86,0,0,0-3.92-4.75,23.68,23.68,0,0,0-8.09-4.23,61.48,61.48,0,0,0-11-2c-2-.23-3.89-.46-5.73-.75a31.05,31.05,0,0,1-5.21-1.2,32.86,32.86,0,0,1-7.94-4.34,58.15,58.15,0,0,1-4.75-3.88l-1.23-1.14A3.66,3.66,0,0,0,240.46,142.87Z" style="fill:#455a64"></path><path d="M219.91,127.93c0,.1,1.54.1,4,.65a18.89,18.89,0,0,1,1.94.55c.7.21,1.4.52,2.16.83a26.55,26.55,0,0,1,4.57,2.66,26,26,0,0,1,3.87,3.6,21.66,21.66,0,0,1,1.42,1.83,15.47,15.47,0,0,1,1.09,1.7c1.23,2.14,1.68,3.62,1.77,3.59a4.77,4.77,0,0,0-.31-1,9,9,0,0,0-.46-1.18,16,16,0,0,0-.74-1.52,16.44,16.44,0,0,0-1.07-1.74,20,20,0,0,0-1.41-1.88,23.11,23.11,0,0,0-8.58-6.37,22.18,22.18,0,0,0-2.21-.8,14.85,14.85,0,0,0-2-.51,13.52,13.52,0,0,0-1.66-.27,7.82,7.82,0,0,0-1.27-.1A5,5,0,0,0,219.91,127.93Z" style="fill:#455a64"></path><path d="M209.47,196.5l-.12-.16-.39-.42c-.35-.38-.86-.92-1.45-1.68a9.82,9.82,0,0,1-1.69-3,5.25,5.25,0,0,1-.23-2.12,5.86,5.86,0,0,1,.73-2.27,38.8,38.8,0,0,1,3.39-4.47,25,25,0,0,0,3.18-5.68,25.35,25.35,0,0,0,1.73-7,53.64,53.64,0,0,0-.07-7.7,26.8,26.8,0,0,1,.45-7.59,15,15,0,0,1,3.21-6.22,15.29,15.29,0,0,1,5-3.9,14.4,14.4,0,0,1,5.36-1.43,16,16,0,0,1,7.89,1.46,16.32,16.32,0,0,1,1.93,1.08l.48.32c.11.07.17.1.17.09a11.26,11.26,0,0,0-2.51-1.63,15.73,15.73,0,0,0-8-1.61,14.92,14.92,0,0,0-5.49,1.41,15.86,15.86,0,0,0-8.47,10.33,27.34,27.34,0,0,0-.46,7.7,54.53,54.53,0,0,1,.08,7.65,25.39,25.39,0,0,1-4.79,12.48,40.77,40.77,0,0,0-3.37,4.54,6.17,6.17,0,0,0-.73,2.39,5.68,5.68,0,0,0,.27,2.21,9.85,9.85,0,0,0,1.78,3.05A18,18,0,0,0,208.9,196l.42.4A.67.67,0,0,0,209.47,196.5Z" style="fill:#455a64"></path><path d="M286.74,181.32s.06,0,.19-.09l.53-.31a13.32,13.32,0,0,0,1.92-1.41,16.6,16.6,0,0,0,4.84-7.24A16.45,16.45,0,0,0,288,153.79a23,23,0,0,0-7.52-3.37,41.4,41.4,0,0,0-8.16-1.21c-2.66-.16-5.23-.2-7.67-.28a65.49,65.49,0,0,1-6.88-.55A30.18,30.18,0,0,1,252,147a20.73,20.73,0,0,1-7.46-4.35,17.54,17.54,0,0,1-1.58-1.76l-.38-.49a1,1,0,0,0-.14-.16,12.35,12.35,0,0,0,2,2.52,20.26,20.26,0,0,0,7.47,4.51,30.78,30.78,0,0,0,5.89,1.44,63.42,63.42,0,0,0,6.92.58c4.87.23,10.29.09,15.73,1.52a22.48,22.48,0,0,1,7.4,3.3,15.9,15.9,0,0,1,5,5.62,16.06,16.06,0,0,1,1.16,12.44,16.8,16.8,0,0,1-4.66,7.21,18,18,0,0,1-1.86,1.46l-.51.35A.59.59,0,0,0,286.74,181.32Z" style="fill:#263238"></path><path d="M221.44,177.21c.27.31,2-1,4.5-.89s4.25,1.32,4.53,1c.13-.13-.15-.68-.92-1.27a6.27,6.27,0,0,0-3.62-1.19,6.05,6.05,0,0,0-3.59,1.08C221.57,176.54,221.3,177.07,221.44,177.21Z" style="fill:#263238"></path><path d="M246.63,177.62c.28.3,2.05-1,4.51-.9s4.25,1.33,4.53,1c.13-.13-.15-.67-.93-1.26a6.28,6.28,0,0,0-3.61-1.2,6,6,0,0,0-3.6,1.09C246.77,176.94,246.5,177.48,246.63,177.62Z" style="fill:#263238"></path><path d="M237.32,192.5c0-.14-1.51-.43-4-.8-.63-.08-1.23-.21-1.32-.65a3.16,3.16,0,0,1,.45-1.85c.63-1.52,1.28-3.1,2-4.76,2.72-6.78,4.71-12.36,4.43-12.47s-2.7,5.3-5.42,12.08c-.66,1.67-1.28,3.27-1.88,4.79a3.68,3.68,0,0,0-.38,2.47,1.6,1.6,0,0,0,1,.94,4.61,4.61,0,0,0,1.07.17C235.76,192.6,237.31,192.64,237.32,192.5Z" style="fill:#263238"></path><path d="M238.25,198.47a4.41,4.41,0,0,1,4-1.57,4,4,0,0,1,2.78,1.56,2.57,2.57,0,0,1,.13,2.94,3,3,0,0,1-3.25.75,9.14,9.14,0,0,1-3.11-1.94,2.85,2.85,0,0,1-.69-.74.83.83,0,0,1,0-.92" style="fill:#eb996e"></path><path d="M244.55,194.35c-.4,0-.46,2.65-2.79,4.5s-5.18,1.51-5.2,1.88c-.05.17.62.54,1.82.59a6.63,6.63,0,0,0,4.34-1.41,5.79,5.79,0,0,0,2.17-3.78C245,195,244.73,194.34,244.55,194.35Z" style="fill:#263238"></path><path d="M223.71,361.72,196.34,371l-2.2,6.85s-76.36-27.49-81.78-30.38S79,338.2,69.82,361.15c-7.75,19.3,7.65,38.65,32.21,49.48s72.24,15.53,72.24,15.53l31.37,5.43,69.39.91a69.27,69.27,0,0,0,53.43-24.17c10.94-12.75,22.24-27.18,24.38-34.71,4.17-14.63.4-33.59-21.41-35.42s-57.18,23.09-57.18,23.09l-13.43-3.68Z" style="fill:#263238"></path><path d="M221.56,406.23a3.43,3.43,0,0,1,.11-.47,2.11,2.11,0,0,0-.16-1.36c-.52-1.15-2.25-2.18-4.57-2.77h0c-4.71-1.91-11.8-4.88-20.19-9.05s-18.13-9.4-28.54-15c-7.53-4-14.71-7.85-21.36-11.08s-12.72-6-17.92-8c-1.3-.52-2.53-1-3.71-1.49l-3.34-1.22L119,354.68l-2.47-.8-3.43-1.12-.88-.31-.3-.12.31.07.9.26,3.46,1,2.49.77,2.93,1,3.36,1.18c1.19.44,2.42,1,3.72,1.45,5.23,2,11.32,4.75,18,8s13.87,7,21.4,11.06c10.41,5.6,20.11,10.88,28.48,15.05s15.42,7.24,20.09,9.22h0c2.35.64,4.11,1.72,4.63,2.95a2.15,2.15,0,0,1,.1,1.43A2.26,2.26,0,0,1,221.56,406.23Z" style="fill:#455a64"></path><path d="M323.7,343l-.31.05-.91.12a21.44,21.44,0,0,0-3.46.57,39.8,39.8,0,0,0-11.87,4.95,60.92,60.92,0,0,0-7.29,5.13,77.89,77.89,0,0,0-7.53,6.93,229.67,229.67,0,0,1-16.78,16.53c-3.13,2.77-6.28,5.38-9.47,7.71a40.32,40.32,0,0,1-9.9,5.63,64.63,64.63,0,0,1-10.09,2,52.18,52.18,0,0,0-8.71,1.86,25.88,25.88,0,0,0-6.61,3.14,11.59,11.59,0,0,0-3.73,4,8.84,8.84,0,0,0-1,3.32c0,.4,0,.71,0,.91a1.14,1.14,0,0,1,0,.32,1.3,1.3,0,0,1,0-.31c0-.21,0-.52,0-.92a8.93,8.93,0,0,1,.92-3.41,11.52,11.52,0,0,1,3.75-4.14,25.75,25.75,0,0,1,6.65-3.25,52.24,52.24,0,0,1,8.76-1.94,63.46,63.46,0,0,0,10-2.06,40.46,40.46,0,0,0,9.75-5.59c3.17-2.31,6.3-4.92,9.43-7.68,6.22-5.55,11.87-11.15,16.78-16.47a77.25,77.25,0,0,1,7.6-6.94,60,60,0,0,1,7.38-5.1,38.92,38.92,0,0,1,12-4.84,19.91,19.91,0,0,1,3.5-.47l.92-.07Z" style="fill:#455a64"></path><path d="M228.82,398a7.24,7.24,0,0,1-.45-1.28,11.8,11.8,0,0,1-.36-1.56,19.78,19.78,0,0,1-.32-2.09,41.74,41.74,0,0,1-.23-5.5,61.54,61.54,0,0,1,.55-6.71A49.81,49.81,0,0,1,231,369c.33-.71.6-1.37.9-1.92s.56-1,.82-1.38a6.21,6.21,0,0,1,.86-1.05,6.55,6.55,0,0,1-.69,1.16c-.22.37-.44.86-.73,1.4s-.51,1.22-.82,1.92a56.93,56.93,0,0,0-2.82,11.79c-.34,2.34-.48,4.6-.58,6.65a49,49,0,0,0,.12,5.45C228.3,396.14,228.92,398,228.82,398Z" style="fill:#455a64"></path><path d="M221.56,406.23s51.68,13,53.75,13.73c3.12,1,2.86,12.36-2,12.29-2.28,0-39.41,2.28-44.11,2.1s-17.46-4.9-17.46-4.9L219.56,411Z" style="fill:#6F35A5"></path><path d="M243.4,425.34c.26,0,.54-2.69,2.14-5.56s3.69-4.61,3.52-4.81-2.61,1.31-4.28,4.39S243.18,425.37,243.4,425.34Z" style="fill:#263238"></path><path d="M238,423c.25,0,.72-2.4,2-5.11s2.88-4.63,2.69-4.8-2.11,1.56-3.46,4.43S237.77,423,238,423Z" style="fill:#263238"></path><path d="M232.94,421.8c.26,0,0-2.58,1.08-5.45s2.87-4.68,2.68-4.86-2.37,1.44-3.49,4.57S232.73,421.88,232.94,421.8Z" style="fill:#263238"></path><path d="M233.7,415.15a9.18,9.18,0,0,0,.46-3.83,18.17,18.17,0,0,0-.61-4.18,19.11,19.11,0,0,0-.82-2.37,3,3,0,0,0-.85-1.24,1.38,1.38,0,0,0-1.76.13,2.2,2.2,0,0,0-.65,1.47,8.91,8.91,0,0,0,0,1.36,11.58,11.58,0,0,0,.37,2.5,15.56,15.56,0,0,0,1.67,3.89,10.41,10.41,0,0,0,2.38,3c.12-.08-.77-1.26-1.84-3.33a16.87,16.87,0,0,1-1.44-3.79,11.6,11.6,0,0,1-.3-2.34c0-.79,0-1.77.43-2.16a.48.48,0,0,1,.67-.07,2.15,2.15,0,0,1,.59.88,19.92,19.92,0,0,1,.83,2.25,21.34,21.34,0,0,1,.77,4C233.76,413.67,233.56,415.13,233.7,415.15Z" style="fill:#263238"></path><path d="M233.62,414.63a7.11,7.11,0,0,0-3.32-.46,14.79,14.79,0,0,0-3.63.53,7.73,7.73,0,0,0-2.09.82,2.17,2.17,0,0,0-1.1,2.37,2.55,2.55,0,0,0,1.89,1.79,4.8,4.8,0,0,0,2.3-.05,9,9,0,0,0,3.3-1.72,9.11,9.11,0,0,0,2.34-2.41,22.7,22.7,0,0,0-2.7,1.92,9,9,0,0,1-3.12,1.43,3.94,3.94,0,0,1-1.9,0,1.74,1.74,0,0,1-1.28-1.19,1.33,1.33,0,0,1,.73-1.45,7.38,7.38,0,0,1,1.85-.77,16.78,16.78,0,0,1,3.44-.68C232.34,414.59,233.6,414.77,233.62,414.63Z" style="fill:#263238"></path><path d="M251.3,425.71c.26,0-.05-2.22.91-4.65s2.59-3.88,2.42-4.08-2.21,1.06-3.22,3.77S251.1,425.81,251.3,425.71Z" style="fill:#263238"></path><path d="M215.52,428.9a12,12,0,0,0,2,.88,43.73,43.73,0,0,0,5.76,1.65,81.61,81.61,0,0,0,19.64,1.41c7.7-.26,14.62-.77,19.65-1.08l5.94-.45a10.85,10.85,0,0,0,2.18-.29,11.2,11.2,0,0,0-2.2,0l-5.95.18-19.64.83a92.18,92.18,0,0,1-19.5-1.15C218.48,429.93,215.58,428.73,215.52,428.9Z" style="fill:#263238"></path><path d="M214,430.1c.08.12,1.46-.74,3.81-1.83a18,18,0,0,1,9.68-1.84c3.88.51,6.69,3.05,8.51,4.81a31.4,31.4,0,0,0,3,3,15.67,15.67,0,0,0-2.59-3.38,19.9,19.9,0,0,0-3.48-3.11,12.21,12.21,0,0,0-5.35-2.13,17,17,0,0,0-10.07,2.14A13.77,13.77,0,0,0,214,430.1Z" style="fill:#263238"></path><path d="M265.6,431.15c.09-.06-.36-.73-.8-1.92a9.87,9.87,0,0,1-.48-4.82,9.71,9.71,0,0,1,2-4.42c.79-1,1.43-1.49,1.36-1.58a4,4,0,0,0-1.73,1.26,8.76,8.76,0,0,0-1.57,9.75C264.93,430.63,265.54,431.2,265.6,431.15Z" style="fill:#263238"></path><path d="M343.11,385.3a4.41,4.41,0,0,1-.45.7l-1.39,1.94c-.62.83-1.34,1.88-2.25,3l-3.2,3.86c-1.19,1.42-2.63,2.85-4.11,4.46s-3.24,3.13-5,4.84a113,113,0,0,1-12.65,9.72,105.82,105.82,0,0,1-14,7.71A91.81,91.81,0,0,1,287.86,426c-1.78.52-3.43.87-4.86,1.2s-2.7.5-3.72.65l-2.38.25c-.54.05-.83.07-.83.06a4,4,0,0,1,.82-.16l2.36-.35c1-.18,2.25-.45,3.69-.73s3.05-.74,4.82-1.27a95,95,0,0,0,12.14-4.56,109.25,109.25,0,0,0,13.88-7.7,117.51,117.51,0,0,0,12.61-9.65c1.76-1.69,3.51-3.22,5-4.79s2.94-3,4.15-4.4l3.24-3.79c.93-1.13,1.67-2.16,2.32-3l1.46-1.88A5.63,5.63,0,0,1,343.11,385.3Z" style="fill:#455a64"></path><path d="M211.21,399.9c-.07,0-.89-1.25-2.34-3.23a62.7,62.7,0,0,0-6.23-7.29,63.64,63.64,0,0,0-7.29-6.22c-2-1.45-3.27-2.26-3.23-2.33a4.16,4.16,0,0,1,1,.48c.61.33,1.46.86,2.49,1.55A51.45,51.45,0,0,1,203,389a49.76,49.76,0,0,1,6.16,7.44c.7,1,1.23,1.87,1.56,2.48A4.16,4.16,0,0,1,211.21,399.9Z" style="fill:#455a64"></path><path d="M273.63,371.28c0,.08-1.13.82-2.91,2.18a44.89,44.89,0,0,0-6.35,6,44.43,44.43,0,0,0-5,7.12c-1.11,1.94-1.68,3.21-1.76,3.17a3.9,3.9,0,0,1,.31-.93,26.13,26.13,0,0,1,1.13-2.42,37.65,37.65,0,0,1,11.49-13.2c.93-.65,1.7-1.14,2.25-1.45A3.73,3.73,0,0,1,273.63,371.28Z" style="fill:#455a64"></path><path d="M286.7,355.45C300.64,344.3,326.86,339,326.86,339s-1.47-50.88-5.45-74.26c-.1-.56-.2-1.12-.31-1.67-3.58-18-19.56-28.89-37.77-31.42L271,229.92l-36.44,1.32L212.31,238S186,243.89,182,280.82c-4,36.21-8.7,66.13-8,76.78.52,7.53,7.47,12.89,11.32,13.77,3.49.79,7.92,1.54,11.69-.74a19.25,19.25,0,0,0-2.45,7h22.25l17.43-15.33,15.93,11.43,21.34-9,14.66-10M210.69,354s0-.09,0-.14c2.48-12.27,2.78-15.87,2.78-15.87s-13.1-1.65-11-19.09l2-15.09,13.07,43.94S214.57,350.2,210.69,354Z" style="fill:#6F35A5"></path><g style="opacity:0.2"><path d="M256.93,337.07,261,326.78c-4.5-1.92-6.11-2-11-2.58A52.84,52.84,0,0,0,213,333.86l2.68,7.74h0l.1,0a13.41,13.41,0,0,0,6.14.06,11.1,11.1,0,0,1,5.19-.44c2.23.55,3.83,2.48,5.83,3.61a9.1,9.1,0,0,0,12-3.44c.93-1.7,1.78-4.06,3.71-4a4.15,4.15,0,0,1,2.47,1.31l6.92,6.07c2.77,2.43,5.54,4.87,8.51,7.06,3.49,2.57,7.5,4.88,11.83,4.74a4.51,4.51,0,0,0,4.52-4.28Z"></path></g><path d="M232.87,230l-.64,10.49a25.42,25.42,0,0,0,1.64,10.64l12.82,33.39s-2-19.49,6.27-26.68,18.55-6.47,18.69-17.59c0-1.85,0-14,0-14l-17.7-3.5Z" style="fill:#ffbe9d"></path><path d="M298.4,235.48a3.15,3.15,0,0,1-.67.37,20.41,20.41,0,0,0-1.88,1.09,19.48,19.48,0,0,0-5.45,5.77,24.05,24.05,0,0,0-3.53,11.17,54.72,54.72,0,0,0,.33,7c.23,2.44.47,5,.71,7.54,1,10.32,2.17,19.65,3.06,26.39.44,3.37.83,6.1,1.11,8,.13.9.24,1.62.32,2.16a3.64,3.64,0,0,1,.09.76,4,4,0,0,1-.19-.74c-.11-.49-.24-1.22-.42-2.15-.34-1.87-.79-4.59-1.28-8-1-6.73-2.16-16.06-3.21-26.39-.26-2.58-.5-5.1-.7-7.54a55.29,55.29,0,0,1-.3-7.08,23.89,23.89,0,0,1,3.7-11.33,18.86,18.86,0,0,1,5.65-5.75,13.23,13.23,0,0,1,1.95-1A4.07,4.07,0,0,1,298.4,235.48Z" style="fill:#263238"></path><path d="M293.71,358s-.07,0-.2-.06l-.57-.25c-.5-.22-1.24-.55-2.17-1-1.88-.91-4.56-2.34-7.87-4.17-6.64-3.66-15.79-9-26.11-15.24l-.19-.11.09-.21,3.71-8.9c1.26-3.06,2.47-6.06,3.6-9,.57-1.46,1.11-2.9,1.61-4.32.25-.7.5-1.41.71-2.11.11-.35.21-.7.3-1,0-.18.08-.35.11-.52a2,2,0,0,0,0-.23v-.09h0s.05.07.09.06l.17-.45c4.47,2,8.45,4.15,12,6.09s6.63,3.69,9.22,5.07,4.67,2.44,6.1,3.15l1.65.79.56.3a3.61,3.61,0,0,1-.6-.22c-.38-.16-.95-.4-1.67-.73-1.46-.66-3.57-1.67-6.18-3s-5.73-3.06-9.28-5-7.53-4-12-6l.18-.45a.39.39,0,0,1,.18.15.74.74,0,0,1,0,.14,1.24,1.24,0,0,1,0,.18,3,3,0,0,1,0,.31c0,.19-.07.37-.11.55-.09.37-.2.72-.3,1.08-.22.71-.46,1.42-.71,2.13-.51,1.43-1,2.87-1.61,4.33-1.13,2.93-2.34,5.93-3.6,9s-2.52,6-3.72,8.9l-.1-.32c10.3,6.26,19.42,11.65,26,15.39,3.29,1.87,5.94,3.34,7.79,4.3.92.5,1.64.85,2.13,1.1l.55.28Z" style="fill:#263238"></path><path d="M204.12,303.77a6.89,6.89,0,0,1-.36-1.44c-.2-.93-.45-2.29-.71-4a109.72,109.72,0,0,1-.76-26.61c.17-1.7.33-3.07.48-4a7.26,7.26,0,0,1,.28-1.46,9.58,9.58,0,0,1-.08,1.48c-.08.95-.19,2.32-.31,4-.24,3.4-.43,8.1-.28,13.29s.6,9.87,1,13.24c.22,1.69.41,3.05.55,4A9.64,9.64,0,0,1,204.12,303.77Z" style="fill:#263238"></path><path d="M202,312.15a9.59,9.59,0,0,1-.94,1.26l-2.7,3.31-9,10.88-8.9,10.93-2.71,3.3a9.62,9.62,0,0,1-1.05,1.17,8.1,8.1,0,0,1,.89-1.3c.6-.81,1.48-2,2.58-3.4,2.21-2.86,5.3-6.77,8.79-11s6.7-8.06,9.07-10.79c1.18-1.36,2.15-2.46,2.82-3.2A9,9,0,0,1,202,312.15Z" style="fill:#263238"></path><path d="M212,344.52a5.24,5.24,0,0,1,0,1.26,11.87,11.87,0,0,1-.17,1.47c-.1.57-.17,1.23-.36,1.93a31.19,31.19,0,0,1-1.49,4.88,36.05,36.05,0,0,1-2.86,5.58,36.68,36.68,0,0,1-3.85,4.93,32.58,32.58,0,0,1-3.81,3.41c-.56.46-1.12.8-1.6,1.13a13.82,13.82,0,0,1-1.26.78,7.09,7.09,0,0,1-1.12.57c-.06-.09,1.51-1,3.75-2.77a36.15,36.15,0,0,0,3.69-3.45,38.26,38.26,0,0,0,3.76-4.89,37.86,37.86,0,0,0,2.85-5.47,36,36,0,0,0,1.59-4.78C211.77,346.3,211.91,344.51,212,344.52Z" style="fill:#263238"></path><path d="M273.73,228.72a6.63,6.63,0,0,1,.37.69c.22.46.58,1.13,1,2a38.44,38.44,0,0,1,2.27,7.91,39.23,39.23,0,0,1,.09,12.21,38.48,38.48,0,0,1-4.93,14.08c-.5.77-1,1.54-1.47,2.27L269.44,270l-.13.18-.2-.12A14.42,14.42,0,0,0,256.75,269a14.79,14.79,0,0,0-4.7,2.89A14.81,14.81,0,0,0,246.86,282c-.16,1.63-.12,2.53-.17,2.53a4.66,4.66,0,0,1-.05-.65q0-.66,0-1.89a15.48,15.48,0,0,1,2-6.7,15.83,15.83,0,0,1,3.13-3.78,15.5,15.5,0,0,1,4.81-3,14.82,14.82,0,0,1,12.79,1.1l-.34.06,1.55-2.06c.49-.73,1-1.49,1.45-2.24a38.92,38.92,0,0,0,4.91-13.9,39.56,39.56,0,0,0,0-12.07,40.92,40.92,0,0,0-2.09-7.9c-.35-.9-.68-1.58-.86-2A4,4,0,0,1,273.73,228.72Z" style="fill:#263238"></path><path d="M244.63,280.06a2.56,2.56,0,0,1-.32-.57l-.83-1.66c-.71-1.45-1.7-3.57-3-6.13a39.31,39.31,0,0,0-5.63-8.33,18,18,0,0,0-4.65-3.59,15.2,15.2,0,0,0-6.06-1.59c-.87,0-1.72,0-2.52.06h-.33l0-.3a71.5,71.5,0,0,1,2.82-11.22,84.64,84.64,0,0,1,3.4-8.7,46.6,46.6,0,0,1,3-5.51c.39-.62.72-1.08,1-1.39a2.56,2.56,0,0,1,.37-.45c.05,0-.44.68-1.17,1.95a54.7,54.7,0,0,0-2.79,5.55,91.68,91.68,0,0,0-3.28,8.7A72.76,72.76,0,0,0,221.81,258l-.28-.3c.82,0,1.7-.08,2.59-.06a15.92,15.92,0,0,1,6.28,1.65,18.5,18.5,0,0,1,4.76,3.72,38.27,38.27,0,0,1,5.61,8.5c1.3,2.58,2.24,4.72,2.89,6.2.31.7.55,1.27.74,1.71A3.18,3.18,0,0,1,244.63,280.06Z" style="fill:#263238"></path><g style="opacity:0.2"><path d="M246.68,283.88c1.12-3.51,2.52-4.76,4.43-6.59a9.87,9.87,0,0,1,7.13-3c2.22.13,4.31,1.26,6.53,1.3,2.59.06,5-1.37,6.94-3.07a25.23,25.23,0,0,0,6.07-29.12,39.52,39.52,0,0,1-8.7,26.5,15.11,15.11,0,0,0-15.33.36,15.63,15.63,0,0,0-7.07,13.63"></path></g><path d="M292.31,304.72a8.11,8.11,0,0,1,.27,1.39c.14,1,.32,2.28.54,3.81.43,3.23,1,7.68,1.58,12.61.11.93.22,1.84.32,2.72l-.2-.22a28.36,28.36,0,0,1,10,4.26,24.07,24.07,0,0,1,2.55,2,5,5,0,0,1,.83.83c-.06.07-1.27-1.06-3.56-2.52a30.42,30.42,0,0,0-9.92-4l-.18,0,0-.18c-.1-.88-.21-1.79-.33-2.72-.59-4.92-1.09-9.39-1.43-12.62-.15-1.54-.28-2.83-.38-3.83A7.26,7.26,0,0,1,292.31,304.72Z" style="fill:#263238"></path><path d="M260.94,350.06a3.23,3.23,0,0,1-.52.16l-1.51.38c-1.32.3-3.25.67-5.65,1a71.29,71.29,0,0,1-18.87-.11,70.17,70.17,0,0,1-10.18-2.19c-1.53-.49-3-.9-4.32-1.47a7,7,0,0,1-3.12-2.5,9.84,9.84,0,0,1-1.35-3,17.74,17.74,0,0,1-.48-2.43c-.1-.67-.14-1.19-.17-1.55a2.2,2.2,0,0,1,0-.54s.14.73.38,2.06a20.1,20.1,0,0,0,.56,2.38,9.88,9.88,0,0,0,1.37,2.88,6.6,6.6,0,0,0,3,2.31c1.29.53,2.76.94,4.28,1.4A72.49,72.49,0,0,0,234.46,351a75.88,75.88,0,0,0,18.76.25c2.39-.27,4.32-.59,5.64-.83l1.53-.28A1.88,1.88,0,0,1,260.94,350.06Z" style="fill:#263238"></path><path d="M240.05,351.66c0,.09-.69.29-1.69.87a9.83,9.83,0,0,0-3.23,3.13,9.94,9.94,0,0,0-1.49,4.24c-.11,1.16,0,1.89-.08,1.91a4.12,4.12,0,0,1-.28-1.93,9,9,0,0,1,4.9-7.67A4.06,4.06,0,0,1,240.05,351.66Z" style="fill:#263238"></path><path d="M245,283.67a3.15,3.15,0,0,1,.12.69c.06.51.13,1.18.23,2,.18,1.74.42,4.26.64,7.39.44,6.24.78,14.9.55,24.46-.12,4.78-.35,9.33-.65,13.46a55.4,55.4,0,0,1-1.65,10.89,22.33,22.33,0,0,1-3.08,6.76,15.7,15.7,0,0,1-1.28,1.57,4.46,4.46,0,0,1-.5.5c-.05,0,.64-.74,1.61-2.18a23.34,23.34,0,0,0,2.89-6.74,56.83,56.83,0,0,0,1.53-10.83c.28-4.13.49-8.67.61-13.44.23-9.54,0-18.19-.4-24.43-.17-3.13-.35-5.65-.47-7.4-.06-.83-.1-1.5-.14-2A3.71,3.71,0,0,1,245,283.67Z" style="fill:#263238"></path><path d="M199.69,278.3a70.53,70.53,0,0,1-8.39.92,65.67,65.67,0,0,1-8.43.4,70.87,70.87,0,0,1,8.39-.92A70.4,70.4,0,0,1,199.69,278.3Z" style="fill:#fff"></path><path d="M244.6,296a9.1,9.1,0,0,1-1.64.31c-1.05.18-2.59.35-4.5.5a67.23,67.23,0,0,1-6.73.15,75.76,75.76,0,0,1-8.22-.68,76.77,76.77,0,0,1-8.08-1.63c-2.45-.66-4.63-1.35-6.42-2s-3.23-1.27-4.19-1.73a10.15,10.15,0,0,1-1.49-.76,11.91,11.91,0,0,1,1.57.57c1,.41,2.43.95,4.23,1.57s4,1.29,6.42,1.91,5.16,1.17,8,1.58,5.65.62,8.16.73,4.79.05,6.69-.05,3.45-.21,4.51-.33A11.85,11.85,0,0,1,244.6,296Z" style="fill:#fff"></path><path d="M286.71,281a10.25,10.25,0,0,1-1.43.9c-.93.56-2.32,1.31-4.07,2.16s-3.88,1.78-6.29,2.69a75,75,0,0,1-16.24,4c-2.56.33-4.87.52-6.82.58s-3.52.07-4.61,0a9.64,9.64,0,0,1-1.68-.13,11.17,11.17,0,0,1,1.68-.07c1.09,0,2.66-.06,4.59-.18s4.24-.34,6.77-.69,5.31-.89,8.18-1.6,5.55-1.57,8-2.42,4.54-1.76,6.3-2.57,3.18-1.5,4.14-2A11.46,11.46,0,0,1,286.71,281Z" style="fill:#fff"></path><path d="M320.15,260.22a6,6,0,0,1-1.33.15c-.85.06-2.09.17-3.61.33a72.6,72.6,0,0,0-22.91,6.43c-1.38.65-2.49,1.2-3.25,1.6a6.75,6.75,0,0,1-1.22.56,7.36,7.36,0,0,1,1.12-.74c.73-.45,1.82-1.06,3.19-1.75a63.4,63.4,0,0,1,11.21-4.33,62.47,62.47,0,0,1,11.83-2.13c1.53-.12,2.78-.18,3.64-.17A6.28,6.28,0,0,1,320.15,260.22Z" style="fill:#fff"></path><path d="M324.73,302.15a6.18,6.18,0,0,1-1.31-.06c-.84-.08-2.05-.18-3.55-.27a87.94,87.94,0,0,0-11.72,0,91,91,0,0,0-11.61,1.59c-1.47.3-2.66.57-3.48.76a7.2,7.2,0,0,1-1.29.25A5.84,5.84,0,0,1,293,304c.8-.26,2-.58,3.45-.93a74.13,74.13,0,0,1,23.44-1.63c1.5.14,2.71.3,3.55.44A6.54,6.54,0,0,1,324.73,302.15Z" style="fill:#fff"></path><path d="M293.14,351.73c-.08,0,.39-1.46.91-3.83a43.77,43.77,0,0,0,1-9.39,43,43,0,0,0-1.13-9.37c-.55-2.36-1.06-3.78-1-3.81a4,4,0,0,1,.44,1c.25.63.56,1.57.89,2.75A37.66,37.66,0,0,1,294.4,348a25.19,25.19,0,0,1-.84,2.77A3.86,3.86,0,0,1,293.14,351.73Z" style="fill:#fff"></path><path d="M196.88,316.91a20.33,20.33,0,0,1-2.88.24,66.91,66.91,0,0,0-6.9.85,65.87,65.87,0,0,0-6.77,1.6,20.81,20.81,0,0,1-2.79.78,13.37,13.37,0,0,1,2.68-1.13A45.7,45.7,0,0,1,194,316.79,12.7,12.7,0,0,1,196.88,316.91Z" style="fill:#fff"></path><path d="M203.89,358.9s-.13,0-.38,0a8.82,8.82,0,0,1-1.09,0,18.06,18.06,0,0,1-3.95-.76,19.64,19.64,0,0,1-14-20.32,18,18,0,0,1,.7-4,10.65,10.65,0,0,1,.35-1,1.07,1.07,0,0,1,.17-.35,30.43,30.43,0,0,0-.85,5.36,19.84,19.84,0,0,0,13.76,20A29.41,29.41,0,0,0,203.89,358.9Z" style="fill:#fff"></path><path d="M226.63,365.47a91.81,91.81,0,0,1-9.53-2.14,94.29,94.29,0,0,1-9.41-2.65,92.28,92.28,0,0,1,9.54,2.14A94.55,94.55,0,0,1,226.63,365.47Z" style="fill:#fff"></path><path d="M280.05,355.61a8.88,8.88,0,0,1-1.29.7c-.84.43-2.08,1-3.62,1.69a105.74,105.74,0,0,1-12.4,4.53,108.22,108.22,0,0,1-12.85,3c-1.66.28-3,.47-3.95.57a9.31,9.31,0,0,1-1.47.11,7.16,7.16,0,0,1,1.44-.31c.92-.16,2.27-.41,3.92-.73,3.3-.64,7.84-1.66,12.77-3.13s9.28-3.09,12.39-4.36c1.56-.64,2.82-1.17,3.68-1.54A6.69,6.69,0,0,1,280.05,355.61Z" style="fill:#fff"></path><path d="M244.56,327.12a5.75,5.75,0,0,1-1.15.36c-.75.21-1.86.46-3.23.72a58.6,58.6,0,0,1-10.85.94,57.59,57.59,0,0,1-10.84-1.09c-1.37-.27-2.47-.53-3.22-.75a4.91,4.91,0,0,1-1.15-.38,5.71,5.71,0,0,1,1.2.18c.76.16,1.86.37,3.23.59a69.53,69.53,0,0,0,10.78.93,70.63,70.63,0,0,0,10.79-.79c1.37-.2,2.48-.4,3.24-.54A5.27,5.27,0,0,1,244.56,327.12Z" style="fill:#fff"></path><path d="M260.28,327.28a6.08,6.08,0,0,1-1.84.78,21.45,21.45,0,0,1-4.73.89,20.87,20.87,0,0,1-4.81-.2,6,6,0,0,1-1.93-.5,56.92,56.92,0,0,0,6.7.18A56.37,56.37,0,0,0,260.28,327.28Z" style="fill:#fff"></path><path d="M225.56,241.31c0,.09-1.43.24-3.72.63A67.59,67.59,0,0,0,213,244a69.23,69.23,0,0,0-8.46,3.27c-2.11,1-3.38,1.66-3.42,1.59a3.61,3.61,0,0,1,.84-.58c.55-.35,1.38-.81,2.42-1.34a53.63,53.63,0,0,1,17.39-5.39c1.16-.14,2.1-.23,2.76-.26A4.52,4.52,0,0,1,225.56,241.31Z" style="fill:#fff"></path><path d="M232.31,245.3A36.37,36.37,0,0,1,228,256.81c-.13-.07,1-2.58,2.18-5.75S232.16,245.27,232.31,245.3Z" style="fill:#fff"></path><path d="M263.71,252.63c.15,0-.53,3.36-1,7.52s-.52,7.55-.68,7.55a9,9,0,0,1-.14-2.23,50.94,50.94,0,0,1,.31-5.38,47.75,47.75,0,0,1,.87-5.31A9,9,0,0,1,263.71,252.63Z" style="fill:#fff"></path><path d="M275.67,253c-.15,0-.7-1.72-1.86-3.64s-2.45-3.25-2.34-3.36a8.34,8.34,0,0,1,2.79,3.09A8.23,8.23,0,0,1,275.67,253Z" style="fill:#fff"></path><path d="M205.07,318a26.52,26.52,0,0,0-.1-9.85,17.86,17.86,0,0,1-.47-5.95c.29-2,2-4.1,4-4l3.59,14.19Z" style="fill:#ffbe9d"></path><path d="M205,284.31l12.7,50.17,24.82-2.6L233,282.12A2.68,2.68,0,0,0,230.2,280l-22.72,1A2.7,2.7,0,0,0,205,284.31Z" style="fill:#263238"></path><path d="M233.55,296.24a8.22,8.22,0,0,1-.45-1.47l-1-4.06c-.42-1.75-.91-3.79-1.44-6-.08-.28-.13-.6-.22-.82a1.51,1.51,0,0,0-.47-.62,1.54,1.54,0,0,0-.72-.33,4.3,4.3,0,0,0-.88,0l-3.93.15c-5.39.21-10.27.36-13.8.45l-4.18.08a8.46,8.46,0,0,1-1.54,0,9.6,9.6,0,0,1,1.53-.16l4.17-.24c3.53-.18,8.41-.39,13.8-.6l3.93-.14a4.71,4.71,0,0,1,1,0,2.18,2.18,0,0,1,.95.44,2.1,2.1,0,0,1,.6.82,6.28,6.28,0,0,1,.23.9l1.34,6.06c.34,1.66.63,3,.85,4.09A10,10,0,0,1,233.55,296.24Z" style="fill:#455a64"></path><path d="M219.76,285.78a1.23,1.23,0,0,0-2.35.35,1.36,1.36,0,0,0,.74,1.23,1.26,1.26,0,0,0,1.41-.19A1.17,1.17,0,0,0,219.76,285.78Z" style="fill:#fafafa"></path><path d="M219.74,301.08c-.56.17-13.44,7.54-13.44,7.54l-6.55,7.54s-2.3,4.31,0,10.76,5.67,8.61,13.32,10.15l14.21-2.88,10-6.23-2.95-11.31-9.84,7.87-5.57,1-.92-1.8,8-4.62,12.56-10.62-3.93-4.26L223,311.74l-10,4.91,1.43-4.09L226,303.21S226.79,299,219.74,301.08Z" style="fill:#ffbe9d"></path><path d="M220.7,294.09s2.67-1.69,7.31,0,10.58,4.28,10.58,4.28l8.84,2.12-1.12-2.12s-8.59,1.25-8.45-5h5.21l4.36-2.48,9.15,8.16,4.08,10.27,5.63,4.29-6.86,17.53-14.53-2.4L232.52,330,226,325.18l-1-6.4-6.4-6s-.92-3.1,1.9-3.52,9.91,6,9.91,6l6.83-.13s1.13-1.12.14-1.69-21.53-9.57-22.51-11.75-2-3.58,0-4.29,5.35.28,5.35.28S219.2,294.63,220.7,294.09Z" style="fill:#ffbe9d"></path><path d="M237.86,305.71a92.82,92.82,0,0,1-9.14-3.79,94,94,0,0,1-8.93-4.26,94,94,0,0,1,9.14,3.79A94,94,0,0,1,237.86,305.71Z" style="fill:#eb996e"></path><path d="M242.61,321.6a4.84,4.84,0,0,1-1,.37c-.66.2-1.62.49-2.83.76a19.4,19.4,0,0,1-4.35.49,12.55,12.55,0,0,1-5.23-1.21,22.58,22.58,0,0,1-7.51-6.09c-.8-.94-1.42-1.73-1.83-2.29a4.76,4.76,0,0,1-.61-.89,39.85,39.85,0,0,1,2.71,2.94,24.36,24.36,0,0,0,7.45,5.86,12.87,12.87,0,0,0,5,1.2,20.82,20.82,0,0,0,4.27-.37C241.11,321.91,242.59,321.51,242.61,321.6Z" style="fill:#eb996e"></path><path d="M266.29,313.57l-.38-.25-1.1-.81-4.21-3.15,0,0v0c-1.08-2.67-2.47-6.13-4.13-10.25l0,.05L247.31,291l.22,0-4.36,2.5,0,0h-5.26l.21-.2a4.83,4.83,0,0,0,.61,2.5,4.46,4.46,0,0,0,2,1.7,11.35,11.35,0,0,0,5.58.61l.17,0,.07.13c.35.65.73,1.38,1.13,2.12l.24.45-.5-.12-8.85-2.1h0c-2.74-1.18-5.59-2.37-8.54-3.51a20.72,20.72,0,0,0-4.52-1.39,7.77,7.77,0,0,0-4.6.61l0,0h0c-.47.16-.65.77-.63,1.4a7.29,7.29,0,0,0,.36,1.93l.15.46-.47-.13a14.63,14.63,0,0,0-3-.5,4.46,4.46,0,0,0-2.84.55,1,1,0,0,0-.27,1.18,9.11,9.11,0,0,0,.59,1.44,4.69,4.69,0,0,0,.73,1.32,9.38,9.38,0,0,0,1.26.94,120.56,120.56,0,0,0,11.42,5.95l5.69,2.66,2.8,1.29.69.33a1.37,1.37,0,0,1,.71.58,1.12,1.12,0,0,1,0,.95,2.52,2.52,0,0,1-.48.69l-.07.07h-.1l-6.83.13h-.1l-.07-.07a41.75,41.75,0,0,0-6.69-5c-1.16-.62-2.46-1.3-3.63-.83a1.82,1.82,0,0,0-1.15,1.26,3.82,3.82,0,0,0,0,1.81l-.06-.11,6.39,6,.06.05v.08q.49,3.31,1,6.4l-.08-.13,6.47,4.8-.12,0,12.39-1.22h0l10.75,1.84,2.81.5.71.14.24.05-.24,0-.72-.1-2.82-.43-10.77-1.72h0l-12.37,1.3h-.07l-.06,0-6.49-4.77-.07,0v-.08c-.32-2-.65-4.19-1-6.4l.06.12q-3.06-2.85-6.41-6l-.05-.05v-.06a4.22,4.22,0,0,1,0-2.06,2.7,2.7,0,0,1,.51-1,2.37,2.37,0,0,1,.91-.6,3.18,3.18,0,0,1,2.13,0,10.8,10.8,0,0,1,1.9.85,42.16,42.16,0,0,1,6.79,5.06l-.17-.06,6.83-.14-.18.07c.3-.3.58-.79.43-1.06s-.73-.45-1.16-.67l-2.8-1.29-5.69-2.65a120,120,0,0,1-11.49-6,9.63,9.63,0,0,1-1.33-1,2.16,2.16,0,0,1-.5-.74l-.35-.73a10.38,10.38,0,0,1-.61-1.53,2.29,2.29,0,0,1-.06-.91,1.3,1.3,0,0,1,.5-.8,4.88,4.88,0,0,1,3.2-.67,14.37,14.37,0,0,1,3.09.53l-.32.33a7.54,7.54,0,0,1-.38-2.09,2.92,2.92,0,0,1,.16-1.08,1.43,1.43,0,0,1,.8-.82l-.05,0a8.19,8.19,0,0,1,4.94-.68,21.68,21.68,0,0,1,4.63,1.42c3,1.15,5.81,2.34,8.56,3.54h0l8.84,2.12-.26.34-1.12-2.12.23.12a11.72,11.72,0,0,1-5.83-.66,5,5,0,0,1-2.2-1.87,5.34,5.34,0,0,1-.66-2.74v-.21h.22l5.21,0-.1,0,4.37-2.47.12-.07.1.09,9.12,8.19,0,0v0l4,10.3,0,0,4.15,3.22,1.07.85Z" style="fill:#eb996e"></path></g><g id="freepik--paper-plane--inject-2"><polygon points="96.25 175.42 165.59 143.4 147.4 211.22 131.87 198.38 121.32 205.36 115.69 204.29 109.85 182.41 96.25 175.42" style="fill:#6F35A5"></polygon><g style="opacity:0.5"><polygon points="115.97 203.59 165.59 143.4 109.85 182.41 115.97 203.59"></polygon></g><path d="M165.8,142.55c.12.07-7,12.29-15.86,27.28s-16.18,27.09-16.31,27,7-12.28,15.86-27.28S165.67,142.48,165.8,142.55Z" style="fill:#263238"></path><path d="M143.42,155c.06.13-9.36,4.68-21,10.16s-21.19,9.81-21.25,9.68,9.35-4.68,21-10.16S143.36,154.83,143.42,155Z" style="fill:#fff"></path><path d="M148.46,152.89c.06.13-.35.45-.92.71s-1.08.36-1.14.23.35-.44.92-.71S148.4,152.76,148.46,152.89Z" style="fill:#fff"></path><path d="M146.28,178.48a17,17,0,0,1-1.39,2.91c-.94,1.75-2.31,4.13-3.94,6.68s-3.24,4.79-4.44,6.37a18.49,18.49,0,0,1-2.06,2.47,20.8,20.8,0,0,1,1.76-2.69c1.12-1.63,2.66-3.89,4.3-6.43s3-4.89,4.06-6.59A25.11,25.11,0,0,1,146.28,178.48Z" style="fill:#fff"></path><path d="M109.44,208.63c-.07-.13.57-.61,1.47-1s1.68-.56,1.73-.42-.65.5-1.52.89S109.51,208.76,109.44,208.63Z" style="fill:#263238"></path><path d="M99.28,217.73a12.94,12.94,0,0,1,4.53-5.16,18.73,18.73,0,0,1-2.22,2.62A18.93,18.93,0,0,1,99.28,217.73Z" style="fill:#263238"></path><path d="M94.33,230.43a8.35,8.35,0,0,1,.4-3.44,8.21,8.21,0,0,1,1.32-3.2,21.12,21.12,0,0,1-.81,3.33A19.38,19.38,0,0,1,94.33,230.43Z" style="fill:#263238"></path><path d="M96.16,243.92a8.52,8.52,0,0,1-1.36-3.19,8.15,8.15,0,0,1-.44-3.43,19.58,19.58,0,0,1,.94,3.3A18.17,18.17,0,0,1,96.16,243.92Z" style="fill:#263238"></path><path d="M104.11,255a8.47,8.47,0,0,1-2.64-2.23,8.27,8.27,0,0,1-2-2.85,18.66,18.66,0,0,1,2.35,2.5A18.94,18.94,0,0,1,104.11,255Z" style="fill:#263238"></path><path d="M116.25,261.17c0,.07-.4,0-1-.06a12.3,12.3,0,0,1-2.37-.62,8.16,8.16,0,0,1-3.07-1.62A20.83,20.83,0,0,1,113,260c.88.32,1.7.57,2.29.75S116.27,261.1,116.25,261.17Z" style="fill:#263238"></path><path d="M129.54,259.14a6.46,6.46,0,0,1-3,1.75,7.16,7.16,0,0,1-3.43.53c0-.15,1.5-.41,3.26-1S129.45,259,129.54,259.14Z" style="fill:#263238"></path><path d="M134.28,247.14a6.27,6.27,0,0,1,.54,3.44,6,6,0,0,1-1,3.34c-.15-.06.35-1.51.45-3.37S134.13,247.18,134.28,247.14Z" style="fill:#263238"></path><path d="M126,236.84a6.21,6.21,0,0,1,3.13,1.52,6.56,6.56,0,0,1,2.28,2.62c-.12.1-1.12-1.07-2.59-2.21S125.9,237,126,236.84Z" style="fill:#263238"></path><path d="M112.57,237.41a7.61,7.61,0,0,1,3.19-1.37,7.28,7.28,0,0,1,3.45-.27,30.79,30.79,0,0,1-3.33.78A25.38,25.38,0,0,1,112.57,237.41Z" style="fill:#263238"></path><path d="M102.53,246.49a8,8,0,0,1,1.74-3,9.85,9.85,0,0,1,2.55-2.35,14.09,14.09,0,0,1-2.14,2.68A21.05,21.05,0,0,1,102.53,246.49Z" style="fill:#263238"></path><path d="M98.4,259.51a14.3,14.3,0,0,1,1.38-6.73,17.06,17.06,0,0,1-.59,3.39A15.37,15.37,0,0,1,98.4,259.51Z" style="fill:#263238"></path><path d="M98.86,273.22a15.86,15.86,0,0,1-.71-6.84,15.21,15.21,0,0,1,.49,3.41A14.92,14.92,0,0,1,98.86,273.22Z" style="fill:#263238"></path><path d="M102.94,286.32a9.67,9.67,0,0,1-1.58-3.08,9.55,9.55,0,0,1-.88-3.34,14.73,14.73,0,0,1,1.37,3.16A15,15,0,0,1,102.94,286.32Z" style="fill:#263238"></path><path d="M110.1,298a9.63,9.63,0,0,1-2.26-2.61,9.46,9.46,0,0,1-1.67-3,14.82,14.82,0,0,1,2.09,2.73A14.13,14.13,0,0,1,110.1,298Z" style="fill:#263238"></path><path d="M119.88,307.67a9.54,9.54,0,0,1-2.84-2,9.77,9.77,0,0,1-2.35-2.54,14.23,14.23,0,0,1,2.7,2.15A14.36,14.36,0,0,1,119.88,307.67Z" style="fill:#263238"></path><path d="M131.76,314.52a9.28,9.28,0,0,1-3.25-1.17,9.46,9.46,0,0,1-2.92-1.86,15.39,15.39,0,0,1,3.15,1.39A16,16,0,0,1,131.76,314.52Z" style="fill:#263238"></path><path d="M145.17,317.21a9.24,9.24,0,0,1-3.46.06,8.8,8.8,0,0,1-3.38-.75,16.86,16.86,0,0,1,3.43.23A15.61,15.61,0,0,1,145.17,317.21Z" style="fill:#263238"></path><path d="M158.82,315.81a10.25,10.25,0,0,1-3.34.88,10,10,0,0,1-3.44.2,13.72,13.72,0,0,1,3.36-.72A13.46,13.46,0,0,1,158.82,315.81Z" style="fill:#263238"></path><path d="M172,312a11.44,11.44,0,0,1-3.19,1.33,11.32,11.32,0,0,1-3.34.83,11.63,11.63,0,0,1,3.18-1.33A12,12,0,0,1,172,312Z" style="fill:#263238"></path><path d="M184.64,306.48a11.91,11.91,0,0,1-3,1.7,11.6,11.6,0,0,1-3.22,1.23,11.17,11.17,0,0,1,3-1.7A11.48,11.48,0,0,1,184.64,306.48Z" style="fill:#263238"></path><path d="M196.55,299.59a11.5,11.5,0,0,1-2.79,2,11.25,11.25,0,0,1-3.07,1.58,12,12,0,0,1,2.79-2A11.81,11.81,0,0,1,196.55,299.59Z" style="fill:#263238"></path><path d="M204.91,293.45c.09.11-.45.69-1.21,1.29s-1.45,1-1.53.88.45-.69,1.21-1.29S204.82,293.34,204.91,293.45Z" style="fill:#263238"></path></g></svg>